<!--

https://github.com/datalog/qrcode-svg

--><svg viewBox="0 0 37 37" width="256" height="256" fill="#000000" shape-rendering="crispEdges" xmlns="http://www.w3.org/2000/svg" version="1.1"><path transform="matrix(1,0,0,1,4,4)" d="M28,28h1v1h-1v-1zM24,28h2v1h-2v-1zM20,28h1v1h-1v-1zM15,28h2v1h-2v-1zM10,28h3v1h-3v-1zM8,28h1v1h-1v-1zM0,28h7v1h-7v-1zM23,27h3v1h-3v-1zM20,27h1v1h-1v-1zM18,27h1v1h-1v-1zM14,27h3v1h-3v-1zM9,27h3v1h-3v-1zM6,27h1v1h-1v-1zM0,27h1v1h-1v-1zM27,26h2v1h-2v-1zM24,26h1v1h-1v-1zM21,26h1v1h-1v-1zM14,26h3v1h-3v-1zM10,26h3v1h-3v-1zM8,26h1v1h-1v-1zM6,26h1v1h-1v-1zM2,26h3v1h-3v-1zM0,26h1v1h-1v-1zM28,25h1v1h-1v-1zM24,25h3v1h-3v-1zM19,25h3v1h-3v-1zM14,25h4v1h-4v-1zM11,25h1v1h-1v-1zM9,25h1v1h-1v-1zM6,25h1v1h-1v-1zM2,25h3v1h-3v-1zM0,25h1v1h-1v-1zM27,24h1v1h-1v-1zM18,24h8v1h-8v-1zM11,24h5v1h-5v-1zM9,24h1v1h-1v-1zM6,24h1v1h-1v-1zM2,24h3v1h-3v-1zM0,24h1v1h-1v-1zM24,23h1v1h-1v-1zM19,23h2v1h-2v-1zM14,23h2v1h-2v-1zM12,23h1v1h-1v-1zM9,23h1v1h-1v-1zM6,23h1v1h-1v-1zM0,23h1v1h-1v-1zM28,22h1v1h-1v-1zM24,22h1v1h-1v-1zM22,22h1v1h-1v-1zM20,22h1v1h-1v-1zM18,22h1v1h-1v-1zM13,22h4v1h-4v-1zM10,22h1v1h-1v-1zM8,22h1v1h-1v-1zM0,22h7v1h-7v-1zM28,21h1v1h-1v-1zM24,21h3v1h-3v-1zM20,21h1v1h-1v-1zM15,21h4v1h-4v-1zM11,21h1v1h-1v-1zM8,21h2v1h-2v-1zM27,20h1v1h-1v-1zM20,20h6v1h-6v-1zM16,20h1v1h-1v-1zM9,20h5v1h-5v-1zM5,20h3v1h-3v-1zM0,20h2v1h-2v-1zM24,19h1v1h-1v-1zM22,19h1v1h-1v-1zM20,19h1v1h-1v-1zM15,19h2v1h-2v-1zM13,19h1v1h-1v-1zM7,19h1v1h-1v-1zM4,19h2v1h-2v-1zM28,18h1v1h-1v-1zM24,18h2v1h-2v-1zM19,18h1v1h-1v-1zM15,18h1v1h-1v-1zM12,18h1v1h-1v-1zM10,18h1v1h-1v-1zM5,18h4v1h-4v-1zM0,18h3v1h-3v-1zM26,17h3v1h-3v-1zM22,17h2v1h-2v-1zM19,17h1v1h-1v-1zM15,17h3v1h-3v-1zM12,17h2v1h-2v-1zM7,17h1v1h-1v-1zM4,17h2v1h-2v-1zM28,16h1v1h-1v-1zM20,16h3v1h-3v-1zM11,16h6v1h-6v-1zM6,16h4v1h-4v-1zM4,16h1v1h-1v-1zM1,16h2v1h-2v-1zM22,15h2v1h-2v-1zM18,15h3v1h-3v-1zM14,15h3v1h-3v-1zM10,15h2v1h-2v-1zM5,15h1v1h-1v-1zM0,15h2v1h-2v-1zM28,14h1v1h-1v-1zM21,14h4v1h-4v-1zM17,14h3v1h-3v-1zM15,14h1v1h-1v-1zM11,14h3v1h-3v-1zM8,14h2v1h-2v-1zM2,14h5v1h-5v-1zM27,13h2v1h-2v-1zM22,13h2v1h-2v-1zM19,13h2v1h-2v-1zM15,13h2v1h-2v-1zM12,13h1v1h-1v-1zM7,13h3v1h-3v-1zM5,13h1v1h-1v-1zM2,13h2v1h-2v-1zM0,13h1v1h-1v-1zM28,12h1v1h-1v-1zM22,12h2v1h-2v-1zM19,12h1v1h-1v-1zM15,12h2v1h-2v-1zM12,12h1v1h-1v-1zM8,12h1v1h-1v-1zM6,12h1v1h-1v-1zM4,12h1v1h-1v-1zM0,12h2v1h-2v-1zM24,11h2v1h-2v-1zM21,11h1v1h-1v-1zM19,11h1v1h-1v-1zM14,11h3v1h-3v-1zM11,11h2v1h-2v-1zM7,11h1v1h-1v-1zM4,11h2v1h-2v-1zM1,11h1v1h-1v-1zM28,10h1v1h-1v-1zM22,10h5v1h-5v-1zM18,10h3v1h-3v-1zM15,10h1v1h-1v-1zM10,10h4v1h-4v-1zM6,10h2v1h-2v-1zM3,10h2v1h-2v-1zM0,10h2v1h-2v-1zM27,9h2v1h-2v-1zM18,9h6v1h-6v-1zM15,9h2v1h-2v-1zM11,9h3v1h-3v-1zM7,9h2v1h-2v-1zM2,9h4v1h-4v-1zM0,9h1v1h-1v-1zM28,8h1v1h-1v-1zM26,8h1v1h-1v-1zM23,8h1v1h-1v-1zM19,8h1v1h-1v-1zM15,8h2v1h-2v-1zM9,8h4v1h-4v-1zM6,8h2v1h-2v-1zM2,8h1v1h-1v-1zM0,8h1v1h-1v-1zM20,7h1v1h-1v-1zM18,7h1v1h-1v-1zM16,7h1v1h-1v-1zM14,7h1v1h-1v-1zM22,6h7v1h-7v-1zM20,6h1v1h-1v-1zM18,6h1v1h-1v-1zM16,6h1v1h-1v-1zM14,6h1v1h-1v-1zM12,6h1v1h-1v-1zM10,6h1v1h-1v-1zM8,6h1v1h-1v-1zM0,6h7v1h-7v-1zM28,5h1v1h-1v-1zM22,5h1v1h-1v-1zM20,5h1v1h-1v-1zM16,5h2v1h-2v-1zM11,5h2v1h-2v-1zM8,5h1v1h-1v-1zM6,5h1v1h-1v-1zM0,5h1v1h-1v-1zM28,4h1v1h-1v-1zM24,4h3v1h-3v-1zM22,4h1v1h-1v-1zM18,4h1v1h-1v-1zM11,4h4v1h-4v-1zM9,4h1v1h-1v-1zM6,4h1v1h-1v-1zM2,4h3v1h-3v-1zM0,4h1v1h-1v-1zM28,3h1v1h-1v-1zM24,3h3v1h-3v-1zM22,3h1v1h-1v-1zM16,3h3v1h-3v-1zM9,3h6v1h-6v-1zM6,3h1v1h-1v-1zM2,3h3v1h-3v-1zM0,3h1v1h-1v-1zM28,2h1v1h-1v-1zM24,2h3v1h-3v-1zM22,2h1v1h-1v-1zM16,2h5v1h-5v-1zM11,2h3v1h-3v-1zM8,2h2v1h-2v-1zM6,2h1v1h-1v-1zM2,2h3v1h-3v-1zM0,2h1v1h-1v-1zM28,1h1v1h-1v-1zM22,1h1v1h-1v-1zM20,1h1v1h-1v-1zM17,1h2v1h-2v-1zM11,1h4v1h-4v-1zM9,1h1v1h-1v-1zM6,1h1v1h-1v-1zM0,1h1v1h-1v-1zM22,0h7v1h-7v-1zM18,0h1v1h-1v-1zM13,0h3v1h-3v-1zM11,0h1v1h-1v-1zM8,0h1v1h-1v-1zM0,0h7v1h-7v-1z"/></svg>