<!--

https://github.com/datalog/qrcode-svg

--><svg viewBox="0 0 41 41" width="256" height="256" fill="#000000" shape-rendering="crispEdges" xmlns="http://www.w3.org/2000/svg" version="1.1"><path transform="matrix(1,0,0,1,4,4)" d="M32,32h1v1h-1v-1zM26,32h1v1h-1v-1zM20,32h5v1h-5v-1zM17,32h1v1h-1v-1zM11,32h5v1h-5v-1zM8,32h2v1h-2v-1zM0,32h7v1h-7v-1zM24,31h3v1h-3v-1zM20,31h2v1h-2v-1zM17,31h1v1h-1v-1zM10,31h2v1h-2v-1zM6,31h1v1h-1v-1zM0,31h1v1h-1v-1zM26,30h5v1h-5v-1zM23,30h2v1h-2v-1zM16,30h3v1h-3v-1zM12,30h1v1h-1v-1zM6,30h1v1h-1v-1zM2,30h3v1h-3v-1zM0,30h1v1h-1v-1zM30,29h1v1h-1v-1zM26,29h3v1h-3v-1zM23,29h2v1h-2v-1zM21,29h1v1h-1v-1zM16,29h1v1h-1v-1zM14,29h1v1h-1v-1zM11,29h1v1h-1v-1zM9,29h1v1h-1v-1zM6,29h1v1h-1v-1zM2,29h3v1h-3v-1zM0,29h1v1h-1v-1zM31,28h2v1h-2v-1zM24,28h6v1h-6v-1zM20,28h3v1h-3v-1zM18,28h1v1h-1v-1zM12,28h1v1h-1v-1zM8,28h2v1h-2v-1zM6,28h1v1h-1v-1zM2,28h3v1h-3v-1zM0,28h1v1h-1v-1zM32,27h1v1h-1v-1zM28,27h1v1h-1v-1zM24,27h1v1h-1v-1zM20,27h2v1h-2v-1zM17,27h2v1h-2v-1zM13,27h3v1h-3v-1zM9,27h2v1h-2v-1zM6,27h1v1h-1v-1zM0,27h1v1h-1v-1zM31,26h1v1h-1v-1zM28,26h2v1h-2v-1zM26,26h1v1h-1v-1zM24,26h1v1h-1v-1zM20,26h3v1h-3v-1zM17,26h1v1h-1v-1zM14,26h2v1h-2v-1zM12,26h1v1h-1v-1zM8,26h3v1h-3v-1zM0,26h7v1h-7v-1zM30,25h2v1h-2v-1zM28,25h1v1h-1v-1zM23,25h2v1h-2v-1zM20,25h1v1h-1v-1zM18,25h1v1h-1v-1zM14,25h3v1h-3v-1zM10,25h2v1h-2v-1zM8,25h1v1h-1v-1zM32,24h1v1h-1v-1zM24,24h6v1h-6v-1zM19,24h4v1h-4v-1zM16,24h1v1h-1v-1zM10,24h3v1h-3v-1zM5,24h3v1h-3v-1zM0,24h4v1h-4v-1zM25,23h4v1h-4v-1zM23,23h1v1h-1v-1zM21,23h1v1h-1v-1zM13,23h5v1h-5v-1zM10,23h1v1h-1v-1zM3,23h3v1h-3v-1zM31,22h1v1h-1v-1zM25,22h1v1h-1v-1zM22,22h2v1h-2v-1zM20,22h1v1h-1v-1zM18,22h1v1h-1v-1zM5,22h11v1h-11v-1zM30,21h2v1h-2v-1zM27,21h1v1h-1v-1zM25,21h1v1h-1v-1zM23,21h1v1h-1v-1zM17,21h2v1h-2v-1zM14,21h1v1h-1v-1zM11,21h1v1h-1v-1zM8,21h1v1h-1v-1zM0,21h6v1h-6v-1zM28,20h2v1h-2v-1zM24,20h3v1h-3v-1zM20,20h3v1h-3v-1zM16,20h1v1h-1v-1zM12,20h3v1h-3v-1zM6,20h3v1h-3v-1zM2,20h3v1h-3v-1zM32,19h1v1h-1v-1zM27,19h1v1h-1v-1zM23,19h3v1h-3v-1zM19,19h3v1h-3v-1zM11,19h4v1h-4v-1zM3,19h2v1h-2v-1zM0,19h1v1h-1v-1zM31,18h1v1h-1v-1zM29,18h1v1h-1v-1zM27,18h1v1h-1v-1zM25,18h1v1h-1v-1zM22,18h2v1h-2v-1zM20,18h1v1h-1v-1zM18,18h1v1h-1v-1zM15,18h2v1h-2v-1zM13,18h1v1h-1v-1zM6,18h4v1h-4v-1zM1,18h2v1h-2v-1zM29,17h3v1h-3v-1zM25,17h1v1h-1v-1zM23,17h1v1h-1v-1zM17,17h3v1h-3v-1zM9,17h7v1h-7v-1zM1,17h4v1h-4v-1zM31,16h1v1h-1v-1zM28,16h1v1h-1v-1zM26,16h1v1h-1v-1zM20,16h5v1h-5v-1zM17,16h1v1h-1v-1zM14,16h2v1h-2v-1zM8,16h3v1h-3v-1zM6,16h1v1h-1v-1zM0,16h4v1h-4v-1zM24,15h5v1h-5v-1zM21,15h2v1h-2v-1zM17,15h2v1h-2v-1zM10,15h5v1h-5v-1zM7,15h2v1h-2v-1zM2,15h1v1h-1v-1zM0,15h1v1h-1v-1zM31,14h1v1h-1v-1zM28,14h1v1h-1v-1zM23,14h4v1h-4v-1zM20,14h1v1h-1v-1zM16,14h2v1h-2v-1zM12,14h1v1h-1v-1zM6,14h5v1h-5v-1zM3,14h1v1h-1v-1zM0,14h2v1h-2v-1zM29,13h1v1h-1v-1zM27,13h1v1h-1v-1zM25,13h1v1h-1v-1zM23,13h1v1h-1v-1zM21,13h1v1h-1v-1zM16,13h1v1h-1v-1zM13,13h1v1h-1v-1zM9,13h1v1h-1v-1zM5,13h1v1h-1v-1zM3,13h1v1h-1v-1zM0,13h1v1h-1v-1zM32,12h1v1h-1v-1zM28,12h2v1h-2v-1zM26,12h1v1h-1v-1zM21,12h3v1h-3v-1zM18,12h1v1h-1v-1zM13,12h3v1h-3v-1zM10,12h2v1h-2v-1zM5,12h2v1h-2v-1zM1,12h2v1h-2v-1zM31,11h1v1h-1v-1zM23,11h1v1h-1v-1zM21,11h1v1h-1v-1zM17,11h3v1h-3v-1zM14,11h1v1h-1v-1zM11,11h1v1h-1v-1zM8,11h1v1h-1v-1zM5,11h1v1h-1v-1zM1,11h1v1h-1v-1zM29,10h1v1h-1v-1zM25,10h1v1h-1v-1zM23,10h1v1h-1v-1zM21,10h1v1h-1v-1zM17,10h1v1h-1v-1zM15,10h1v1h-1v-1zM11,10h1v1h-1v-1zM6,10h1v1h-1v-1zM4,10h1v1h-1v-1zM0,10h2v1h-2v-1zM29,9h3v1h-3v-1zM25,9h1v1h-1v-1zM23,9h1v1h-1v-1zM21,9h1v1h-1v-1zM18,9h1v1h-1v-1zM15,9h2v1h-2v-1zM13,9h1v1h-1v-1zM11,9h1v1h-1v-1zM7,9h3v1h-3v-1zM4,9h1v1h-1v-1zM0,9h2v1h-2v-1zM32,8h1v1h-1v-1zM25,8h5v1h-5v-1zM21,8h1v1h-1v-1zM19,8h1v1h-1v-1zM17,8h1v1h-1v-1zM12,8h1v1h-1v-1zM6,8h4v1h-4v-1zM4,8h1v1h-1v-1zM0,8h1v1h-1v-1zM21,7h2v1h-2v-1zM14,7h6v1h-6v-1zM12,7h1v1h-1v-1zM8,7h1v1h-1v-1zM26,6h7v1h-7v-1zM24,6h1v1h-1v-1zM22,6h1v1h-1v-1zM20,6h1v1h-1v-1zM18,6h1v1h-1v-1zM16,6h1v1h-1v-1zM14,6h1v1h-1v-1zM12,6h1v1h-1v-1zM10,6h1v1h-1v-1zM8,6h1v1h-1v-1zM0,6h7v1h-7v-1zM32,5h1v1h-1v-1zM26,5h1v1h-1v-1zM24,5h1v1h-1v-1zM21,5h1v1h-1v-1zM16,5h4v1h-4v-1zM10,5h1v1h-1v-1zM8,5h1v1h-1v-1zM6,5h1v1h-1v-1zM0,5h1v1h-1v-1zM32,4h1v1h-1v-1zM28,4h3v1h-3v-1zM26,4h1v1h-1v-1zM23,4h1v1h-1v-1zM18,4h3v1h-3v-1zM14,4h1v1h-1v-1zM11,4h2v1h-2v-1zM8,4h2v1h-2v-1zM6,4h1v1h-1v-1zM2,4h3v1h-3v-1zM0,4h1v1h-1v-1zM32,3h1v1h-1v-1zM28,3h3v1h-3v-1zM26,3h1v1h-1v-1zM22,3h3v1h-3v-1zM17,3h2v1h-2v-1zM14,3h2v1h-2v-1zM11,3h1v1h-1v-1zM8,3h2v1h-2v-1zM6,3h1v1h-1v-1zM2,3h3v1h-3v-1zM0,3h1v1h-1v-1zM32,2h1v1h-1v-1zM28,2h3v1h-3v-1zM26,2h1v1h-1v-1zM21,2h4v1h-4v-1zM19,2h1v1h-1v-1zM16,2h1v1h-1v-1zM10,2h4v1h-4v-1zM6,2h1v1h-1v-1zM2,2h3v1h-3v-1zM0,2h1v1h-1v-1zM32,1h1v1h-1v-1zM26,1h1v1h-1v-1zM22,1h1v1h-1v-1zM19,1h2v1h-2v-1zM17,1h1v1h-1v-1zM9,1h1v1h-1v-1zM6,1h1v1h-1v-1zM0,1h1v1h-1v-1zM26,0h7v1h-7v-1zM23,0h1v1h-1v-1zM14,0h6v1h-6v-1zM8,0h4v1h-4v-1zM0,0h7v1h-7v-1z"/></svg>