<!--

https://github.com/datalog/qrcode-svg

--><svg viewBox="0 0 41 41" width="256" height="256" fill="#000000" shape-rendering="crispEdges" xmlns="http://www.w3.org/2000/svg" version="1.1"><path transform="matrix(1,0,0,1,4,4)" d="M31,32h1v1h-1v-1zM27,32h1v1h-1v-1zM24,32h1v1h-1v-1zM22,32h1v1h-1v-1zM20,32h1v1h-1v-1zM17,32h1v1h-1v-1zM14,32h2v1h-2v-1zM12,32h1v1h-1v-1zM8,32h2v1h-2v-1zM0,32h7v1h-7v-1zM28,31h3v1h-3v-1zM25,31h1v1h-1v-1zM21,31h2v1h-2v-1zM15,31h1v1h-1v-1zM10,31h2v1h-2v-1zM6,31h1v1h-1v-1zM0,31h1v1h-1v-1zM29,30h1v1h-1v-1zM23,30h5v1h-5v-1zM20,30h2v1h-2v-1zM15,30h2v1h-2v-1zM10,30h3v1h-3v-1zM8,30h1v1h-1v-1zM6,30h1v1h-1v-1zM2,30h3v1h-3v-1zM0,30h1v1h-1v-1zM30,29h3v1h-3v-1zM28,29h1v1h-1v-1zM25,29h1v1h-1v-1zM23,29h1v1h-1v-1zM18,29h4v1h-4v-1zM14,29h2v1h-2v-1zM11,29h2v1h-2v-1zM8,29h1v1h-1v-1zM6,29h1v1h-1v-1zM2,29h3v1h-3v-1zM0,29h1v1h-1v-1zM31,28h2v1h-2v-1zM24,28h6v1h-6v-1zM22,28h1v1h-1v-1zM11,28h6v1h-6v-1zM8,28h1v1h-1v-1zM6,28h1v1h-1v-1zM2,28h3v1h-3v-1zM0,28h1v1h-1v-1zM28,27h5v1h-5v-1zM21,27h4v1h-4v-1zM17,27h3v1h-3v-1zM12,27h1v1h-1v-1zM8,27h2v1h-2v-1zM6,27h1v1h-1v-1zM0,27h1v1h-1v-1zM30,26h2v1h-2v-1zM28,26h1v1h-1v-1zM26,26h1v1h-1v-1zM22,26h3v1h-3v-1zM17,26h1v1h-1v-1zM12,26h4v1h-4v-1zM0,26h7v1h-7v-1zM32,25h1v1h-1v-1zM30,25h1v1h-1v-1zM28,25h1v1h-1v-1zM23,25h2v1h-2v-1zM17,25h5v1h-5v-1zM12,25h3v1h-3v-1zM8,25h1v1h-1v-1zM22,24h8v1h-8v-1zM19,24h2v1h-2v-1zM17,24h1v1h-1v-1zM14,24h1v1h-1v-1zM10,24h1v1h-1v-1zM6,24h3v1h-3v-1zM2,24h2v1h-2v-1zM0,24h1v1h-1v-1zM29,23h4v1h-4v-1zM25,23h3v1h-3v-1zM20,23h4v1h-4v-1zM16,23h1v1h-1v-1zM10,23h5v1h-5v-1zM8,23h1v1h-1v-1zM4,23h1v1h-1v-1zM0,23h1v1h-1v-1zM28,22h4v1h-4v-1zM25,22h1v1h-1v-1zM20,22h3v1h-3v-1zM17,22h1v1h-1v-1zM12,22h3v1h-3v-1zM8,22h3v1h-3v-1zM5,22h2v1h-2v-1zM0,22h1v1h-1v-1zM32,21h1v1h-1v-1zM30,21h1v1h-1v-1zM25,21h2v1h-2v-1zM23,21h1v1h-1v-1zM19,21h2v1h-2v-1zM14,21h3v1h-3v-1zM11,21h2v1h-2v-1zM7,21h3v1h-3v-1zM4,21h2v1h-2v-1zM0,21h2v1h-2v-1zM32,20h1v1h-1v-1zM28,20h2v1h-2v-1zM24,20h2v1h-2v-1zM22,20h1v1h-1v-1zM18,20h1v1h-1v-1zM9,20h3v1h-3v-1zM6,20h2v1h-2v-1zM3,20h2v1h-2v-1zM0,20h2v1h-2v-1zM32,19h1v1h-1v-1zM27,19h4v1h-4v-1zM20,19h4v1h-4v-1zM16,19h1v1h-1v-1zM14,19h1v1h-1v-1zM11,19h1v1h-1v-1zM7,19h3v1h-3v-1zM2,19h4v1h-4v-1zM30,18h2v1h-2v-1zM27,18h2v1h-2v-1zM21,18h2v1h-2v-1zM18,18h1v1h-1v-1zM15,18h1v1h-1v-1zM12,18h1v1h-1v-1zM8,18h3v1h-3v-1zM6,18h1v1h-1v-1zM2,18h3v1h-3v-1zM0,18h1v1h-1v-1zM32,17h1v1h-1v-1zM29,17h2v1h-2v-1zM23,17h5v1h-5v-1zM19,17h1v1h-1v-1zM16,17h1v1h-1v-1zM11,17h3v1h-3v-1zM2,17h1v1h-1v-1zM32,16h1v1h-1v-1zM27,16h2v1h-2v-1zM23,16h3v1h-3v-1zM17,16h1v1h-1v-1zM14,16h2v1h-2v-1zM11,16h2v1h-2v-1zM4,16h3v1h-3v-1zM1,16h2v1h-2v-1zM29,15h2v1h-2v-1zM25,15h3v1h-3v-1zM20,15h3v1h-3v-1zM15,15h1v1h-1v-1zM12,15h1v1h-1v-1zM8,15h3v1h-3v-1zM4,15h2v1h-2v-1zM0,15h1v1h-1v-1zM31,14h1v1h-1v-1zM25,14h4v1h-4v-1zM20,14h3v1h-3v-1zM15,14h2v1h-2v-1zM10,14h3v1h-3v-1zM2,14h6v1h-6v-1zM0,14h1v1h-1v-1zM29,13h4v1h-4v-1zM25,13h2v1h-2v-1zM23,13h1v1h-1v-1zM21,13h1v1h-1v-1zM17,13h2v1h-2v-1zM15,13h1v1h-1v-1zM13,13h1v1h-1v-1zM8,13h1v1h-1v-1zM5,13h1v1h-1v-1zM0,13h3v1h-3v-1zM27,12h3v1h-3v-1zM23,12h3v1h-3v-1zM19,12h1v1h-1v-1zM14,12h3v1h-3v-1zM5,12h4v1h-4v-1zM3,12h1v1h-1v-1zM0,12h1v1h-1v-1zM28,11h4v1h-4v-1zM25,11h1v1h-1v-1zM20,11h4v1h-4v-1zM17,11h2v1h-2v-1zM13,11h1v1h-1v-1zM11,11h1v1h-1v-1zM7,11h2v1h-2v-1zM2,11h4v1h-4v-1zM30,10h2v1h-2v-1zM28,10h1v1h-1v-1zM26,10h1v1h-1v-1zM24,10h1v1h-1v-1zM20,10h3v1h-3v-1zM12,10h6v1h-6v-1zM3,10h8v1h-8v-1zM29,9h4v1h-4v-1zM26,9h2v1h-2v-1zM23,9h1v1h-1v-1zM16,9h6v1h-6v-1zM12,9h2v1h-2v-1zM10,9h1v1h-1v-1zM7,9h1v1h-1v-1zM4,9h2v1h-2v-1zM26,8h5v1h-5v-1zM22,8h1v1h-1v-1zM17,8h3v1h-3v-1zM11,8h3v1h-3v-1zM2,8h5v1h-5v-1zM0,8h1v1h-1v-1zM24,7h1v1h-1v-1zM18,7h4v1h-4v-1zM16,7h1v1h-1v-1zM14,7h1v1h-1v-1zM11,7h2v1h-2v-1zM8,7h2v1h-2v-1zM26,6h7v1h-7v-1zM24,6h1v1h-1v-1zM22,6h1v1h-1v-1zM20,6h1v1h-1v-1zM18,6h1v1h-1v-1zM16,6h1v1h-1v-1zM14,6h1v1h-1v-1zM12,6h1v1h-1v-1zM10,6h1v1h-1v-1zM8,6h1v1h-1v-1zM0,6h7v1h-7v-1zM32,5h1v1h-1v-1zM26,5h1v1h-1v-1zM21,5h1v1h-1v-1zM19,5h1v1h-1v-1zM17,5h1v1h-1v-1zM14,5h1v1h-1v-1zM12,5h1v1h-1v-1zM8,5h2v1h-2v-1zM6,5h1v1h-1v-1zM0,5h1v1h-1v-1zM32,4h1v1h-1v-1zM28,4h3v1h-3v-1zM26,4h1v1h-1v-1zM23,4h1v1h-1v-1zM20,4h1v1h-1v-1zM13,4h4v1h-4v-1zM11,4h1v1h-1v-1zM8,4h2v1h-2v-1zM6,4h1v1h-1v-1zM2,4h3v1h-3v-1zM0,4h1v1h-1v-1zM32,3h1v1h-1v-1zM28,3h3v1h-3v-1zM26,3h1v1h-1v-1zM22,3h1v1h-1v-1zM18,3h2v1h-2v-1zM11,3h2v1h-2v-1zM8,3h1v1h-1v-1zM6,3h1v1h-1v-1zM2,3h3v1h-3v-1zM0,3h1v1h-1v-1zM32,2h1v1h-1v-1zM28,2h3v1h-3v-1zM26,2h1v1h-1v-1zM19,2h3v1h-3v-1zM16,2h1v1h-1v-1zM14,2h1v1h-1v-1zM10,2h3v1h-3v-1zM8,2h1v1h-1v-1zM6,2h1v1h-1v-1zM2,2h3v1h-3v-1zM0,2h1v1h-1v-1zM32,1h1v1h-1v-1zM26,1h1v1h-1v-1zM24,1h1v1h-1v-1zM20,1h1v1h-1v-1zM18,1h1v1h-1v-1zM15,1h2v1h-2v-1zM10,1h2v1h-2v-1zM6,1h1v1h-1v-1zM0,1h1v1h-1v-1zM26,0h7v1h-7v-1zM23,0h1v1h-1v-1zM18,0h3v1h-3v-1zM16,0h1v1h-1v-1zM12,0h1v1h-1v-1zM10,0h1v1h-1v-1zM0,0h7v1h-7v-1z"/></svg>