<?xml version="1.0" encoding="UTF-8" standalone="no"?>
<!-- Created with Inkscape (http://www.inkscape.org/) -->

<svg
   width="512"
   height="512"
   viewBox="0 0 512 512"
   version="1.1"
   id="svg1"
   inkscape:version="1.3.2 (091e20e, 2023-11-25, custom)"
   sodipodi:docname="back-arrow.svg"
   xmlns:inkscape="http://www.inkscape.org/namespaces/inkscape"
   xmlns:sodipodi="http://sodipodi.sourceforge.net/DTD/sodipodi-0.dtd"
   xmlns="http://www.w3.org/2000/svg"
   xmlns:svg="http://www.w3.org/2000/svg">
  <sodipodi:namedview
     id="namedview1"
     pagecolor="#ffffff"
     bordercolor="#000000"
     borderopacity="0.25"
     inkscape:showpageshadow="2"
     inkscape:pageopacity="0.0"
     inkscape:pagecheckerboard="0"
     inkscape:deskcolor="#d1d1d1"
     inkscape:document-units="px"
     inkscape:zoom="0.70710678"
     inkscape:cx="0"
     inkscape:cy="279.30718"
     inkscape:window-width="1366"
     inkscape:window-height="745"
     inkscape:window-x="-8"
     inkscape:window-y="-8"
     inkscape:window-maximized="1"
     inkscape:current-layer="layer1" />
  <defs
     id="defs1" />
  <g
     inkscape:label="Calque 1"
     inkscape:groupmode="layer"
     id="layer1">
    <circle
       style="fill:#ffffff;fill-opacity:1"
       id="path2"
       cx="255"
       cy="255"
       r="239"
       inkscape:label="white-background" />
    <path
       id="path1"
       style="fill:#000000;fill-opacity:1"
       d="M 255 0 A 255 255 0 0 0 0 255 A 255 255 0 0 0 255 510 A 255 255 0 0 0 510 255 A 255 255 0 0 0 255 0 z M 255 16 A 239 239 0 0 1 494 255 A 239 239 0 0 1 255 494 A 239 239 0 0 1 16 255 A 239 239 0 0 1 255 16 z "
       inkscape:label="black-circle" />
    <g
       id="g3"
       inkscape:label="Arrow"
       transform="translate(24.999996,-7.7914198)">
      <rect
         style="fill:#000000;fill-opacity:1"
         id="rect3"
         width="192"
         height="64"
         x="241.71753"
         y="67.377945"
         transform="rotate(45)" />
      <rect
         style="fill:#000000;fill-opacity:1"
         id="rect2"
         width="256"
         height="64"
         x="128"
         y="224"
         transform="translate(0,7.7914198)" />
      <rect
         style="fill:#000000;fill-opacity:1"
         id="rect3-2"
         width="192"
         height="64"
         x="-131.35533"
         y="241.664"
         transform="rotate(-45)" />
    </g>
  </g>
</svg>
