<?xml version="1.0" encoding="UTF-8" standalone="no"?>
<!-- Created with Inkscape (http://www.inkscape.org/) -->

<svg
   width="512"
   height="512"
   viewBox="0 0 512 512"
   version="1.1"
   id="svg1"
   inkscape:version="1.3.2 (091e20e, 2023-11-25, custom)"
   sodipodi:docname="fallback.svg"
   xmlns:inkscape="http://www.inkscape.org/namespaces/inkscape"
   xmlns:sodipodi="http://sodipodi.sourceforge.net/DTD/sodipodi-0.dtd"
   xmlns="http://www.w3.org/2000/svg"
   xmlns:svg="http://www.w3.org/2000/svg">
  <sodipodi:namedview
     id="namedview1"
     pagecolor="#ffffff"
     bordercolor="#000000"
     borderopacity="0.25"
     inkscape:showpageshadow="2"
     inkscape:pageopacity="0.0"
     inkscape:pagecheckerboard="0"
     inkscape:deskcolor="#d1d1d1"
     inkscape:document-units="px"
     inkscape:zoom="0.37426941"
     inkscape:cx="403.45269"
     inkscape:cy="511.66351"
     inkscape:window-width="1366"
     inkscape:window-height="745"
     inkscape:window-x="-8"
     inkscape:window-y="-8"
     inkscape:window-maximized="1"
     inkscape:current-layer="layer1" />
  <defs
     id="defs1" />
  <g
     inkscape:label="Calque 1"
     inkscape:groupmode="layer"
     id="layer1">
    <path
       style="font-size:42.6667px;font-family:'Madimi One';-inkscape-font-specification:'Madimi One'"
       d="m 77.290533,502.52798 q -3.157335,0 -3.157335,-2.85867 v -24.96002 q 0,-1.49333 0.725334,-2.176 0.725333,-0.68267 2.304001,-0.68267 3.114669,0 3.114669,2.85867 v 24.96002 q 0,1.45067 -0.725334,2.176 -0.682667,0.68267 -2.261335,0.68267 z m 10.751982,0 q -3.072002,0 -3.072002,-2.90134 v -10.24 q 0,-4.35201 2.048002,-6.61334 2.090668,-2.26134 5.973337,-2.26134 5.290671,0 7.168008,3.79734 1.87733,-3.79734 7.168,-3.79734 3.88267,0 5.93067,2.26134 2.09067,2.26133 2.09067,6.61334 v 10.24 q 0,2.90134 -3.072,2.90134 -3.072,0 -3.072,-2.90134 v -9.89867 q 0,-2.176 -0.72534,-3.11467 -0.72533,-0.98133 -2.26133,-0.98133 -3.072,0 -3.072,4.096 v 9.72801 q 0,2.90133 -2.98667,2.90133 -2.986671,0 -2.986671,-2.90133 v -9.72801 q 0,-4.096 -3.072002,-4.096 -2.986669,0 -2.986669,4.096 v 9.89867 q 0,2.90134 -3.072003,2.90134 z m 39.680025,0 q -4.26667,0 -6.656,-1.96267 -2.38934,-2.00533 -2.38934,-5.16267 0,-3.712 3.11467,-5.376 3.15734,-1.664 9.21601,-1.152 -0.29867,-1.96267 -1.23733,-2.64534 -0.93867,-0.72533 -2.26134,-0.72533 -1.06667,0 -1.792,0.128 -0.68267,0.0853 -1.28,0.21333 -0.59734,0.128 -1.45067,0.128 -1.152,0 -1.83467,-0.384 -0.68266,-0.42667 -0.68266,-1.664 0,-1.74934 1.49333,-2.56 1.536,-0.85334 4.82134,-0.85334 5.20533,0 7.72267,2.98667 2.51733,2.944 2.51733,7.89334 0,5.71734 -2.09066,8.44801 -2.04801,2.688 -7.21068,2.688 z m -2.90133,-7.12534 q 0,2.432 3.28533,2.432 1.06667,0 1.66401,-0.384 0.59733,-0.384 0.85333,-1.536 0.29867,-1.152 0.42667,-3.456 -0.21334,0.21333 -0.55467,0.29867 -0.34133,0.0853 -0.68267,0.0853 -2.816,0 -3.92533,0.55467 -1.06667,0.512 -1.06667,2.00533 z m 34.90137,9.38667 q 0,3.62667 -3.41333,5.41867 -3.41334,1.79201 -9.77068,1.79201 -3.28533,0 -4.82133,-0.85334 -1.49334,-0.81067 -1.49334,-2.56 0,-1.23733 0.68267,-1.664 0.68267,-0.384 1.83467,-0.384 0.85333,0 1.45066,0.0853 0.59734,0.128 1.28,0.21334 0.72534,0.128 1.79201,0.128 3.37067,0 4.82133,-0.512 1.49334,-0.51201 1.49334,-2.09067 0,-1.32267 -1.06667,-2.13334 -1.06667,-0.81067 -2.688,-0.81067 -9.81334,0 -9.81334,-10.45334 0,-5.33333 2.47467,-7.89334 2.47466,-2.56 7.38133,-2.56 3.24267,0 5.37601,1.10934 1.024,-3.84001 4.352,-3.84001 1.62134,0 2.47467,0.85334 0.896,0.81067 0.896,2.38933 0,1.45067 -0.85333,2.09067 -0.85334,0.64 -2.73067,0.64 -0.81067,0 -1.49334,0.128 1.83467,2.56 1.83467,7.12534 0,2.85867 -0.85333,4.736 -0.81067,1.87734 -3.02934,3.11467 2.13334,0.768 2.98667,2.38934 0.896,1.57867 0.896,3.54133 z M 146.15457,490.9653 q 0,5.33334 3.712,5.33334 3.71201,0 3.71201,-5.33334 0,-2.77333 -0.93867,-4.05333 -0.896,-1.28 -2.77334,-1.28 -1.83466,0 -2.77333,1.28 -0.93867,1.28 -0.93867,4.05333 z m 28.88538,11.56268 q -4.26667,0 -6.69867,-1.408 -2.38933,-1.408 -3.41333,-3.88267 -0.98134,-2.47467 -0.98134,-5.67467 0,-5.88801 2.60267,-8.44801 2.60267,-2.60267 6.99734,-2.60267 2.64533,0 4.69334,0.896 2.048,0.896 3.2,2.56001 1.152,1.62133 1.152,3.968 0,6.82667 -9.72801,6.82667 h -2.47467 q 0.34134,1.32267 1.10934,2.09067 0.81066,0.72533 2.816,0.72533 1.10933,0 1.792,-0.128 0.68267,-0.128 1.28,-0.256 0.64,-0.128 1.45067,-0.128 1.152,0 1.83467,0.42667 0.68267,0.384 0.68267,1.62133 0,1.74934 -1.53601,2.60267 -1.49333,0.81067 -4.77867,0.81067 z m -4.94933,-10.92268 q 0.34133,-0.46933 0.768,-0.59733 0.42666,-0.17067 1.32266,-0.17067 2.51734,0 3.45601,-0.46933 0.98133,-0.512 0.98133,-1.792 0,-1.62134 -0.896,-2.47467 -0.896,-0.896 -2.26133,-0.896 -1.57867,0 -2.47467,1.32267 -0.896,1.32266 -0.896,5.07733 z m 28.67203,10.92268 q -3.072,0 -3.072,-2.90134 v -10.24 q 0,-4.09601 2.60267,-6.48534 2.64533,-2.38934 6.95467,-2.38934 4.30934,0 6.91201,2.38934 2.64533,2.38933 2.64533,6.48534 v 10.24 q 0,2.90134 -3.072,2.90134 -3.072,0 -3.072,-2.90134 v -9.89867 q 0,-2.00534 -0.896,-3.02934 -0.896,-1.06666 -2.51734,-1.06666 -1.62133,0 -2.51733,1.06666 -0.896,1.024 -0.896,3.02934 v 9.89867 q 0,2.90134 -3.07201,2.90134 z m 29.99467,0 q -4.56533,0 -7.21067,-2.60267 -2.64533,-2.60267 -2.64533,-8.40534 0,-5.84534 2.64533,-8.40534 2.64534,-2.60267 7.21067,-2.60267 4.56534,0 7.21068,2.60267 2.64533,2.56 2.64533,8.40534 0,5.80267 -2.64533,8.40534 -2.64534,2.60267 -7.21068,2.60267 z m 0,-5.12 q 1.19467,0 2.00534,-0.46934 0.81067,-0.512 1.23733,-1.792 0.46934,-1.28 0.46934,-3.62667 0,-2.34667 -0.46934,-3.62667 -0.42666,-1.28 -1.23733,-1.74933 -0.81067,-0.512 -2.00534,-0.512 -1.152,0 -2.00533,0.512 -0.81067,0.46933 -1.28,1.74933 -0.42667,1.28 -0.42667,3.62667 0,2.34667 0.42667,3.62667 0.46933,1.28 1.28,1.792 0.85333,0.46934 2.00533,0.46934 z m 17.024,5.12 q -3.072,0 -3.072,-2.90134 v -10.24 q 0,-4.09601 2.60267,-6.48534 2.64533,-2.38934 6.95467,-2.38934 4.30934,0 6.91201,2.38934 2.64533,2.38933 2.64533,6.48534 v 10.24 q 0,2.90134 -3.072,2.90134 -3.072,0 -3.072,-2.90134 v -9.89867 q 0,-2.00534 -0.896,-3.02934 -0.89601,-1.06666 -2.51734,-1.06666 -1.62133,0 -2.51733,1.06666 -0.89601,1.024 -0.89601,3.02934 v 9.89867 q 0,2.90134 -3.072,2.90134 z m 40.23471,0 q -3.968,0 -5.88801,-1.87734 -1.87733,-1.87733 -1.87733,-5.76 v -8.87467 h -1.10933 q -2.90134,0 -2.90134,-2.60267 0,-2.56 2.90134,-2.56 h 1.10933 v -4.60801 q 0,-1.408 0.85333,-2.304 0.896,-0.896 2.30401,-0.896 1.36533,0 2.176,0.85333 0.81066,0.81067 0.81066,2.26134 v 2.09067 q 0,1.57867 -0.512,2.60267 h 4.05334 q 2.90134,0 2.90134,2.56 0,2.60267 -2.90134,2.60267 h -3.54134 v 9.00267 q 0,1.28 0.29867,1.83467 0.29867,0.512 0.98134,0.512 0.896,0 1.32266,-0.128 0.46934,-0.17067 1.152,-0.17067 1.152,0 1.83467,0.42667 0.68267,0.384 0.68267,1.62133 0,1.74934 -1.10934,2.60267 -1.10933,0.81067 -3.54133,0.81067 z m 11.94664,0 q -3.072,0 -3.072,-2.90134 v -16.17068 q 0,-2.944 3.072,-2.944 1.536,0 2.21867,0.68267 0.68267,0.64 0.68267,2.13333 0.768,-1.408 2.176,-2.09066 1.45067,-0.72534 3.37067,-0.72534 3.66934,0 3.66934,3.20001 0,1.19466 -0.89601,1.792 -0.896,0.59733 -2.944,0.59733 -2.00533,0 -3.15733,0.384 -1.152,0.34133 -1.62134,1.32267 -0.42666,0.93867 -0.42666,2.73067 v 9.088 q 0,2.90134 -3.07201,2.90134 z m 22.22938,0 q -4.56534,0 -7.21068,-2.60267 -2.64533,-2.60267 -2.64533,-8.40534 0,-5.84534 2.64533,-8.40534 2.64534,-2.60267 7.21068,-2.60267 4.56533,0 7.21067,2.60267 2.64533,2.56 2.64533,8.40534 0,5.80267 -2.64533,8.40534 -2.64534,2.60267 -7.21067,2.60267 z m 0,-5.12 q 1.19466,0 2.00533,-0.46934 0.81067,-0.512 1.23734,-1.792 0.46933,-1.28 0.46933,-3.62667 0,-2.34667 -0.46933,-3.62667 -0.42667,-1.28 -1.23734,-1.74933 -0.81067,-0.512 -2.00533,-0.512 -1.152,0 -2.00534,0.512 -0.81067,0.46933 -1.28,1.74933 -0.42667,1.28 -0.42667,3.62667 0,2.34667 0.42667,3.62667 0.46933,1.28 1.28,1.792 0.85334,0.46934 2.00534,0.46934 z m 23.38132,5.12 q -2.816,0 -4.94934,-1.152 -2.13333,-1.152 -3.328,-3.24267 -1.152,-2.09067 -1.152,-4.864 v -9.98401 q 0,-2.90134 3.072,-2.90134 3.072,0 3.072,2.90134 v 9.89867 q 0,2.00534 0.85334,3.11467 0.85333,1.10934 2.432,1.10934 1.57867,0 2.432,-1.10934 0.85333,-1.10933 0.85333,-3.11467 v -9.89867 q 0,-2.90134 3.07201,-2.90134 3.072,0 3.072,2.90134 v 9.98401 q 0,2.77333 -1.19467,4.864 -1.152,2.09067 -3.28534,3.24267 -2.09066,1.152 -4.94933,1.152 z m 22.05868,0 q -0.85333,0 -1.792,-0.34133 -0.896,-0.384 -1.70667,-1.32267 -0.81066,-0.98134 -1.408,-2.816 l -4.48,-14.03735 q -0.29867,-0.98133 0.0853,-1.792 0.384,-0.85333 1.23734,-1.32267 0.85333,-0.512 1.87733,-0.512 0.93867,0 1.70667,0.46934 0.81067,0.46933 1.10933,1.45066 l 4.18134,14.12268 q 1.62134,-2.688 2.13334,-5.33334 0.55466,-2.688 0.55466,-5.16267 0,-0.768 -0.0427,-1.49333 -0.0427,-0.768 -0.0427,-1.45067 0,-1.23733 0.98133,-1.92 1.024,-0.68267 2.26134,-0.68267 2.56,0 2.944,2.432 0.0853,0.42667 0.128,1.15201 0.0427,0.68266 0.0427,1.57866 0,1.45067 -0.29867,3.41334 -0.256,1.92 -1.024,4.13867 -0.72533,2.176 -2.21867,4.48 -1.32267,2.048 -2.38933,3.11467 -1.024,1.06667 -1.96267,1.45067 -0.93867,0.384 -1.87734,0.384 z m 23.55202,0 q -4.26667,0 -6.69868,-1.408 -2.38933,-1.408 -3.41333,-3.88267 -0.98134,-2.47467 -0.98134,-5.67467 0,-5.88801 2.60267,-8.44801 2.60267,-2.60267 6.99734,-2.60267 2.64534,0 4.69334,0.896 2.048,0.896 3.2,2.56001 1.152,1.62133 1.152,3.968 0,6.82667 -9.72801,6.82667 h -2.47466 q 0.34133,1.32267 1.10933,2.09067 0.81067,0.72533 2.816,0.72533 1.10934,0 1.792,-0.128 0.68267,-0.128 1.28,-0.256 0.64,-0.128 1.45067,-0.128 1.152,0 1.83467,0.42667 0.68267,0.384 0.68267,1.62133 0,1.74934 -1.536,2.60267 -1.49334,0.81067 -4.77867,0.81067 z m -4.94934,-10.92268 q 0.34133,-0.46933 0.768,-0.59733 0.42667,-0.17067 1.32267,-0.17067 2.51733,0 3.456,-0.46933 0.98133,-0.512 0.98133,-1.792 0,-1.62134 -0.896,-2.47467 -0.896,-0.896 -2.26133,-0.896 -1.57867,0 -2.47467,1.32267 -0.896,1.32266 -0.896,5.07733 z m -1.96267,-13.99467 q -0.55467,0 -1.06667,-0.42667 -0.46933,-0.46933 -0.46933,-1.024 0,-0.34133 0.21333,-0.68267 0.21334,-0.34133 0.768,-0.64 0.17067,-0.0853 0.93867,-0.55467 0.768,-0.512 1.83467,-1.19466 1.10933,-0.72534 2.26133,-1.49334 1.19467,-0.768 2.13334,-1.45067 0.34133,-0.21333 0.64,-0.29866 0.29867,-0.0853 0.55467,-0.0853 1.024,0 1.664,0.85334 0.68266,0.85333 0.68266,1.96267 0,0.81066 -0.512,1.45066 -0.512,0.59734 -1.70666,1.19467 -0.72534,0.384 -1.92001,0.81067 -1.152,0.384 -2.432,0.768 -1.23733,0.34133 -2.21867,0.59733 -0.98133,0.21334 -1.36533,0.21334 z m 28.24535,24.91735 q -4.26667,0 -6.69867,-1.408 -2.38934,-1.408 -3.41334,-3.88267 -0.98133,-2.47467 -0.98133,-5.67467 0,-5.88801 2.60267,-8.44801 2.60266,-2.60267 6.99733,-2.60267 2.64534,0 4.69334,0.896 2.048,0.896 3.2,2.56001 1.152,1.62133 1.152,3.968 0,6.82667 -9.728,6.82667 h -2.47467 q 0.34133,1.32267 1.10933,2.09067 0.81067,0.72533 2.816,0.72533 1.10934,0 1.79201,-0.128 0.68266,-0.128 1.28,-0.256 0.64,-0.128 1.45066,-0.128 1.15201,0 1.83467,0.42667 0.68267,0.384 0.68267,1.62133 0,1.74934 -1.536,2.60267 -1.49334,0.81067 -4.77867,0.81067 z m -4.94934,-10.92268 q 0.34134,-0.46933 0.768,-0.59733 0.42667,-0.17067 1.32267,-0.17067 2.51734,0 3.456,-0.46933 0.98134,-0.512 0.98134,-1.792 0,-1.62134 -0.896,-2.47467 -0.896,-0.896 -2.26134,-0.896 -1.57867,0 -2.47467,1.32267 -0.896,1.32266 -0.896,5.07733 z m 28.92807,1.66401 q -1.664,0 -2.38934,-0.76801 -0.68266,-0.81066 -0.68266,-2.13333 v -15.61601 q 0,-1.36534 0.68266,-2.13334 0.72534,-0.768 2.38934,-0.768 1.664,0 2.34667,0.768 0.72533,0.768 0.72533,2.13334 v 15.61601 q 0,1.32267 -0.72533,2.13333 -0.68267,0.76801 -2.34667,0.76801 z m 0,9.25867 q -1.536,0 -2.47467,-0.93867 -0.896,-0.93867 -0.896,-2.38933 0,-1.49334 0.896,-2.43201 0.93867,-0.93866 2.47467,-0.93866 1.49333,0 2.432,0.93866 0.93867,0.93867 0.93867,2.43201 0,1.45066 -0.93867,2.38933 -0.93867,0.93867 -2.432,0.93867 z"
       id="text1"
       aria-label="Image non trouvée !" />
    <path
       style="font-size:42.6667px;font-family:'Madimi One';-inkscape-font-specification:'Madimi One'"
       d="m 103.99994,32.853358 q -3.15733,0 -3.15733,-2.858669 V 5.0346701 q 0,-1.4933344 0.72533,-2.1760016 0.72534,-0.6826672 2.304,-0.6826672 3.11467,0 3.11467,2.8586688 V 29.994689 q 0,1.450667 -0.72533,2.176001 -0.68267,0.682668 -2.26134,0.682668 z m 10.75199,0 q -3.07201,0 -3.07201,-2.901336 V 19.712014 q 0,-4.352003 2.04801,-6.613338 2.09066,-2.261335 5.97333,-2.261335 5.29067,0 7.16801,3.797336 1.87733,-3.797336 7.168,-3.797336 3.88267,0 5.93068,2.261335 2.09066,2.261335 2.09066,6.613338 v 10.240008 q 0,2.901336 -3.072,2.901336 -3.072,0 -3.072,-2.901336 v -9.898674 q 0,-2.176002 -0.72533,-3.114669 -0.72534,-0.981334 -2.26134,-0.981334 -3.072,0 -3.072,4.096003 v 9.728007 q 0,2.901336 -2.98667,2.901336 -2.98667,0 -2.98667,-2.901336 v -9.728007 q 0,-4.096003 -3.072,-4.096003 -2.98667,0 -2.98667,4.096003 v 9.898674 q 0,2.901336 -3.072,2.901336 z m 39.68003,0 q -4.26667,0 -6.65601,-1.962669 -2.38933,-2.005334 -2.38933,-5.16267 0,-3.712003 3.11466,-5.376004 3.15734,-1.664001 9.21601,-1.152001 -0.29867,-1.962668 -1.23733,-2.645335 -0.93867,-0.725334 -2.26134,-0.725334 -1.06667,0 -1.792,0.128 -0.68267,0.08533 -1.28,0.213333 -0.59733,0.128001 -1.45067,0.128001 -1.152,0 -1.83467,-0.384001 -0.68266,-0.426667 -0.68266,-1.664001 0,-1.749335 1.49333,-2.560002 1.536,-0.853334 4.82134,-0.853334 5.20534,0 7.72267,2.986669 2.51734,2.944002 2.51734,7.893339 0,5.717338 -2.09067,8.448007 -2.048,2.688002 -7.21067,2.688002 z m -2.90134,-7.125339 q 0,2.432002 3.28534,2.432002 1.06666,0 1.664,-0.384001 0.59733,-0.384 0.85333,-1.536001 0.29867,-1.152001 0.42667,-3.456002 -0.21334,0.213333 -0.55467,0.298667 -0.34133,0.08533 -0.68267,0.08533 -2.816,0 -3.92533,0.554667 -1.06667,0.512 -1.06667,2.005335 z m 34.90137,9.386674 q 0,3.626669 -3.41333,5.41867 -3.41334,1.792002 -9.77068,1.792002 -3.28533,0 -4.82133,-0.853334 -1.49334,-0.810668 -1.49334,-2.560002 0,-1.237335 0.68267,-1.664002 0.68267,-0.384 1.83467,-0.384 0.85333,0 1.45067,0.08533 0.59733,0.128 1.28,0.213333 0.72533,0.128 1.792,0.128 3.37067,0 4.82133,-0.512 1.49334,-0.512001 1.49334,-2.090668 0,-1.322668 -1.06667,-2.133335 -1.06667,-0.810668 -2.688,-0.810668 -9.81334,0 -9.81334,-10.453341 0,-5.333337 2.47467,-7.893339 2.47467,-2.560002 7.38134,-2.560002 3.24267,0 5.376,1.109334 1.024,-3.8400026 4.352,-3.8400026 1.62134,0 2.47467,0.853334 0.896,0.8106672 0.896,2.3893346 0,1.450668 -0.85333,2.090669 -0.85334,0.64 -2.73067,0.64 -0.81067,0 -1.49333,0.128 1.83466,2.560002 1.83466,7.125339 0,2.858669 -0.85333,4.736003 -0.81067,1.877335 -3.02934,3.114669 2.13334,0.768001 2.98667,2.389336 0.896,1.578667 0.896,3.541336 z M 172.86398,21.290682 q 0,5.333338 3.71201,5.333338 3.712,0 3.712,-5.333338 0,-2.773335 -0.93867,-4.053336 -0.896,-1.280001 -2.77333,-1.280001 -1.83467,0 -2.77334,1.280001 -0.93867,1.280001 -0.93867,4.053336 z m 28.88539,11.562676 q -4.26667,0 -6.69868,-1.408002 -2.38933,-1.408001 -3.41333,-3.882669 -0.98134,-2.474669 -0.98134,-5.674671 0,-5.888004 2.60267,-8.448006 2.60267,-2.602669 6.99734,-2.602669 2.64534,0 4.69334,0.896001 2.048,0.896 3.2,2.560002 1.152,1.621334 1.152,3.968003 0,6.826671 -9.72801,6.826671 h -2.47466 q 0.34133,1.322668 1.10933,2.090669 0.81067,0.725333 2.816,0.725333 1.10934,0 1.792,-0.128 0.68267,-0.128 1.28,-0.256 0.64,-0.128 1.45067,-0.128 1.152,0 1.83467,0.426667 0.68267,0.384 0.68267,1.621335 0,1.749334 -1.536,2.602668 -1.49334,0.810668 -4.77867,0.810668 z m -4.94934,-10.922675 q 0.34133,-0.469334 0.768,-0.597334 0.42667,-0.170667 1.32267,-0.170667 2.51733,0 3.456,-0.469334 0.98133,-0.512 0.98133,-1.792001 0,-1.621334 -0.896,-2.474668 -0.896,-0.896001 -2.26133,-0.896001 -1.57867,0 -2.47467,1.322668 -0.896,1.322667 -0.896,5.077337 z m 28.67203,10.922675 q -3.072,0 -3.072,-2.901336 V 19.712014 q 0,-4.096003 2.60267,-6.485338 2.64534,-2.389335 6.95467,-2.389335 4.30934,0 6.91201,2.389335 2.64533,2.389335 2.64533,6.485338 v 10.240008 q 0,2.901336 -3.072,2.901336 -3.072,0 -3.072,-2.901336 v -9.898674 q 0,-2.005335 -0.896,-3.029336 -0.896,-1.066667 -2.51734,-1.066667 -1.62133,0 -2.51733,1.066667 -0.896,1.024001 -0.896,3.029336 v 9.898674 q 0,2.901336 -3.07201,2.901336 z m 29.99468,0 q -4.56534,0 -7.21068,-2.602669 -2.64533,-2.602669 -2.64533,-8.40534 0,-5.845337 2.64533,-8.405339 2.64534,-2.602669 7.21068,-2.602669 4.56533,0 7.21067,2.602669 2.64533,2.560002 2.64533,8.405339 0,5.802671 -2.64533,8.40534 -2.64534,2.602669 -7.21067,2.602669 z m 0,-5.120004 q 1.19466,0 2.00533,-0.469334 0.81067,-0.512 1.23733,-1.792001 0.46934,-1.280001 0.46934,-3.62667 0,-2.346668 -0.46934,-3.626669 -0.42666,-1.280001 -1.23733,-1.749335 -0.81067,-0.512 -2.00533,-0.512 -1.15201,0 -2.00534,0.512 -0.81067,0.469334 -1.28,1.749335 -0.42667,1.280001 -0.42667,3.626669 0,2.346669 0.42667,3.62667 0.46933,1.280001 1.28,1.792001 0.85333,0.469334 2.00534,0.469334 z m 22.95464,5.120004 q -3.968,0 -5.88801,-1.877335 -1.87733,-1.877335 -1.87733,-5.760005 v -8.874673 h -1.10933 q -2.90134,0 -2.90134,-2.602668 0,-2.560002 2.90134,-2.560002 h 1.10933 V 6.5706713 q 0,-1.4080011 0.85333,-2.3040018 0.896,-0.8960006 2.30401,-0.8960006 1.36533,0 2.176,0.8533339 0.81066,0.8106673 0.81066,2.2613351 v 2.0906682 q 0,1.5786679 -0.512,2.6026689 h 4.05334 q 2.90134,0 2.90134,2.560002 0,2.602668 -2.90134,2.602668 h -3.54134 v 9.002674 q 0,1.280001 0.29867,1.834668 0.29867,0.512 0.98134,0.512 0.896,0 1.32266,-0.128 0.46934,-0.170667 1.152,-0.170667 1.152,0 1.83467,0.426667 0.68267,0.384 0.68267,1.621335 0,1.749334 -1.10934,2.602668 -1.10933,0.810668 -3.54133,0.810668 z m 21.58937,0 q -1.664,0 -2.38934,-0.938668 -0.68267,-0.981334 -0.68267,-2.432002 V 16.341345 h -0.59733 q -3.15733,0 -3.15733,-2.560002 0,-2.602668 3.15733,-2.602668 h 0.59733 v -0.170667 q 0,-4.9493371 2.13334,-7.9786727 2.13333,-3.02933559754639 6.528,-3.02933559754639 v 0 q 0.0427,0 0.0853,0 h 0.0427 q 0.128,0 0.256,0 Q 309.48275,0.0426664 311.06142,0.98133377 q 1.62134,0.93866733 1.62134,2.85866883 0,1.408001 -0.768,1.8773347 -0.72534,0.426667 -2.04801,0.426667 -1.152,0 -1.96266,-0.1706668 -0.768,-0.2133335 -2.00534,-0.2986669 h -0.256 q -1.70667,0 -2.21867,1.3226676 -0.512,1.280001 -0.512,3.1573358 v 1.024001 h 2.432 q 2.90134,0 2.90134,2.602668 0,2.560002 -2.90134,2.560002 h -2.432 v 13.141343 q 0,1.749335 -0.768,2.560002 -0.72533,0.810668 -2.13333,0.810668 z m 18.94399,0 q -4.56533,0 -7.21067,-2.602669 -2.64534,-2.602669 -2.64534,-8.40534 0,-5.845337 2.64534,-8.405339 2.64534,-2.602669 7.21067,-2.602669 4.56534,0 7.21067,2.602669 2.64534,2.560002 2.64534,8.405339 0,5.802671 -2.64534,8.40534 -2.64533,2.602669 -7.21067,2.602669 z m 0,-5.120004 q 1.19467,0 2.00534,-0.469334 0.81066,-0.512 1.23733,-1.792001 0.46933,-1.280001 0.46933,-3.62667 0,-2.346668 -0.46933,-3.626669 -0.42667,-1.280001 -1.23733,-1.749335 -0.81067,-0.512 -2.00534,-0.512 -1.152,0 -2.00533,0.512 -0.81067,0.469334 -1.28,1.749335 -0.42667,1.280001 -0.42667,3.626669 0,2.346669 0.42667,3.62667 0.46933,1.280001 1.28,1.792001 0.85333,0.469334 2.00533,0.469334 z m 23.38134,5.120004 q -2.816,0 -4.94934,-1.152001 -2.13333,-1.152001 -3.328,-3.242669 -1.152,-2.090669 -1.152,-4.864004 v -9.984007 q 0,-2.901336 3.072,-2.901336 3.072,0 3.072,2.901336 v 9.898674 q 0,2.005334 0.85334,3.114669 0.85333,1.109334 2.432,1.109334 1.57867,0 2.432,-1.109334 0.85333,-1.109335 0.85333,-3.114669 v -9.898674 q 0,-2.901336 3.07201,-2.901336 3.072,0 3.072,2.901336 v 9.984007 q 0,2.773335 -1.19467,4.864004 -1.152,2.090668 -3.28533,3.242669 -2.09067,1.152001 -4.94934,1.152001 z m 16.85329,0 q -3.072,0 -3.072,-2.901336 V 19.712014 q 0,-4.096003 2.60267,-6.485338 2.64533,-2.389335 6.95467,-2.389335 4.30934,0 6.91201,2.389335 2.64533,2.389335 2.64533,6.485338 v 10.240008 q 0,2.901336 -3.072,2.901336 -3.072,0 -3.072,-2.901336 v -9.898674 q 0,-2.005335 -0.896,-3.029336 -0.896,-1.066667 -2.51734,-1.066667 -1.62133,0 -2.51733,1.066667 -0.896,1.024001 -0.896,3.029336 v 9.898674 q 0,2.901336 -3.07201,2.901336 z m 30.25067,0 q -4.69334,0 -7.42401,-2.986669 -2.688,-2.986669 -2.688,-8.746674 0,-3.840002 1.10933,-6.101337 1.10934,-2.261335 3.072,-3.200003 2.00534,-0.981334 4.52267,-0.981334 2.26134,0 3.66934,0.554667 1.408,0.554667 2.21867,1.877335 -0.29867,-0.896001 -0.46933,-1.664001 -0.128,-0.810668 -0.21334,-1.877335 -0.0427,-1.0666675 -0.0427,-2.7306688 v -3.669336 q 0,-3.32800249754639 2.85866,-3.32800249754639 3.11467,0 3.11467,3.32800249754639 V 21.376016 q 0,5.760004 -2.56,8.618673 -2.56,2.858669 -7.168,2.858669 z m -0.29867,-5.120004 q 1.792,0 2.77333,-1.280001 1.02401,-1.280001 1.02401,-4.77867 0,-2.346669 -0.46934,-3.541336 -0.42667,-1.237335 -1.28,-1.706668 -0.85333,-0.469334 -2.048,-0.469334 -1.19467,0 -2.048,0.469334 -0.85334,0.469333 -1.32267,1.706668 -0.42667,1.194667 -0.42667,3.541336 0,3.498669 0.98134,4.77867 1.024,1.280001 2.816,1.280001 z m 18.64536,-4.13867 q -1.664,0 -2.38934,-0.768001 -0.68266,-0.810667 -0.68266,-2.133335 V 5.0773368 q 0,-1.3653343 0.68266,-2.1333349 0.72534,-0.7680006 2.38934,-0.7680006 1.664,0 2.34667,0.7680006 0.72533,0.7680006 0.72533,2.1333349 V 20.693348 q 0,1.322668 -0.72533,2.133335 -0.68267,0.768001 -2.34667,0.768001 z m 0,9.258674 q -1.536,0 -2.47467,-0.938668 -0.896,-0.938667 -0.896,-2.389335 0,-1.493334 0.896,-2.432002 0.93867,-0.938667 2.47467,-0.938667 1.49333,0 2.432,0.938667 0.93867,0.938668 0.93867,2.432002 0,1.450668 -0.93867,2.389335 -0.93867,0.938668 -2.432,0.938668 z"
       id="text1-4"
       aria-label="Image not found!" />
    <path
       d="m 120.40478,285.26938 q -5.29068,0 -9.38669,-2.048 -3.92534,-2.04801 -3.92534,-6.14402 0,-1.70667 0.68267,-3.24267 l 25.08805,-70.48547 q 1.70667,-4.60801 5.12001,-6.65602 3.58401,-2.048 7.33868,-2.048 5.97335,0 9.04535,3.92534 3.24268,3.75467 1.36534,9.21602 l -19.79737,55.97878 q 3.584,-2.21867 7.33868,-2.21867 h 16.72537 v -13.4827 q 0,-5.97334 2.90133,-8.70402 2.90134,-2.73067 9.21602,-2.73067 12.45869,0 12.45869,11.43469 v 13.4827 h 4.94935 q 6.31468,0 9.72802,3.072 3.41334,3.07201 3.41334,8.87469 0,11.77602 -13.14136,11.77602 h -4.94935 v 20.65071 q 0,11.43469 -11.94669,11.43469 -5.80267,0 -9.21601,-2.73068 -3.41334,-2.90133 -3.41334,-8.70401 v -20.65071 z m 134.65653,32.0854 q -13.65336,0 -23.55205,-5.97335 -9.72802,-6.14401 -14.84803,-19.6267 -5.12001,-13.4827 -5.12001,-35.66941 0,-22.35738 5.12001,-35.84007 5.12001,-13.48269 14.84803,-19.45604 9.72802,-6.14401 23.55205,-6.14401 13.99469,0 23.55205,6.14401 9.72801,5.97335 14.84802,19.45604 5.12002,13.48269 5.12002,35.84007 0,22.18671 -5.12002,35.66941 -5.12001,13.48269 -14.84802,19.6267 -9.72802,5.97335 -23.55205,5.97335 z m 0,-22.52805 q 6.31468,0 10.24002,-3.072 3.92534,-3.07201 5.80268,-11.43469 1.87733,-8.53335 1.87733,-24.23472 0,-15.87203 -1.87733,-24.23471 -1.87734,-8.36269 -5.80268,-11.43469 -3.92534,-3.24268 -10.24002,-3.24268 -6.14401,0 -10.24002,3.24268 -3.92534,3.072 -5.80268,11.43469 -1.87734,8.36268 -1.87734,24.23471 0,15.70137 1.87734,24.23472 1.87734,8.36268 5.80268,11.43469 4.09601,3.072 10.24002,3.072 z m 67.58444,-9.55735 q -5.29068,0 -9.38669,-2.048 -3.92534,-2.04801 -3.92534,-6.14402 0,-1.70667 0.68267,-3.24267 l 25.08805,-70.48547 q 1.70667,-4.60801 5.12001,-6.65602 3.58401,-2.048 7.33868,-2.048 5.97334,0 9.04535,3.92534 3.24267,3.75467 1.36534,9.21602 l -19.79738,55.97878 q 3.58401,-2.21867 7.33869,-2.21867 h 16.72536 v -13.4827 q 0,-5.97334 2.90134,-8.70402 2.90134,-2.73067 9.21602,-2.73067 12.45869,0 12.45869,11.43469 v 13.4827 h 4.94934 q 6.31468,0 9.72802,3.072 3.41334,3.07201 3.41334,8.87469 0,11.77602 -13.14136,11.77602 h -4.94934 v 20.65071 q 0,11.43469 -11.94669,11.43469 -5.80268,0 -9.21602,-2.73068 -3.41334,-2.90133 -3.41334,-8.70401 v -20.65071 z"
       id="text2"
       style="font-size:170.667px;font-family:'Madimi One';-inkscape-font-specification:'Madimi One'"
       aria-label="404" />
  </g>
</svg>
