<svg xmlns="http://www.w3.org/2000/svg" width="512" height="512"><path d="M77.29 502.528q-3.157 0-3.157-2.859v-24.96q0-1.493.726-2.176.725-.682 2.304-.682 3.114 0 3.114 2.858v24.96q0 1.451-.725 2.176-.683.683-2.261.683m10.753 0q-3.072 0-3.072-2.901v-10.24q0-4.352 2.048-6.614 2.09-2.261 5.973-2.261 5.29 0 7.168 3.797 1.877-3.797 7.168-3.797 3.883 0 5.93 2.261 2.091 2.262 2.091 6.614v10.24q0 2.901-3.072 2.901t-3.072-2.901v-9.899q0-2.176-.725-3.115-.725-.981-2.261-.981-3.072 0-3.072 4.096v9.728q0 2.901-2.987 2.901t-2.987-2.901v-9.728q0-4.096-3.072-4.096-2.986 0-2.986 4.096v9.899q0 2.901-3.072 2.901m39.68 0q-4.267 0-6.656-1.963-2.39-2.005-2.39-5.162 0-3.712 3.115-5.376 3.157-1.664 9.216-1.152-.299-1.963-1.237-2.646-.94-.725-2.262-.725-1.066 0-1.792.128-.682.085-1.28.213-.597.128-1.45.128-1.152 0-1.835-.384-.683-.426-.683-1.664 0-1.749 1.494-2.56 1.536-.853 4.82-.853 5.206 0 7.724 2.987 2.517 2.944 2.517 7.893 0 5.717-2.09 8.448-2.049 2.688-7.211 2.688m-2.902-7.125q0 2.432 3.286 2.432 1.066 0 1.664-.384t.853-1.536q.299-1.152.427-3.456-.214.213-.555.298-.341.086-.683.086-2.816 0-3.925.554-1.067.512-1.067 2.006m34.902 9.386q0 3.627-3.414 5.419-3.413 1.792-9.77 1.792-3.286 0-4.822-.853-1.493-.811-1.493-2.56 0-1.238.683-1.664.682-.384 1.834-.384.854 0 1.45.085.598.128 1.28.213.726.128 1.793.128 3.37 0 4.821-.512 1.494-.512 1.494-2.09 0-1.323-1.067-2.134t-2.688-.81q-9.813 0-9.813-10.454 0-5.333 2.474-7.893t7.382-2.56q3.242 0 5.376 1.11 1.024-3.84 4.352-3.84 1.62 0 2.474.853.896.81.896 2.389 0 1.45-.853 2.09t-2.73.64q-.811 0-1.494.129 1.835 2.56 1.835 7.125 0 2.859-.854 4.736-.81 1.877-3.03 3.115 2.134.768 2.988 2.389.896 1.579.896 3.541m-13.568-13.824q0 5.334 3.712 5.334t3.712-5.334q0-2.773-.94-4.053-.895-1.28-2.772-1.28-1.835 0-2.774 1.28-.938 1.28-.938 4.053m28.885 11.563q-4.267 0-6.699-1.408-2.389-1.408-3.413-3.883-.981-2.474-.981-5.674 0-5.888 2.602-8.448 2.603-2.603 6.998-2.603 2.645 0 4.693.896t3.2 2.56q1.152 1.621 1.152 3.968 0 6.827-9.728 6.827h-2.475q.342 1.322 1.11 2.09.81.726 2.816.726 1.109 0 1.792-.128.682-.128 1.28-.256.64-.128 1.45-.128 1.152 0 1.835.426.683.384.683 1.622 0 1.749-1.536 2.602-1.494.811-4.78.811m-4.95-10.923q.342-.469.769-.597.426-.17 1.322-.17 2.518 0 3.456-.47.982-.512.982-1.792 0-1.621-.896-2.475-.896-.896-2.262-.896-1.578 0-2.474 1.323t-.896 5.077m28.673 10.923q-3.072 0-3.072-2.901v-10.24q0-4.096 2.602-6.486 2.646-2.389 6.955-2.389t6.912 2.39q2.645 2.389 2.645 6.485v10.24q0 2.901-3.072 2.901t-3.072-2.901v-9.899q0-2.005-.896-3.03-.896-1.066-2.517-1.066t-2.517 1.067q-.896 1.024-.896 3.029v9.899q0 2.901-3.072 2.901m29.994 0q-4.565 0-7.21-2.603-2.646-2.602-2.646-8.405 0-5.845 2.646-8.405 2.645-2.603 7.21-2.603 4.566 0 7.211 2.603 2.645 2.56 2.645 8.405 0 5.803-2.645 8.405-2.645 2.603-7.21 2.603m0-5.12q1.195 0 2.006-.47.81-.511 1.237-1.791.47-1.28.47-3.627t-.47-3.627q-.427-1.28-1.237-1.749-.811-.512-2.006-.512-1.152 0-2.005.512-.81.47-1.28 1.75-.427 1.28-.427 3.626t.427 3.627q.47 1.28 1.28 1.792.853.469 2.005.469m17.024 5.12q-3.072 0-3.072-2.901v-10.24q0-4.096 2.603-6.486 2.645-2.389 6.955-2.389 4.309 0 6.912 2.39 2.645 2.389 2.645 6.485v10.24q0 2.901-3.072 2.901t-3.072-2.901v-9.899q0-2.005-.896-3.03-.896-1.066-2.517-1.066-1.622 0-2.518 1.067-.896 1.024-.896 3.029v9.899q0 2.901-3.072 2.901m40.235 0q-3.968 0-5.888-1.877-1.877-1.878-1.877-5.76v-8.875h-1.11q-2.901 0-2.901-2.603 0-2.56 2.901-2.56h1.11v-4.608q0-1.408.853-2.304.896-.896 2.304-.896 1.365 0 2.176.854.81.81.81 2.261v2.09q0 1.58-.511 2.603h4.053q2.901 0 2.901 2.56 0 2.603-2.901 2.603h-3.541v9.003q0 1.28.298 1.834.299.512.982.512.896 0 1.322-.128.47-.17 1.152-.17 1.152 0 1.835.426.683.384.683 1.622 0 1.749-1.11 2.602-1.109.811-3.541.811m11.947 0q-3.072 0-3.072-2.901v-16.171q0-2.944 3.072-2.944 1.536 0 2.218.683.683.64.683 2.133.768-1.408 2.176-2.09 1.45-.726 3.37-.726 3.67 0 3.67 3.2 0 1.195-.896 1.792t-2.944.597q-2.005 0-3.157.384-1.152.342-1.622 1.323-.426.939-.426 2.73v9.089q0 2.901-3.072 2.901m22.229 0q-4.565 0-7.21-2.603-2.646-2.602-2.646-8.405 0-5.845 2.645-8.405 2.646-2.603 7.211-2.603t7.21 2.603q2.646 2.56 2.646 8.405 0 5.803-2.645 8.405-2.646 2.603-7.211 2.603m0-5.12q1.195 0 2.005-.47.811-.511 1.238-1.791.47-1.28.47-3.627t-.47-3.627q-.427-1.28-1.238-1.749-.81-.512-2.005-.512-1.152 0-2.005.512-.811.47-1.28 1.75-.427 1.28-.427 3.626t.427 3.627q.469 1.28 1.28 1.792.853.469 2.005.469m23.381 5.12q-2.816 0-4.949-1.152t-3.328-3.243q-1.152-2.09-1.152-4.864v-9.984q0-2.901 3.072-2.901t3.072 2.901v9.899q0 2.005.853 3.115.854 1.109 2.432 1.109 1.579 0 2.432-1.11.854-1.109.854-3.114v-9.899q0-2.901 3.072-2.901t3.072 2.901v9.984q0 2.774-1.195 4.864-1.152 2.091-3.285 3.243-2.091 1.152-4.95 1.152m22.06 0q-.854 0-1.793-.341-.896-.384-1.707-1.323-.81-.981-1.408-2.816l-4.48-14.037q-.298-.982.086-1.792.384-.854 1.237-1.323.853-.512 1.877-.512.939 0 1.707.47.81.469 1.11 1.45l4.18 14.123q1.622-2.688 2.134-5.334.555-2.688.555-5.162 0-.768-.043-1.494-.043-.768-.043-1.45 0-1.238.982-1.92 1.024-.683 2.261-.683 2.56 0 2.944 2.432.085.427.128 1.152.043.683.043 1.579 0 1.45-.299 3.413-.256 1.92-1.024 4.139-.725 2.176-2.219 4.48-1.322 2.048-2.389 3.114-1.024 1.067-1.963 1.451-.938.384-1.877.384m23.551 0q-4.267 0-6.699-1.408-2.389-1.408-3.413-3.883-.981-2.474-.981-5.674 0-5.888 2.602-8.448 2.603-2.603 6.998-2.603 2.645 0 4.693.896t3.2 2.56q1.152 1.621 1.152 3.968 0 6.827-9.728 6.827h-2.475q.342 1.322 1.11 2.09.81.726 2.816.726 1.11 0 1.792-.128t1.28-.256q.64-.128 1.45-.128 1.152 0 1.835.426.683.384.683 1.622 0 1.749-1.536 2.602-1.494.811-4.779.811m-4.95-10.923q.342-.469.769-.597.426-.17 1.322-.17 2.518 0 3.456-.47.982-.512.982-1.792 0-1.621-.896-2.475-.896-.896-2.262-.896-1.578 0-2.474 1.323t-.896 5.077m-1.962-13.994q-.555 0-1.067-.427-.469-.47-.469-1.024 0-.341.213-.683.214-.341.768-.64.171-.085.94-.554.767-.512 1.834-1.195 1.11-.725 2.261-1.493 1.195-.768 2.133-1.451.342-.213.64-.299.3-.085.555-.085 1.024 0 1.664.853.683.854.683 1.963 0 .81-.512 1.45-.512.598-1.707 1.195-.725.384-1.92.811-1.152.384-2.432.768-1.237.341-2.219.597-.98.214-1.365.214m28.245 24.917q-4.266 0-6.698-1.408-2.39-1.408-3.414-3.883-.98-2.474-.98-5.674 0-5.888 2.602-8.448 2.602-2.603 6.997-2.603 2.645 0 4.693.896t3.2 2.56q1.152 1.621 1.152 3.968 0 6.827-9.728 6.827h-2.474q.341 1.322 1.11 2.09.81.726 2.815.726 1.11 0 1.792-.128.683-.128 1.28-.256.64-.128 1.45-.128 1.153 0 1.835.426.683.384.683 1.622 0 1.749-1.536 2.602-1.493.811-4.779.811m-4.949-10.923q.341-.469.768-.597.427-.17 1.323-.17 2.517 0 3.456-.47.981-.512.981-1.792 0-1.621-.896-2.475-.896-.896-2.261-.896-1.579 0-2.475 1.323t-.896 5.077m28.928 1.664q-1.664 0-2.39-.768-.682-.81-.682-2.133v-15.616q0-1.365.683-2.133.725-.768 2.39-.768 1.663 0 2.346.768.725.768.725 2.133v15.616q0 1.323-.725 2.133-.683.768-2.347.768m0 9.259q-1.536 0-2.475-.939-.896-.938-.896-2.389 0-1.493.896-2.432.94-.939 2.475-.939 1.493 0 2.432.939t.939 2.432q0 1.45-.939 2.39-.939.938-2.432.938" aria-label="Image non trouvée !" style="font-size:42.6667px;font-family:&quot;Madimi One&quot;;-inkscape-font-specification:&quot;Madimi One&quot;"/><path d="M104 32.853q-3.157 0-3.157-2.858V5.035q0-1.494.725-2.176t2.304-.683q3.115 0 3.115 2.859v24.96q0 1.45-.726 2.176-.682.682-2.261.682m10.752 0q-3.072 0-3.072-2.901v-10.24q0-4.352 2.048-6.613 2.09-2.262 5.973-2.262 5.29 0 7.168 3.798 1.878-3.798 7.168-3.798 3.883 0 5.93 2.262 2.092 2.261 2.092 6.613v10.24q0 2.901-3.072 2.901t-3.072-2.901v-9.899q0-2.176-.726-3.114-.725-.982-2.261-.982-3.072 0-3.072 4.096v9.728q0 2.902-2.987 2.902t-2.986-2.902v-9.728q0-4.096-3.072-4.096-2.987 0-2.987 4.096v9.899q0 2.901-3.072 2.901m39.68 0q-4.267 0-6.656-1.962-2.39-2.006-2.39-5.163 0-3.712 3.115-5.376 3.158-1.664 9.216-1.152-.298-1.963-1.237-2.645-.939-.726-2.261-.726-1.067 0-1.792.128-.683.086-1.28.214-.598.128-1.451.128-1.152 0-1.835-.384-.682-.427-.682-1.664 0-1.75 1.493-2.56 1.536-.854 4.821-.854 5.206 0 7.723 2.987 2.517 2.944 2.517 7.893 0 5.718-2.09 8.448-2.048 2.688-7.211 2.688m-2.901-7.125q0 2.432 3.285 2.432 1.067 0 1.664-.384t.853-1.536q.299-1.152.427-3.456-.213.213-.555.299-.341.085-.682.085-2.816 0-3.926.555-1.066.512-1.066 2.005m34.901 9.387q0 3.626-3.413 5.418-3.414 1.792-9.771 1.792-3.285 0-4.821-.853-1.494-.81-1.494-2.56 0-1.237.683-1.664.683-.384 1.835-.384.853 0 1.45.085.598.128 1.28.214.726.128 1.792.128 3.371 0 4.822-.512 1.493-.512 1.493-2.091 0-1.323-1.067-2.133-1.066-.811-2.688-.811-9.813 0-9.813-10.453 0-5.334 2.475-7.894t7.381-2.56q3.243 0 5.376 1.11 1.024-3.84 4.352-3.84 1.621 0 2.475.853.896.81.896 2.39 0 1.45-.854 2.09-.853.64-2.73.64-.811 0-1.494.128 1.835 2.56 1.835 7.125 0 2.859-.853 4.736-.811 1.878-3.03 3.115 2.134.768 2.987 2.39.896 1.578.896 3.54M172.864 21.29q0 5.333 3.712 5.333t3.712-5.333q0-2.774-.939-4.054-.896-1.28-2.773-1.28-1.835 0-2.773 1.28t-.939 4.054m28.885 11.562q-4.266 0-6.698-1.408-2.39-1.408-3.414-3.882-.981-2.475-.981-5.675 0-5.888 2.603-8.448 2.602-2.603 6.997-2.603 2.645 0 4.693.896t3.2 2.56q1.152 1.622 1.152 3.968 0 6.827-9.728 6.827H197.1q.341 1.323 1.109 2.09.81.726 2.816.726 1.11 0 1.792-.128.683-.128 1.28-.256.64-.128 1.45-.128 1.153 0 1.835.427.683.384.683 1.621 0 1.75-1.536 2.603-1.493.81-4.779.81m-4.95-10.921q.341-.47.768-.598.427-.17 1.323-.17 2.517 0 3.456-.47.981-.512.981-1.792 0-1.621-.896-2.474-.896-.896-2.261-.896-1.579 0-2.475 1.322t-.896 5.078m28.672 10.922q-3.072 0-3.072-2.901v-10.24q0-4.096 2.603-6.485 2.645-2.39 6.954-2.39 4.31 0 6.912 2.39 2.646 2.389 2.646 6.485v10.24q0 2.901-3.072 2.901t-3.072-2.901v-9.899q0-2.005-.896-3.029-.896-1.067-2.518-1.067-1.62 0-2.517 1.067-.896 1.024-.896 3.03v9.898q0 2.901-3.072 2.901m29.995 0q-4.566 0-7.21-2.602-2.646-2.603-2.646-8.406 0-5.845 2.645-8.405 2.645-2.603 7.21-2.603 4.566 0 7.211 2.603 2.646 2.56 2.646 8.405 0 5.803-2.646 8.406-2.645 2.602-7.21 2.602m0-5.12q1.194 0 2.005-.469.81-.512 1.237-1.792.47-1.28.47-3.627t-.47-3.626q-.426-1.28-1.237-1.75-.81-.512-2.005-.512-1.152 0-2.006.512-.81.47-1.28 1.75-.426 1.28-.426 3.626t.426 3.627q.47 1.28 1.28 1.792.854.47 2.006.47m22.954 5.12q-3.968 0-5.888-1.877-1.877-1.877-1.877-5.76v-8.875h-1.11q-2.9 0-2.9-2.602 0-2.56 2.9-2.56h1.11V6.57q0-1.408.853-2.304.896-.896 2.304-.896 1.366 0 2.176.853.811.81.811 2.261v2.091q0 1.579-.512 2.603h4.053q2.902 0 2.902 2.56 0 2.602-2.902 2.602H276.8v9.003q0 1.28.299 1.835.298.512.981.512.896 0 1.323-.128.469-.171 1.152-.171 1.152 0 1.834.427.683.384.683 1.621 0 1.75-1.11 2.603-1.109.81-3.54.81m21.59 0q-1.664 0-2.39-.938-.682-.982-.682-2.432V16.34h-.598q-3.157 0-3.157-2.56 0-2.602 3.157-2.602h.598v-.171q0-4.95 2.133-7.979T305.6 0h.384q3.499.043 5.077.981 1.622.939 1.622 2.859 0 1.408-.768 1.877-.726.427-2.048.427-1.152 0-1.963-.17-.768-.214-2.005-.3h-.256q-1.707 0-2.219 1.323-.512 1.28-.512 3.158v1.024h2.432q2.901 0 2.901 2.602 0 2.56-2.9 2.56h-2.433v13.142q0 1.749-.768 2.56-.725.81-2.133.81m18.944 0q-4.566 0-7.21-2.602-2.646-2.603-2.646-8.406 0-5.845 2.645-8.405 2.645-2.603 7.21-2.603 4.566 0 7.211 2.603 2.646 2.56 2.646 8.405 0 5.803-2.646 8.406-2.645 2.602-7.21 2.602m0-5.12q1.194 0 2.005-.469.81-.512 1.237-1.792.47-1.28.47-3.627t-.47-3.626q-.426-1.28-1.237-1.75-.81-.512-2.005-.512-1.152 0-2.006.512-.81.47-1.28 1.75-.426 1.28-.426 3.626t.426 3.627q.47 1.28 1.28 1.792.854.47 2.006.47m23.381 5.12q-2.816 0-4.95-1.152-2.133-1.152-3.327-3.242-1.152-2.091-1.152-4.864V13.61q0-2.902 3.072-2.902t3.072 2.902v9.898q0 2.006.853 3.115t2.432 1.11 2.432-1.11.853-3.115V13.61q0-2.902 3.072-2.902t3.072 2.902v9.984q0 2.773-1.194 4.864-1.152 2.09-3.286 3.242-2.09 1.152-4.949 1.152m16.853 0q-3.072 0-3.072-2.901v-10.24q0-4.096 2.603-6.485 2.645-2.39 6.955-2.39 4.309 0 6.912 2.39 2.645 2.389 2.645 6.485v10.24q0 2.901-3.072 2.901t-3.072-2.901v-9.899q0-2.005-.896-3.029-.896-1.067-2.517-1.067-1.622 0-2.518 1.067-.896 1.024-.896 3.03v9.898q0 2.901-3.072 2.901m30.251 0q-4.693 0-7.424-2.986-2.688-2.987-2.688-8.747 0-3.84 1.11-6.101 1.109-2.262 3.071-3.2 2.006-.982 4.523-.982 2.261 0 3.67.555 1.407.555 2.218 1.877-.299-.896-.47-1.664-.127-.81-.213-1.877-.042-1.067-.042-2.73v-3.67q0-3.328 2.858-3.328 3.115 0 3.115 3.328v18.048q0 5.76-2.56 8.619t-7.168 2.858m-.299-5.12q1.792 0 2.774-1.28 1.024-1.28 1.024-4.778 0-2.347-.47-3.542-.426-1.237-1.28-1.706-.853-.47-2.048-.47-1.194 0-2.048.47-.853.469-1.322 1.706-.427 1.195-.427 3.542 0 3.498.981 4.778 1.024 1.28 2.816 1.28m18.646-4.138q-1.664 0-2.39-.768-.682-.811-.682-2.134V5.077q0-1.365.682-2.133.726-.768 2.39-.768t2.346.768q.726.768.726 2.133v15.616q0 1.323-.726 2.134-.682.768-2.346.768m0 9.258q-1.536 0-2.475-.938-.896-.939-.896-2.39 0-1.493.896-2.432.939-.938 2.475-.938 1.493 0 2.432.938.938.939.938 2.432 0 1.451-.938 2.39-.939.938-2.432.938" aria-label="Image not found!" style="font-size:42.6667px;font-family:&quot;Madimi One&quot;;-inkscape-font-specification:&quot;Madimi One&quot;"/><path d="M120.405 285.27q-5.29 0-9.387-2.049-3.925-2.048-3.925-6.144 0-1.706.682-3.242l25.088-70.486q1.707-4.608 5.12-6.656 3.584-2.048 7.34-2.048 5.973 0 9.045 3.926 3.242 3.754 1.365 9.216l-19.798 55.978q3.584-2.218 7.34-2.218H160v-13.483q0-5.973 2.9-8.704 2.902-2.73 9.217-2.73 12.459 0 12.459 11.434v13.483h4.949q6.315 0 9.728 3.072t3.413 8.874q0 11.776-13.141 11.776h-4.95v20.651q0 11.435-11.946 11.435-5.803 0-9.216-2.73Q160 311.722 160 305.92v-20.65zm134.656 32.085q-13.653 0-23.552-5.974-9.728-6.144-14.848-19.626t-5.12-35.67q0-22.357 5.12-35.84 5.12-13.482 14.848-19.456 9.728-6.144 23.552-6.144 13.995 0 23.552 6.144 9.728 5.974 14.848 19.456 5.12 13.483 5.12 35.84 0 22.187-5.12 35.67-5.12 13.482-14.848 19.626-9.728 5.974-23.552 5.974m0-22.528q6.315 0 10.24-3.072 3.926-3.072 5.803-11.435 1.877-8.533 1.877-24.235 0-15.872-1.877-24.234t-5.803-11.435q-3.925-3.243-10.24-3.243-6.144 0-10.24 3.243-3.925 3.072-5.802 11.435-1.878 8.362-1.878 24.234 0 15.702 1.878 24.235 1.877 8.363 5.802 11.435 4.096 3.072 10.24 3.072m67.585-9.558q-5.29 0-9.387-2.048-3.925-2.048-3.925-6.144 0-1.706.682-3.242l25.088-70.486q1.707-4.608 5.12-6.656 3.584-2.048 7.34-2.048 5.972 0 9.044 3.926 3.243 3.754 1.366 9.216l-19.798 55.978q3.584-2.218 7.34-2.218h16.724v-13.483q0-5.973 2.902-8.704 2.901-2.73 9.216-2.73 12.459 0 12.459 11.434v13.483h4.949q6.315 0 9.728 3.072t3.413 8.874q0 11.776-13.141 11.776h-4.95v20.651q0 11.435-11.946 11.435-5.803 0-9.216-2.73-3.414-2.902-3.414-8.705v-20.65z" aria-label="404" style="font-size:170.667px;font-family:&quot;Madimi One&quot;;-inkscape-font-specification:&quot;Madimi One&quot;"/></svg>