<?xml version="1.0" encoding="UTF-8" standalone="no"?>
<svg
   width="347.561"
   height="105.688"
   viewBox="0 0 91.958847 27.963284"
   version="1.1"
   id="svg8"
   inkscape:version="1.3.2 (091e20e, 2023-11-25, custom)"
   sodipodi:docname="logo-jrcandev.svg"
   xmlns:inkscape="http://www.inkscape.org/namespaces/inkscape"
   xmlns:sodipodi="http://sodipodi.sourceforge.net/DTD/sodipodi-0.dtd"
   xmlns:xlink="http://www.w3.org/1999/xlink"
   xmlns="http://www.w3.org/2000/svg"
   xmlns:svg="http://www.w3.org/2000/svg"
   xmlns:rdf="http://www.w3.org/1999/02/22-rdf-syntax-ns#"
   xmlns:cc="http://creativecommons.org/ns#"
   xmlns:dc="http://purl.org/dc/elements/1.1/">
  <defs
     id="defs2">
    <marker
       style="overflow:visible"
       id="marker1915"
       refX="0"
       refY="0"
       orient="auto"
       inkscape:stockid="TriangleOutL"
       inkscape:isstock="true">
      <path
         transform="scale(0.8)"
         style="fill:#000000;fill-opacity:1;fill-rule:evenodd;stroke:#000000;stroke-width:1pt;stroke-opacity:1"
         d="M 5.77,0 -2.88,5 V -5 Z"
         id="path1913" />
    </marker>
    <marker
       style="overflow:visible"
       id="Arrow2Lend"
       refX="0"
       refY="0"
       orient="auto"
       inkscape:stockid="Arrow2Lend"
       inkscape:isstock="true">
      <path
         transform="matrix(-1.1,0,0,-1.1,-1.1,0)"
         d="M 8.7185878,4.0337352 -2.2072895,0.01601326 8.7185884,-4.0017078 c -1.7454984,2.3720609 -1.7354408,5.6174519 -6e-7,8.035443 z"
         style="fill:#ff8888;fill-opacity:1;fill-rule:evenodd;stroke:#ff8888;stroke-width:0.625;stroke-linejoin:round;stroke-opacity:1"
         id="path880" />
    </marker>
    <inkscape:perspective
       sodipodi:type="inkscape:persp3d"
       inkscape:vp_x="0 : -120.53671 : 1"
       inkscape:vp_y="0 : 999.99997 : 0"
       inkscape:vp_z="210 : -120.53672 : 1"
       inkscape:persp3d-origin="104.99999 : -170.03672 : 1"
       id="perspective841" />
  </defs>
  <sodipodi:namedview
     id="base"
     pagecolor="#ffffff"
     bordercolor="#666666"
     borderopacity="1.0"
     inkscape:pageopacity="0.0"
     inkscape:pageshadow="2"
     inkscape:zoom="1.4"
     inkscape:cx="171.42857"
     inkscape:cy="108.21429"
     inkscape:document-units="mm"
     inkscape:current-layer="layer1"
     inkscape:document-rotation="0"
     showgrid="false"
     inkscape:window-width="1366"
     inkscape:window-height="749"
     inkscape:window-x="0"
     inkscape:window-y="0"
     inkscape:window-maximized="0"
     inkscape:showpageshadow="2"
     inkscape:pagecheckerboard="0"
     inkscape:deskcolor="#d1d1d1">
    <inkscape:grid
       type="xygrid"
       id="grid1955"
       originx="0"
       originy="0"
       spacingy="1"
       spacingx="1"
       units="mm"
       visible="false" />
  </sodipodi:namedview>
  <metadata
     id="metadata5">
    <rdf:RDF>
      <cc:Work
         rdf:about="">
        <dc:format>image/svg+xml</dc:format>
        <dc:type
           rdf:resource="http://purl.org/dc/dcmitype/StillImage" />
      </cc:Work>
    </rdf:RDF>
  </metadata>
  <g
     inkscape:label="Calque 1"
     inkscape:groupmode="layer"
     id="layer1">
    <rect
       style="fill:#ffffff;fill-opacity:1;stroke:none;stroke-width:0.950631;stroke-linejoin:round;stroke-miterlimit:4;stroke-dasharray:none;stroke-opacity:1"
       id="rect1997-1"
       width="91.958366"
       height="27.963161"
       x="0.00036764145"
       y="5.7220459e-06"
       ry="4.6462779" />
    <rect
       style="fill:#803b00;fill-opacity:0.0660353;stroke:none;stroke-width:0.950631;stroke-linejoin:round;stroke-miterlimit:4;stroke-dasharray:none;stroke-opacity:1"
       id="rect1997"
       width="91.958366"
       height="27.963161"
       x="5.5511151e-17"
       y="0"
       ry="4.6462779" />
    <path
       style="font-weight:bold;font-size:12.7px;line-height:1.25;font-family:'TeX Gyre Adventor';-inkscape-font-specification:'TeX Gyre Adventor Bold';fill:#9d3e2f;stroke-width:0.264583"
       d="m 12.814609,17.656491 v -6.6929 h -1.7399 v 6.6421 c 0,0.8255 -0.279399,1.2319 -0.838199,1.2319 -0.4318004,0 -0.7112004,-0.2413 -0.8255004,-0.7112 h -1.7399 c 0.1651,1.5875 1.2446,2.3876 2.6035004,2.3876 1.574799,0 2.539999,-1.0922 2.539999,-2.8575 z m 4.724394,-2.8829 v -1.6256 h -0.127 c -0.723899,0 -1.079499,0.2032 -1.523999,0.8509 v -0.6858 h -1.5494 v 7.0358 h 1.6891 v -3.9116 c 0,-1.0922 0.4953,-1.6383 1.511299,-1.6637 z m 9.829797,2.9591 h -2.0447 c -0.762,0.8001 -1.4224,1.1049 -2.3241,1.1049 -1.7272,0 -3.1496,-1.4478 -3.1496,-3.2004 0,-1.7653 1.3208,-3.1623 3.1115,-3.1623 1.0922,0 1.8288,0.3556 2.4638,1.1811 h 1.9431 c -0.8255,-1.8161 -2.5146,-2.8575 -4.445,-2.8575 -2.6543,0 -4.826,2.1717 -4.826,4.826 0,2.7051 2.1971,4.8895 4.9403,4.8895 1.9177,0 3.5941,-1.0668 4.3307,-2.7813 z m 8.064508,2.6162 v -7.0358 h -1.5494 v 0.9398 c -0.5842,-0.7747 -1.2827,-1.1049 -2.2987,-1.1049 -2.0828,0 -3.5814,1.5621 -3.5814,3.7084 0,2.1209 1.4859,3.6576 3.5433,3.6576 0.9906,0 1.6637,-0.3175 2.3368,-1.0795 v 0.9144 z m -1.6002,-3.4671 c 0,1.1684 -0.762,2.0828 -2.0447,2.0828 -1.2319,0 -2.0828,-0.8382 -2.0828,-2.0701 0,-1.2827 0.8509,-2.1971 2.0574,-2.1971 1.2065,0 2.0701,0.9017 2.0701,2.1844 z m 9.105898,3.4671 v -3.7719 c 0,-1.2573 -0.127,-1.8669 -0.508,-2.413 -0.4572,-0.6604 -1.2192,-1.016 -2.1971,-1.016 -0.8001,0 -1.3589,0.2413 -1.9812,0.8382 v -0.6731 h -1.5621 v 7.0358 h 1.6891 v -3.3147 c 0,-0.9398 0.0635,-1.3462 0.2794,-1.6891 0.2667,-0.4191 0.7112,-0.6477 1.2446,-0.6477 0.8382,0 1.3462,0.3302 1.3462,2.2098 v 3.4417 z m 9.067804,-4.6736 c 0,-1.778 -0.7366,-3.2512 -2.0447,-4.0386 -0.7366,-0.4445 -1.8542,-0.6731 -3.3274,-0.6731 h -2.1463 v 9.3853 h 2.1844 c 1.4224,0 2.2733,-0.1397 3.0353,-0.5207 1.4478,-0.7112 2.2987,-2.2606 2.2987,-4.1529 z m -1.7526,0 c 0,1.1303 -0.5207,2.1336 -1.3589,2.5908 -0.5207,0.2921 -1.2446,0.4191 -2.286,0.4191 h -0.381 v -6.0579 h 0.3429 c 1.1049,0 1.7018,0.1016 2.2479,0.381 0.889,0.4572 1.4351,1.4605 1.4351,2.667 z m 9.982211,1.2573 c 0,-2.1844 -1.5367,-3.7846 -3.6322,-3.7846 -2.0701,0 -3.7084,1.6383 -3.7084,3.7084 0,2.0574 1.6637,3.6576 3.81,3.6576 1.4224,0 2.8829,-0.8001 3.3528,-2.2479 h -1.8415 c -0.4318,0.508 -0.8509,0.6985 -1.5494,0.6985 -1.0033,0 -1.7399,-0.5334 -1.9431,-1.3843 h 5.4483 c 0.0508,-0.2413 0.0635,-0.3937 0.0635,-0.6477 z m -1.6637,-0.8382 h -3.8989 c 0.2667,-0.9017 0.9525,-1.397 1.9558,-1.397 1.0414,0 1.7272,0.4953 1.9431,1.397 z m 8.775697,-2.7813 h -1.905 l -1.6002,4.6609 -1.6256,-4.6609 h -1.8796 l 2.8321,7.0358 h 1.3462 z"
       id="text835"
       aria-label="JrCanDev" />
    <ellipse
       style="fill:#1bc376;fill-opacity:1;stroke:none;stroke-width:0.528325;stroke-linejoin:round"
       id="path837"
       cx="78.062317"
       cy="18.598324"
       rx="2.5198605"
       ry="2.5146868" />
    <path
       style="fill:#1bc376;fill-opacity:1;stroke:none;stroke-width:0.0942697px;stroke-linecap:butt;stroke-linejoin:miter;stroke-opacity:1"
       d="m 78.039467,9.4014646 -1.94879,1.8240744 h 0.97439 v 3.192132 h 1.9488 v -3.192132 h 0.97439 z"
       id="path1953"
       sodipodi:nodetypes="cccccccc" />
    <use
       x="0"
       y="0"
       xlink:href="#path1953"
       id="use1993"
       transform="rotate(-45,78.883668,19.303914)"
       width="100%"
       height="100%" />
    <use
       x="0"
       y="0"
       xlink:href="#path1953"
       id="use1995"
       transform="rotate(45,77.001406,19.120679)"
       width="100%"
       height="100%" />
  </g>
</svg>
