<svg xmlns="http://www.w3.org/2000/svg" width="640" height="128"><path d="M.556.556h638.888v126.888H.556z" style="fill:#000;fill-opacity:1;stroke:#000;stroke-width:1.1122;stroke-opacity:1"/><path d="M69.548 90.352q-6.336 0-12.24-1.44t-9.72-3.744l5.472-12.384q3.6 2.088 7.992 3.384 4.464 1.224 8.64 1.224 2.448 0 3.816-.288 1.44-.36 2.088-.936.648-.648.648-1.512 0-1.368-1.512-2.16T70.7 71.2q-2.448-.576-5.4-1.152-2.952-.648-5.976-1.656-2.952-1.008-5.472-2.664-2.448-1.656-3.96-4.32-1.512-2.736-1.512-6.768 0-4.68 2.592-8.496 2.664-3.888 7.848-6.192 5.256-2.304 13.032-2.304 5.112 0 10.08 1.08t8.928 3.312l-5.112 12.312q-3.744-1.872-7.272-2.808-3.456-.936-6.768-.936-2.448 0-3.888.432t-2.088 1.152q-.576.72-.576 1.584 0 1.296 1.512 2.088 1.512.72 3.96 1.224 2.52.504 5.472 1.08 3.024.576 5.976 1.584t5.4 2.664q2.52 1.656 4.032 4.32t1.512 6.624q0 4.608-2.664 8.496-2.592 3.816-7.776 6.192-5.184 2.304-13.032 2.304m23.04-1.152 22.032-50.4h16.704l22.032 50.4h-17.568l-16.272-42.336h6.624L109.868 89.2zm13.104-8.784 4.32-12.24h23.184l4.32 12.24zm69.192 9.936q-6.336 0-12.24-1.44t-9.72-3.744l5.472-12.384q3.6 2.088 7.992 3.384 4.464 1.224 8.64 1.224 2.448 0 3.816-.288 1.44-.36 2.088-.936.648-.648.648-1.512 0-1.368-1.512-2.16t-4.032-1.296q-2.448-.576-5.4-1.152-2.952-.648-5.976-1.656-2.952-1.008-5.472-2.664-2.448-1.656-3.96-4.32-1.512-2.736-1.512-6.768 0-4.68 2.592-8.496 2.664-3.888 7.848-6.192 5.256-2.304 13.032-2.304 5.112 0 10.08 1.08t8.928 3.312l-5.112 12.312q-3.744-1.872-7.272-2.808-3.456-.936-6.768-.936-2.448 0-3.888.432t-2.088 1.152q-.576.72-.576 1.584 0 1.296 1.512 2.088 1.512.72 3.96 1.224 2.52.504 5.472 1.08 3.024.576 5.976 1.584t5.4 2.664q2.52 1.656 4.032 4.32t1.512 6.624q0 4.608-2.664 8.496-2.592 3.816-7.776 6.192-5.184 2.304-13.032 2.304m76.176 0q-6.048 0-11.232-1.872-5.112-1.944-8.928-5.472-3.744-3.528-5.832-8.352T222.98 64t2.088-10.656 5.832-8.352q3.816-3.528 8.928-5.4 5.184-1.944 11.232-1.944 7.416 0 13.104 2.592 5.76 2.592 9.504 7.488l-10.728 9.576q-2.232-2.808-4.968-4.32-2.664-1.584-6.048-1.584-2.664 0-4.824.864t-3.744 2.52q-1.512 1.656-2.376 4.032-.864 2.304-.864 5.184t.864 5.256q.864 2.304 2.376 3.96 1.584 1.656 3.744 2.52t4.824.864q3.384 0 6.048-1.512 2.736-1.584 4.968-4.392l10.728 9.576q-3.744 4.824-9.504 7.488-5.688 2.592-13.104 2.592m52.848 0q-6.12 0-11.376-1.944-5.184-1.944-9-5.472-3.816-3.6-5.976-8.424-2.088-4.824-2.088-10.512 0-5.76 2.088-10.512 2.16-4.824 5.976-8.352 3.816-3.6 9-5.544 5.256-1.944 11.376-1.944 6.192 0 11.376 1.944t9 5.544q3.816 3.528 5.904 8.352 2.16 4.752 2.16 10.512 0 5.688-2.16 10.512-2.088 4.824-5.904 8.424-3.816 3.528-9 5.472t-11.376 1.944m0-13.752q2.376 0 4.392-.864 2.088-.864 3.6-2.448 1.584-1.656 2.448-3.96.864-2.376.864-5.328t-.864-5.256q-.864-2.376-2.448-3.96-1.512-1.656-3.6-2.52-2.016-.864-4.392-.864t-4.464.864q-2.016.864-3.6 2.52-1.512 1.584-2.376 3.96-.864 2.304-.864 5.256t.864 5.328q.864 2.304 2.376 3.96 1.584 1.584 3.6 2.448 2.088.864 4.464.864m34.632 12.6V38.8h16.992v37.224h22.752V89.2zm68.184 1.152q-11.592 0-18.072-6.264t-6.48-17.568V38.8h16.992v27.216q0 5.76 2.088 8.208 2.088 2.376 5.616 2.376 3.6 0 5.616-2.376 2.088-2.448 2.088-8.208V38.8h16.704v27.72q0 11.304-6.48 17.568t-18.072 6.264m58.392 0q-6.048 0-11.232-1.872-5.112-1.944-8.928-5.472-3.744-3.528-5.832-8.352T437.036 64t2.088-10.656 5.832-8.352q3.816-3.528 8.928-5.4 5.184-1.944 11.232-1.944 7.416 0 13.104 2.592 5.76 2.592 9.504 7.488l-10.728 9.576q-2.232-2.808-4.968-4.32-2.664-1.584-6.048-1.584-2.664 0-4.824.864t-3.744 2.52q-1.512 1.656-2.376 4.032-.864 2.304-.864 5.184t.864 5.256q.864 2.304 2.376 3.96 1.584 1.656 3.744 2.52t4.824.864q3.384 0 6.048-1.512 2.736-1.584 4.968-4.392l10.728 9.576q-3.744 4.824-9.504 7.488-5.688 2.592-13.104 2.592M525.308 38.8H542.3v50.4h-16.992zm-15.696 50.4H492.62V38.8h16.992zm16.848-18.576h-18V56.656h18zm39.6-13.104h22.464v12.24H566.06zm1.152 18.864h25.2V89.2h-41.904V38.8h40.968v12.816h-24.264z" aria-label="Sas COLUCHE" style="font-weight:900;font-size:72px;font-family:Montserrat;-inkscape-font-specification:&quot;Montserrat Heavy&quot;;letter-spacing:0;word-spacing:0;fill:#e2b300"/></svg>