<?xml version="1.0" encoding="UTF-8" standalone="no"?>
<!-- Created with Inkscape (http://www.inkscape.org/) -->

<svg
   width="640"
   height="128"
   viewBox="0 0 640 128"
   version="1.1"
   id="svg1"
   inkscape:version="1.3.2 (091e20e, 2023-11-25, custom)"
   sodipodi:docname="logo-sas-coluche.svg"
   xmlns:inkscape="http://www.inkscape.org/namespaces/inkscape"
   xmlns:sodipodi="http://sodipodi.sourceforge.net/DTD/sodipodi-0.dtd"
   xmlns="http://www.w3.org/2000/svg"
   xmlns:svg="http://www.w3.org/2000/svg">
  <sodipodi:namedview
     id="namedview1"
     pagecolor="#ffffff"
     bordercolor="#000000"
     borderopacity="0.25"
     inkscape:showpageshadow="2"
     inkscape:pageopacity="0.0"
     inkscape:pagecheckerboard="0"
     inkscape:deskcolor="#d1d1d1"
     inkscape:document-units="px"
     inkscape:zoom="0.74853882"
     inkscape:cx="257.83566"
     inkscape:cy="67.464771"
     inkscape:window-width="1366"
     inkscape:window-height="745"
     inkscape:window-x="-8"
     inkscape:window-y="-8"
     inkscape:window-maximized="1"
     inkscape:current-layer="layer1" />
  <defs
     id="defs1" />
  <g
     inkscape:label="Calque 1"
     inkscape:groupmode="layer"
     id="layer1">
    <rect
       style="fill:#000000;fill-opacity:1;stroke:#000000;stroke-width:1.1122;stroke-opacity:1"
       id="rect1"
       width="638.88782"
       height="126.8878"
       x="0.55609131"
       y="0.55609894" />
    <path
       style="font-weight:900;font-size:72px;font-family:Montserrat;-inkscape-font-specification:'Montserrat Heavy';letter-spacing:0px;word-spacing:0px;fill:#e2b300"
       d="m 69.547993,90.351997 q -6.336,0 -12.24,-1.44 -5.904,-1.44 -9.72,-3.744 l 5.472,-12.384 q 3.6,2.088 7.992,3.384 4.464,1.224 8.64,1.224 2.448,0 3.816,-0.288 1.44,-0.36 2.088,-0.936 0.648,-0.648 0.648,-1.512 0,-1.368 -1.512,-2.16 -1.512,-0.792 -4.032,-1.296 -2.448,-0.576 -5.4,-1.152 -2.952,-0.648 -5.976,-1.656 -2.952,-1.008 -5.472,-2.664 -2.448,-1.656 -3.96,-4.32 -1.512,-2.736 -1.512,-6.768 0,-4.68 2.592,-8.496 2.664,-3.888 7.848,-6.192 5.256,-2.304 13.032,-2.304 5.112,0 10.08,1.08 4.968,1.08 8.928,3.312 l -5.112,12.312 q -3.744,-1.872 -7.272,-2.808 -3.456,-0.936 -6.768,-0.936 -2.448,0 -3.888,0.432 -1.44,0.432 -2.088,1.152 -0.576,0.72 -0.576,1.584 0,1.296 1.512,2.088 1.512,0.72 3.96,1.224 2.52,0.504 5.472,1.08 3.024,0.576 5.976,1.584 2.952,1.008 5.4,2.664 2.52,1.656 4.032,4.32 1.512,2.664 1.512,6.624 0,4.608 -2.664,8.496 -2.592,3.816 -7.776,6.192 -5.184,2.304 -13.032,2.304 z m 23.03997,-1.152 22.031997,-50.4 h 16.704 l 22.032,50.4 h -17.568 l -16.272,-42.336 h 6.624 l -16.272,42.336 z m 13.103997,-8.784 4.32,-12.24 h 23.184 l 4.32,12.24 z m 69.19199,9.936 q -6.336,0 -12.24,-1.44 -5.904,-1.44 -9.72,-3.744 l 5.472,-12.384 q 3.6,2.088 7.992,3.384 4.464,1.224 8.64,1.224 2.448,0 3.816,-0.288 1.44,-0.36 2.088,-0.936 0.648,-0.648 0.648,-1.512 0,-1.368 -1.512,-2.16 -1.512,-0.792 -4.032,-1.296 -2.448,-0.576 -5.4,-1.152 -2.952,-0.648 -5.976,-1.656 -2.952,-1.008 -5.472,-2.664 -2.448,-1.656 -3.96,-4.32 -1.512,-2.736 -1.512,-6.768 0,-4.68 2.592,-8.496 2.664,-3.888 7.848,-6.192 5.256,-2.304 13.032,-2.304 5.112,0 10.08,1.08 4.968,1.08 8.928,3.312 l -5.112,12.312 q -3.744,-1.872 -7.272,-2.808 -3.456,-0.936 -6.768,-0.936 -2.448,0 -3.888,0.432 -1.44,0.432 -2.088,1.152 -0.576,0.72 -0.576,1.584 0,1.296 1.512,2.088 1.512,0.72 3.96,1.224 2.52,0.504 5.472,1.08 3.024,0.576 5.976,1.584 2.952,1.008 5.4,2.664 2.52,1.656 4.032,4.32 1.512,2.664 1.512,6.624 0,4.608 -2.664,8.496 -2.592,3.816 -7.776,6.192 -5.184,2.304 -13.032,2.304 z m 76.17591,0 q -6.048,0 -11.232,-1.872 -5.112,-1.944 -8.928,-5.472 -3.744,-3.528 -5.832,-8.352 -2.088,-4.824 -2.088,-10.656 0,-5.832 2.088,-10.656 2.088,-4.824 5.832,-8.352 3.816,-3.528 8.928,-5.4 5.184,-1.944 11.232,-1.944 7.416,0 13.104,2.592 5.76,2.592 9.504,7.488 l -10.728,9.576 q -2.232,-2.808 -4.968,-4.32 -2.664,-1.584 -6.048,-1.584 -2.664,0 -4.824,0.864 -2.16,0.864 -3.744,2.52 -1.512,1.656 -2.376,4.032 -0.864,2.304 -0.864,5.184 0,2.88 0.864,5.256 0.864,2.304 2.376,3.96 1.584,1.656 3.744,2.52 2.16,0.864 4.824,0.864 3.384,0 6.048,-1.512 2.736,-1.584 4.968,-4.392 l 10.728,9.576 q -3.744,4.824 -9.504,7.488 -5.688,2.592 -13.104,2.592 z m 52.84801,0 q -6.12,0 -11.376,-1.944 -5.184,-1.944 -9,-5.472 -3.816,-3.6 -5.976,-8.424 -2.088,-4.824 -2.088,-10.512 0,-5.76 2.088,-10.512 2.16,-4.824 5.976,-8.352 3.816,-3.6 9,-5.544 5.256,-1.944 11.376,-1.944 6.192,0 11.376,1.944 5.184,1.944 9,5.544 3.816,3.528 5.904,8.352 2.16,4.752 2.16,10.512 0,5.688 -2.16,10.512 -2.088,4.824 -5.904,8.424 -3.816,3.528 -9,5.472 -5.184,1.944 -11.376,1.944 z m 0,-13.752 q 2.376,0 4.392,-0.864 2.088,-0.864 3.6,-2.448 1.584,-1.656 2.448,-3.96 0.864,-2.376 0.864,-5.328 0,-2.952 -0.864,-5.256 -0.864,-2.376 -2.448,-3.96 -1.512,-1.656 -3.6,-2.52 -2.016,-0.864 -4.392,-0.864 -2.376,0 -4.464,0.864 -2.016,0.864 -3.6,2.52 -1.512,1.584 -2.376,3.96 -0.864,2.304 -0.864,5.256 0,2.952 0.864,5.328 0.864,2.304 2.376,3.96 1.584,1.584 3.6,2.448 2.088,0.864 4.464,0.864 z m 34.63197,12.6 v -50.4 h 16.992 v 37.224 h 22.752 v 13.176 z m 68.18411,1.152 q -11.592,0 -18.072,-6.264 -6.48,-6.264 -6.48,-17.568 v -27.72 h 16.992 v 27.216 q 0,5.76 2.088,8.208 2.088,2.376 5.616,2.376 3.6,0 5.616,-2.376 2.088,-2.448 2.088,-8.208 v -27.216 h 16.704 v 27.72 q 0,11.304 -6.48,17.568 -6.48,6.264 -18.072,6.264 z m 58.392,0 q -6.048,0 -11.232,-1.872 -5.112,-1.944 -8.928,-5.472 -3.744,-3.528 -5.832,-8.352 -2.088,-4.824 -2.088,-10.656 0,-5.832 2.088,-10.656 2.088,-4.824 5.832,-8.352 3.816,-3.528 8.928,-5.4 5.184,-1.944 11.232,-1.944 7.416,0 13.104,2.592 5.76,2.592 9.504,7.488 l -10.728,9.576 q -2.232,-2.808 -4.968,-4.32 -2.664,-1.584 -6.048,-1.584 -2.664,0 -4.824,0.864 -2.16,0.864 -3.744,2.52 -1.512,1.656 -2.376,4.032 -0.864,2.304 -0.864,5.184 0,2.88 0.864,5.256 0.864,2.304 2.376,3.96 1.584,1.656 3.744,2.52 2.16,0.864 4.824,0.864 3.384,0 6.048,-1.512 2.736,-1.584 4.968,-4.392 l 10.728,9.576 q -3.744,4.824 -9.504,7.488 -5.688,2.592 -13.104,2.592 z m 60.192,-51.552 h 16.992 v 50.4 h -16.992 z m -15.696,50.4 h -16.992 v -50.4 h 16.992 z m 16.848,-18.576 h -18 v -13.968 h 18 z m 39.60006,-13.104 h 22.464 v 12.24 h -22.464 z m 1.152,18.864 h 25.2 v 12.816 h -41.904 v -50.4 h 40.968 v 12.816 h -24.264 z"
       id="text1"
       aria-label="Sas COLUCHE" />
  </g>
</svg>
