<svg xmlns="http://www.w3.org/2000/svg" width="168.631" height="188.511"><path d="M144.879 244.621V1557.43H1344.83V244.621z" style="fill:#2a6f76;fill-opacity:1;fill-rule:nonzero;stroke:none" transform="matrix(.13333 0 0 -.13333 -19.317 207.657)"/><path d="M329.898 842.895v105.257H312.59v17.567h49.156c14.434 0 25.254-1.031 32.465-3.121 7.152-2.071 13.184-6.817 18.031-14.172q7.291-11.08 7.293-26.102c0-8.004-1.613-15.179-4.84-21.562-3.183-6.344-7.132-11.039-11.843-14.074-4.707-3.016-10.024-5.043-15.942-6.11-5.879-1.031-14.805-1.555-26.722-1.555h-9.536v-36.128h17.832v-17.571H312.59v17.571zm20.754 53.078h11.899c13.488 0 22.859 1.968 28.082 5.906 5.183 3.941 7.82 10.894 7.82 20.863q-.001 9.476-4.164 15.723c-2.758 4.195-6.187 6.851-10.289 7.98-4.098 1.149-10.914 1.707-20.484 1.707h-12.864zm71.582-21.789c0 15.066 4.903 27.429 14.645 37.089 9.754 9.645 21.672 14.5 35.703 14.5 13.781 0 25.606-4.773 35.535-14.289 9.848-9.543 14.813-21.964 14.813-37.3 0-15.352-4.91-27.797-14.758-37.348-9.906-9.57-21.746-14.332-35.59-14.332-14.25 0-26.172 4.836-35.844 14.531-9.644 9.692-14.504 22.07-14.504 37.149m19.911.062c0-9.672 2.933-17.578 8.808-23.734 5.942-6.157 13.121-9.223 21.629-9.223 8.66 0 15.898 3.109 21.707 9.336 5.828 6.23 8.738 14.09 8.738 23.621 0 9.567-2.918 17.442-8.859 23.641-5.953 6.187-13.129 9.304-21.586 9.304-8.828 0-16.129-3.16-21.852-9.515-5.746-6.324-8.585-14.149-8.585-23.43m108.179-31.875v63.594H531.07v17.082h34.325v-22.031c2.089 5.73 5.043 10.476 8.781 14.246 3.765 3.765 7.726 6.258 11.902 7.48 4.219 1.192 9.93 1.809 17.188 1.809h4.937V905.16h-3.754c-9.57 0-16.683-.972-21.41-2.922-4.734-1.961-8.199-5.508-10.508-10.648-2.234-5.168-3.398-14.375-3.398-27.715v-21.504h20.879v-17.047H531.07v17.047zm69.942 63.594v17.082h12.457v15.027l18.757 17.555v-32.582h17.715v-17.082H651.48v-47.442c0-7.589.442-12.304 1.243-14.07.832-1.781 2.902-2.672 6.199-2.672 3.492 0 6.914.668 10.273 2.012v-17.465c-4.789-1.734-9.609-2.613-14.418-2.613-5.75 0-10.386 1.305-13.964 3.894-3.563 2.594-5.793 5.809-6.711 9.723-.926 3.906-1.379 10.637-1.379 20.207v48.426zM329.977 657.27v105.285h-16.903v17.582h45.821c12.601 0 22.011-.785 28.324-2.328 6.289-1.571 11.879-5.485 16.676-11.782 4.789-6.289 7.218-13.652 7.218-22.129 0-6.535-1.461-12.429-4.3-17.687-2.891-5.223-7.075-9.211-12.602-11.875 7.637-2.711 13.508-7.184 17.644-13.391 4.129-6.234 6.172-13.336 6.172-21.324 0-6.949-1.523-13.25-4.621-18.891-3.039-5.671-7.113-10.031-12.183-13.152-5.078-3.066-10.633-5.148-16.676-6.226-6.031-1.071-14.274-1.641-24.668-1.641h-46.805v17.559zm20.8 64.414h12.946c9.91 0 16.82 1.757 20.738 5.312 3.922 3.516 5.871 8.723 5.871 15.563 0 13.32-8.871 19.996-26.609 19.996h-12.946zm0-64.414h7.793c10.231 0 17.735.558 22.461 1.589 4.762 1.039 8.621 3.5 11.629 7.371 2.981 3.848 4.488 8.848 4.488 14.879 0 5.52-1.449 10.153-4.304 13.891-2.836 3.711-6.531 6.211-11.055 7.469-4.523 1.23-10.918 1.851-19.152 1.851h-11.86zm79.536 31.308c0 15.082 4.867 27.422 14.628 37.094 9.766 9.644 21.645 14.508 35.715 14.508 13.785 0 25.61-4.785 35.5-14.309 9.887-9.512 14.852-21.949 14.852-37.293 0-15.328-4.965-27.789-14.797-37.367-9.867-9.563-21.707-14.301-35.555-14.301-14.246 0-26.211 4.828-35.859 14.52-9.68 9.699-14.484 22.082-14.484 37.148m19.855.051c0-9.66 2.988-17.551 8.859-23.719 5.926-6.16 13.106-9.219 21.629-9.219 8.625 0 15.856 3.071 21.684 9.329 5.855 6.242 8.781 14.101 8.781 23.609 0 9.562-2.988 17.469-8.922 23.66-5.906 6.199-13.121 9.281-21.543 9.281-8.84 0-16.14-3.152-21.847-9.468-5.786-6.344-8.641-14.172-8.641-23.473m196.551-31.84v-17.078h-35.313v11.211c-11.031-8.543-21.57-12.82-31.64-12.82-6.411 0-11.7 1.437-15.895 4.296-4.164 2.872-6.957 6.571-8.359 11.114-1.367 4.547-2.074 11.867-2.074 21.937v44.91h-13.551v17.082h32.359v-59.57c0-7.199.203-12.043.582-14.512.387-2.507 1.551-4.558 3.481-6.168 1.906-1.613 4.289-2.429 7.199-2.429 8.719 0 18.012 4.218 27.898 12.707v52.89H594.5v17.082h35.711v-80.652zm27.078 0v106.285h-17.008v17.063h35.816V656.789h14.657v-17.078h-50.473v17.078zm41.762 31.789c0 15.082 4.902 27.422 14.652 37.094 9.746 9.644 21.648 14.508 35.711 14.508 13.773 0 25.598-4.785 35.519-14.309 9.872-9.512 14.821-21.949 14.821-37.293 0-15.328-4.949-27.789-14.797-37.367-9.828-9.563-21.707-14.301-35.543-14.301-14.246 0-26.203 4.828-35.852 14.52q-14.51 14.549-14.511 37.148m19.898.051c0-9.66 2.938-17.551 8.844-23.719 5.926-6.16 13.121-9.219 21.621-9.219 8.633 0 15.863 3.071 21.691 9.329 5.856 6.242 8.782 14.101 8.782 23.609 0 9.562-2.989 17.469-8.922 23.66-5.942 6.199-13.121 9.281-21.551 9.281-8.832 0-16.137-3.152-21.867-9.468-5.739-6.344-8.598-14.172-8.598-23.473m208.809 48.812v-17.082h-17.219v-72.781c0-9.797-.488-17.078-1.473-21.816-1.008-4.762-3.371-9.59-7.172-14.543-3.816-4.949-9.453-9.117-17.07-12.481-7.609-3.359-16.039-5.058-25.402-5.058-14.106 0-26.735 4.359-37.809 13.019l12.281 13.949c8.289-6.609 17.328-9.886 27.098-9.886 5.406 0 10.414 1.047 15.031 3.187 4.606 2.121 8.078 4.692 10.356 7.699 2.246 3.032 3.703 5.922 4.383 8.653.66 2.719.976 7.289.976 13.758v8.89c-2.945-3.84-7.609-7.469-13.941-10.898-6.332-3.43-13.25-5.141-20.766-5.141-13.691 0-24.898 4.828-33.523 14.52-8.649 9.699-12.969 21.621-12.969 35.75 0 15.457 4.769 27.968 14.308 37.468 9.497 9.52 20.563 14.301 33.094 14.301 12.617 0 23.93-5.136 33.797-15.449v13.941zm-97.223-49.882c0-9.879 2.805-17.95 8.43-24.2 5.664-6.269 12.855-9.41 21.629-9.41 8.582 0 15.953 3.153 22.152 9.449 6.207 6.293 9.273 14.372 9.273 24.274 0 10.019-3.066 18.086-9.273 24.164-6.199 6.113-13.375 9.152-21.551 9.152-8.183 0-15.336-3.015-21.473-9.058-6.128-6.02-9.187-14.121-9.187-24.371m148.637 49.882v-11.812c12.09 8.867 23.09 13.32 33.05 13.32 6.19 0 11.33-1.5 15.39-4.496 4.04-2.984 6.7-6.656 7.97-11.012 1.24-4.339 1.88-10.668 1.88-19.007v-47.645h16.1v-17.078h-34.9v63.906c0 7.399-1.08 12.227-3.28 14.477-2.18 2.265-4.85 3.379-8.01 3.379-8.3 0-17.71-4.141-28.2-12.407v-52.277h16.51v-17.078h-52.096v17.078h16.777v63.57h-16.777v17.082zm183.69-53.703h-80.52c1.2-9.019 4.69-16.308 10.51-21.91 5.78-5.59 13.2-8.367 22.26-8.367 13.09 0 23.51 5.367 31.14 16.148l16.61-7.48c-5.38-8.539-12.43-14.879-21.06-19.027-8.64-4.122-17.66-6.192-27.09-6.192-14.66 0-27.16 4.641-37.55 13.969-10.4 9.32-15.58 21.902-15.58 37.699 0 15.004 5.05 27.367 15.17 37.051 10.12 9.687 21.74 14.551 34.91 14.551 12.82 0 24.46-4.746 34.94-14.207q15.66-14.18 16.26-42.235M1160 697.66c-1.32 6.887-4.81 13.074-10.49 18.617-5.67 5.547-12.65 8.34-20.88 8.34-7.5 0-13.93-2.508-19.27-7.523-5.36-5.031-8.64-11.5-9.82-19.434zM426.57 511.262l17.926-10.211c-4.035-15.59-12.176-27.699-24.394-36.281-12.223-8.559-26.297-12.879-42.196-12.879-20.843 0-37.562 6.929-50.14 20.711-12.606 13.789-18.883 30.847-18.883 51.168 0 22.281 6.332 40 18.961 53.179 12.66 13.211 29.203 19.821 49.582 19.821 17.992 0 33.125-5.032 45.39-15.051v12.82h17.801v-45.148h-17.801c-3.941 9.168-10.07 16.25-18.281 21.257-8.25 5.012-16.937 7.524-26.019 7.524-13.727 0-24.989-5.063-33.805-15.121-8.793-10.121-13.191-22.86-13.191-38.25 0-15.84 4.726-28.75 14.132-38.789 9.446-10 20.618-15.032 33.563-15.032 10.598 0 20.277 3.481 28.945 10.442 8.723 6.976 14.867 16.918 18.41 29.84m124.434-40.071v-17.05h-32.836v11.879c-9.074-8.981-19.223-13.5-30.473-13.5-8.687 0-16.257 2.89-22.668 8.679-6.457 5.789-9.656 13.192-9.656 22.211 0 9.059 3.402 16.602 10.234 22.59 6.836 6 15.051 9.012 24.68 9.012 8.988 0 17.664-2.782 26.016-8.293v9.691c0 4.981-.469 8.809-1.375 11.5-.918 2.68-3.098 5.121-6.508 7.27-3.359 2.148-7.797 3.218-13.273 3.218-9.442 0-16.278-3.839-20.481-11.519l-17.988 4.859c7.961 15.203 21.734 22.813 41.344 22.813 7.14 0 13.367-.973 18.632-2.961q7.868-3 11.7-7.68c2.593-3.121 4.339-6.512 5.183-10.16.93-3.629 1.367-9.41 1.367-17.34v-45.219zm-34.703 19.27c-8.106 6.488-16.324 9.687-24.629 9.687-5.231 0-9.567-1.539-13.059-4.648-3.5-3.078-5.246-7.102-5.246-12 0-4.59 1.528-8.41 4.602-11.5 3.07-3.102 7.25-4.648 12.519-4.648 9.086 0 17.707 3.91 25.813 11.699zm66.437-19.27v106.297h-17v17.051h35.801V471.191h14.652v-17.05h-50.453v17.05zm138.992 0v-17.05h-32.82v11.879c-9.109-8.981-19.258-13.5-30.472-13.5-8.704 0-16.258 2.89-22.7 8.679-6.425 5.789-9.66 13.192-9.66 22.211 0 9.059 3.438 16.602 10.246 22.59 6.832 6 15.039 9.012 24.668 9.012 8.977 0 17.645-2.782 26.024-8.293v9.691c0 4.981-.461 8.809-1.383 11.5-.93 2.68-3.063 5.121-6.473 7.27-3.394 2.148-7.84 3.218-13.324 3.218-9.426 0-16.242-3.839-20.469-11.519l-17.984 4.859c7.941 15.203 21.726 22.813 41.344 22.813 7.179 0 13.386-.973 18.632-2.961 5.246-2 9.172-4.559 11.754-7.68 2.539-3.121 4.266-6.512 5.176-10.16.899-3.629 1.34-9.41 1.34-17.34v-45.219zm-34.714 19.27c-8.114 6.488-16.321 9.687-24.618 9.687-5.214 0-9.57-1.539-13.043-4.648-3.515-3.078-5.246-7.102-5.246-12 0-4.59 1.508-8.41 4.586-11.5 3.047-3.102 7.246-4.648 12.508-4.648 9.11 0 17.699 3.91 25.813 11.699zm62.816-19.27v63.579h-14.84v17.058h33.613v-80.637h14.864v-17.05h-48.477v17.05zm-2.672 113.86c0 3.07 1.067 5.777 3.207 8.058q3.228 3.45 8.149 3.45c3.113 0 5.785-1.11 8.015-3.34 2.266-2.219 3.36-4.949 3.36-8.168 0-3.231-1.094-5.992-3.36-8.223-2.23-2.269-4.902-3.398-8.015-3.398-3.164 0-5.836 1.148-8.067 3.422-2.203 2.296-3.289 5.019-3.289 8.199m52.719-130.91v33.488h16.812v-3.199c.61-4.602 3.028-8.36 7.27-11.34 4.273-2.949 9.273-4.418 15.086-4.418 6.074 0 10.898 1.066 14.531 3.219 3.625 2.129 5.43 5.148 5.43 8.988 0 3.699-1.488 6.43-4.477 8.16-3.015 1.762-8.968 3.383-17.855 4.82-13.219 2.301-22.61 5.969-28.262 11.063-5.625 5.078-8.457 11.668-8.457 19.726 0 8.161 3.098 14.981 9.207 20.461 6.145 5.481 14.215 8.243 24.258 8.243 9.027 0 16.805-1.891 23.332-5.704v4.18h16.726v-32.387h-16.726v5.93q-7.646 12.028-22.152 12.027c-4.957 0-9.02-1.109-12.239-3.269-3.191-2.199-4.777-5.098-4.777-8.758 0-3.68 1.43-6.25 4.383-7.601 2.933-1.391 9.246-2.84 18.949-4.379 9.309-1.481 16.336-3.211 21.078-5.2 4.711-1.98 8.688-5.293 11.809-9.89 3.113-4.602 4.718-9.981 4.718-16.09 0-9.102-3.429-16.332-10.261-21.66-6.821-5.36-15.66-8.031-26.535-8.031-10.239 0-18.579 2.371-25.036 7.101v-5.48z" style="fill:#fff;fill-opacity:1;fill-rule:nonzero;stroke:none" transform="matrix(.13333 0 0 -.13333 -19.317 207.657)"/><path d="M819.859 1124.43c-12.425 5.73-27.703 12.75-52.101 15.27l-5.043.48v249.61H549.453v-131.71H312.527v-74.85h311.805v131.7h63.547v-185.99l-9.981-4.51c-11.648-5.4-20.14-9.33-39.503-9.33-19.434 0-27.883 3.93-39.575 9.33-14.847 6.88-35.109 16.23-70.925 16.23-35.829 0-56.125-9.35-70.918-16.22-11.731-5.41-20.176-9.34-39.575-9.34-19.453 0-27.898 3.93-39.539 9.33-14.047 6.46-33.019 15.2-65.371 16.13v-74.88c15.465-.66 23.235-4.25 33.793-9.15 15-6.92 35.301-16.27 71.117-16.27 35.895 0 56.141 9.35 70.93 16.21 11.68 5.41 20.129 9.33 39.563 9.33 19.398 0 27.871-3.92 39.527-9.33 14.859-6.86 35.156-16.21 70.973-16.21 35.878 0 56.125 9.35 70.91 16.21 12.168 5.6 20.183 9.33 39.582 9.33 19.453 0 27.855-3.92 39.547-9.33 14.812-6.86 35.105-16.21 70.972-16.21 35.86 0 56.098 9.35 70.891 16.21 10.793 4.96 18.617 8.55 33.996 9.21v74.88c-32.379-.93-51.34-9.67-65.332-16.13-12.16-5.62-20.191-9.33-39.555-9.33-19.406 0-27.433 3.71-39.547 9.33" style="fill:#fcce16;fill-opacity:1;fill-rule:nonzero;stroke:none" transform="matrix(.13333 0 0 -.13333 -19.317 207.657)"/><path d="M819.859 1124.43c-12.425 5.73-27.703 12.75-52.101 15.27l-5.043.48v249.61H549.453v-131.71H312.527v-74.85h311.805v131.7h63.547v-185.99l-9.981-4.51c-11.648-5.4-20.14-9.33-39.503-9.33-19.434 0-27.883 3.93-39.575 9.33-14.847 6.88-35.109 16.23-70.925 16.23-35.829 0-56.125-9.35-70.918-16.22-11.731-5.41-20.176-9.34-39.575-9.34-19.453 0-27.898 3.93-39.539 9.33-14.047 6.46-33.019 15.2-65.371 16.13v-74.88c15.465-.66 23.235-4.25 33.793-9.15 15-6.92 35.301-16.27 71.117-16.27 35.895 0 56.141 9.35 70.93 16.21 11.68 5.41 20.129 9.33 39.563 9.33 19.398 0 27.871-3.92 39.527-9.33 14.859-6.86 35.156-16.21 70.973-16.21 35.878 0 56.125 9.35 70.91 16.21 12.168 5.6 20.183 9.33 39.582 9.33 19.453 0 27.855-3.92 39.547-9.33 14.812-6.86 35.105-16.21 70.972-16.21 35.86 0 56.098 9.35 70.891 16.21 10.793 4.96 18.617 8.55 33.996 9.21v74.88c-32.379-.93-51.34-9.67-65.332-16.13-12.16-5.62-20.191-9.33-39.555-9.33-19.406 0-27.433 3.71-39.547 9.33z" style="fill:none;stroke:#2a6f76;stroke-width:6.30916;stroke-linecap:butt;stroke-linejoin:miter;stroke-miterlimit:10;stroke-dasharray:none;stroke-opacity:1" transform="matrix(.13333 0 0 -.13333 -19.317 207.657)"/><path d="M288.168 146.281 276.547 275.57 1395.07 376.109l11.62-129.281L288.168 146.281" style="fill:#fff;fill-opacity:1;fill-rule:nonzero;stroke:#2a6f76;stroke-width:5.38864;stroke-linecap:butt;stroke-linejoin:miter;stroke-miterlimit:10;stroke-dasharray:none;stroke-opacity:1" transform="matrix(.13333 0 0 -.13333 -19.317 207.657)"/><path d="M409.895 249.25c5.5.5 10.105-.691 13.828-3.559 3.73-2.882 5.816-6.832 6.265-11.863.453-5.078-.91-9.34-4.117-12.797-3.187-3.461-7.641-5.441-13.34-5.953l-10.945-.976 2.223-24.672-11.364-1.02-5.285 58.801zm-.559-25.5c3.031.27 5.336 1.18 6.906 2.719 1.563 1.551 2.242 3.672 1.996 6.402q-.725 8.128-11.172 7.168l-7.746-.687 1.473-16.372zm48.156 29.781 4.481-49.922 28.539 2.571.801-8.879-39.899-3.59-5.285 58.801zm54.172 4.867 3.07-34.218c.317-3.508 1.09-6.25 2.329-8.231 1.238-1.988 3.117-3.539 5.628-4.668 2.5-1.14 5.336-1.551 8.516-1.281 3.469.32 6.367 1.211 8.688 2.711 2.304 1.488 3.929 3.391 4.851 5.699.922 2.309 1.219 5.41.867 9.309l-3.008 33.461 11.36 1.019 3.137-34.937c.711-7.903-1.102-14.203-5.473-18.883-4.363-4.68-10.875-7.399-19.547-8.18-5.453-.488-10.258.051-14.434 1.629-4.171 1.57-7.476 4.102-9.906 7.57-2.437 3.473-3.863 7.68-4.316 12.622l-3.168 35.359zm80.441 7.993c5.719.507 11.364-.411 16.926-2.801l.903-10.09c-6.411 3.121-11.993 4.469-16.707 4.051-2.856-.27-5.039-1.02-6.555-2.27-1.52-1.25-2.18-2.812-2.016-4.652.199-2.219 1.887-4.141 5.059-5.738.883-.493 4.262-1.782 10.133-3.852 5.039-1.828 8.742-4.051 11.136-6.641 2.375-2.578 3.746-5.828 4.09-9.726.461-5.051-.992-9.281-4.344-12.711-3.359-3.441-7.937-5.402-13.71-5.93-3.766-.332-7.036-.211-9.817.379-2.781.578-5.941 1.731-9.504 3.449l-1 11.2c6.754-4.661 12.914-6.731 18.469-6.239 2.781.25 4.969 1.059 6.566 2.41 1.618 1.36 2.321 3.04 2.141 5.04-.242 2.71-1.934 4.8-5.059 6.242-2.601 1.129-5.925 2.457-9.988 3.976-4.824 1.692-8.508 3.832-11.035 6.442-2.539 2.601-3.977 5.761-4.309 9.461-.441 4.937 1.039 9.027 4.454 12.3 3.402 3.258 8.125 5.161 14.167 5.7m100.801 9.07c5.918.527 11.438-.289 16.574-2.481 5.129-2.191 9.305-5.48 12.52-9.878 3.203-4.403 5.055-9.372 5.555-14.852.394-4.469-.164-8.801-1.7-12.988-1.535-4.184-3.902-7.832-7.117-10.981-3.215-3.152-6.965-5.472-11.234-6.961l-.035-.59c6.554-2.41 12.289-3.39 17.203-2.949a19.3 19.3 0 0 1 5.031 1.117l.379-.468-8.707-9.399c-9.59-.25-20.211 3.141-31.844 10.168a29.66 29.66 0 0 0-13.023 4.512c-4.012 2.539-7.207 5.758-9.61 9.699-2.402 3.949-3.82 8.199-4.226 12.75-.5 5.488.461 10.762 2.851 15.82 2.415 5.051 5.961 9.09 10.668 12.09 4.715 3.02 10.278 4.809 16.715 5.391m-18.504-32.172c.543-6.019 2.899-10.711 7.082-14.109 4.192-3.399 9.403-4.828 15.668-4.25 3.868.34 7.297 1.511 10.305 3.539 3.008 2 5.238 4.621 6.719 7.859 1.472 3.25 2.035 6.774 1.691 10.613-.351 3.911-1.527 7.368-3.558 10.36-2.024 2.988-4.68 5.199-7.993 6.668-3.324 1.453-6.929 2-10.82 1.652-6.269-.57-11.144-2.891-14.66-6.98-3.504-4.082-4.984-9.211-4.434-15.352m80.735 36.992 3.07-34.211c.316-3.511 1.102-6.261 2.328-8.242 1.246-1.988 3.117-3.547 5.629-4.668 2.5-1.129 5.336-1.551 8.516-1.269 3.468.32 6.367 1.211 8.687 2.711 2.305 1.488 3.93 3.386 4.86 5.687.914 2.32 1.211 5.41.859 9.313l-3.008 33.457 11.363 1.019 3.133-34.93c.711-7.91-1.101-14.207-5.472-18.886-4.364-4.684-10.875-7.391-19.547-8.184-5.453-.488-10.25.051-14.43 1.633-4.176 1.578-7.469 4.109-9.91 7.57-2.438 3.469-3.863 7.68-4.317 12.617l-3.168 35.364zm67.273 6.809c2.25.211 4.11-.461 5.61-2.012 1.507-1.558 2.367-3.699 2.621-6.449.332-3.699-.606-7.109-2.836-10.199-2.223-3.102-5.114-5.09-8.664-5.942l-.196 2.231c2.493 2.519 3.575 5.609 3.243 9.261l-.211 1.29c-3.204.3-4.973 2.07-5.262 5.339-.145 1.653.324 3.102 1.406 4.36 1.094 1.25 2.52 1.972 4.289 2.121m36.969 2.57 3.07-34.219c.317-3.511 1.102-6.261 2.328-8.242 1.246-1.98 3.118-3.539 5.629-4.66 2.5-1.148 5.348-1.559 8.516-1.277 3.476.308 6.379 1.207 8.687 2.707 2.305 1.492 3.938 3.39 4.86 5.691.922 2.32 1.211 5.41.859 9.309l-3.008 33.472 11.364 1.02 3.132-34.941c.715-7.899-1.101-14.211-5.472-18.879-4.356-4.68-10.867-7.411-19.543-8.192-5.449-.488-10.254.051-14.426 1.641-4.172 1.57-7.477 4.101-9.906 7.57-2.442 3.461-3.875 7.66-4.328 12.61l-3.168 35.359zm73.445 6.602 38.625-37.903-3.683 41.032 11.109 1 5.281-58.789-9.769-.883-38.891 38.551 3.746-41.711-11.105-1-5.285 58.8zm122.896 11.039c5.5.488 10.11-.692 13.83-3.571 3.73-2.878 5.82-6.82 6.27-11.851.45-5.078-.91-9.34-4.12-12.801-3.19-3.449-7.64-5.437-13.33-5.937l-10.95-1 2.23-24.661-11.37-1.019-5.28 58.789zm-.55-25.492c3.03.269 5.33 1.16 6.91 2.711 1.57 1.539 2.23 3.671 1.99 6.402-.49 5.418-4.21 7.797-11.17 7.18l-7.74-.704 1.47-16.367zm66.86 32.211c6.08.55 11.67-.211 16.77-2.27 5.09-2.09 9.3-5.352 12.61-9.82 3.33-4.469 5.22-9.532 5.73-15.16.5-5.508-.44-10.739-2.84-15.692-2.41-4.937-5.95-8.949-10.64-11.988s-10.13-4.828-16.3-5.391c-6.08-.539-11.75.27-16.96 2.469-5.22 2.191-9.42 5.461-12.61 9.82-3.19 4.383-5.04 9.352-5.55 14.942-.48 5.379.45 10.582 2.8 15.57 2.36 4.988 5.85 9.02 10.49 12.078 4.65 3.07 10.16 4.871 16.5 5.442m-18.05-32.032q.525-5.863 3.6-10.297c2.05-2.941 4.73-5.14 8.04-6.55 3.31-1.45 6.97-1.969 10.95-1.621 6.03.539 10.82 2.89 14.36 7.019 3.54 4.133 5.06 9.191 4.51 15.172-.34 3.898-1.53 7.34-3.57 10.301-2.04 2.968-4.73 5.168-8.07 6.609-3.34 1.418-6.99 1.938-10.97 1.578-3.98-.347-7.51-1.527-10.53-3.551-3.04-2-5.26-4.636-6.68-7.898-1.45-3.25-1.99-6.828-1.64-10.762m90.98 37.821q8.295.752 13.92-3.36c3.76-2.75 5.85-6.57 6.3-11.488.3-3.34-.31-6.332-1.81-8.961-1.5-2.641-3.89-4.832-7.15-6.57 1.98-.84 3.76-2.071 5.38-3.668 1.62-1.621 3.69-4.391 6.22-8.313 4.23-6.82 7.34-11.469 9.32-14.008l-12.67-1.14c-.99 1.199-2.35 3.16-4.1 5.871-3.81 5.957-6.57 9.957-8.29 11.988-1.71 2.051-3.3 3.461-4.79 4.25-1.49.781-3.14 1.102-4.95.942l-4.13-.383 2.23-24.828-11.36-1.02-5.29 58.789zm-.32-25.297c2.98.25 5.25 1.218 6.81 2.847 1.56 1.641 2.23 3.762 2 6.34-.24 2.692-1.27 4.621-3.08 5.813-1.79 1.179-4.25 1.629-7.37 1.347l-7.07-.629 1.47-16.371zm87.78 33.168.79-8.879-20.88-1.879 4.49-49.91-11.35-1.024-4.49 49.91-20.88-1.878-.8 8.878z" style="fill:#2a6f76;fill-opacity:1;fill-rule:nonzero;stroke:none" transform="matrix(.13333 0 0 -.13333 -19.317 207.657)"/></svg>