<svg xmlns="http://www.w3.org/2000/svg" xmlns:xlink="http://www.w3.org/1999/xlink" width="347.561" height="105.688" viewBox="0 0 91.959 27.963"><rect width="91.958" height="27.963" ry="4.646" style="fill:#fff;fill-opacity:1;stroke:none;stroke-width:.950631;stroke-linejoin:round;stroke-miterlimit:4;stroke-dasharray:none;stroke-opacity:1"/><rect width="91.958" height="27.963" ry="4.646" style="fill:#803b00;fill-opacity:.0660353;stroke:none;stroke-width:.950631;stroke-linejoin:round;stroke-miterlimit:4;stroke-dasharray:none;stroke-opacity:1"/><path d="M12.815 17.656v-6.692h-1.74v6.642c0 .825-.28 1.232-.838 1.232-.432 0-.712-.242-.826-.712h-1.74c.165 1.588 1.245 2.388 2.604 2.388 1.574 0 2.54-1.092 2.54-2.858m4.724-2.882v-1.626h-.127c-.724 0-1.08.203-1.524.85v-.685h-1.55v7.036h1.69v-3.912c0-1.092.495-1.638 1.511-1.663m9.83 2.959h-2.045c-.762.8-1.422 1.105-2.324 1.105-1.727 0-3.15-1.448-3.15-3.2 0-1.766 1.321-3.163 3.112-3.163 1.092 0 1.829.355 2.464 1.181h1.943c-.826-1.816-2.515-2.858-4.445-2.858a4.84 4.84 0 0 0-4.826 4.826c0 2.706 2.197 4.89 4.94 4.89 1.918 0 3.594-1.067 4.33-2.781m8.064 2.616v-7.036h-1.55v.94c-.583-.775-1.282-1.105-2.298-1.105-2.083 0-3.581 1.562-3.581 3.708 0 2.121 1.486 3.658 3.543 3.658.99 0 1.664-.318 2.337-1.08v.915zm-1.6-3.467c0 1.168-.762 2.083-2.045 2.083-1.231 0-2.082-.839-2.082-2.07 0-1.283.85-2.198 2.057-2.198s2.07.902 2.07 2.185m9.106 3.467v-3.772c0-1.257-.127-1.867-.508-2.413-.457-.66-1.22-1.016-2.197-1.016-.8 0-1.359.241-1.981.838v-.673H36.69v7.036h1.689v-3.315c0-.94.063-1.346.28-1.689.266-.419.71-.648 1.244-.648.838 0 1.346.33 1.346 2.21v3.442zm9.068-4.674c0-1.778-.737-3.25-2.045-4.038-.736-.445-1.854-.673-3.327-.673h-2.147v9.385h2.185c1.422 0 2.273-.14 3.035-.52 1.448-.712 2.299-2.261 2.299-4.154m-1.753 0c0 1.13-.52 2.134-1.359 2.591-.52.292-1.244.42-2.286.42h-.38v-6.059h.342c1.105 0 1.702.102 2.248.381.89.457 1.435 1.46 1.435 2.667m9.982 1.258c0-2.185-1.536-3.785-3.632-3.785a3.68 3.68 0 0 0-3.708 3.708c0 2.058 1.664 3.658 3.81 3.658 1.422 0 2.883-.8 3.353-2.248h-1.842c-.432.508-.85.699-1.55.699-1.003 0-1.74-.534-1.942-1.385h5.448a2.8 2.8 0 0 0 .063-.647m-1.663-.839h-3.9c.268-.901.953-1.397 1.957-1.397 1.041 0 1.727.496 1.943 1.397m8.775-2.78h-1.905l-1.6 4.66-1.625-4.66h-1.88l2.832 7.035h1.346z" aria-label="JrCanDev" style="font-weight:700;font-size:12.7px;line-height:1.25;font-family:&quot;TeX Gyre Adventor&quot;;-inkscape-font-specification:&quot;TeX Gyre Adventor Bold&quot;;fill:#9d3e2f;stroke-width:.264583"/><ellipse cx="78.062" cy="18.598" rx="2.52" ry="2.515" style="fill:#1bc376;fill-opacity:1;stroke:none;stroke-width:.528325;stroke-linejoin:round"/><path id="a" d="m78.04 9.401-1.95 1.825h.975v3.192h1.949v-3.192h.974z" style="fill:#1bc376;fill-opacity:1;stroke:none;stroke-width:.0942697px;stroke-linecap:butt;stroke-linejoin:miter;stroke-opacity:1"/><use xlink:href="#a" width="100%" height="100%" transform="rotate(-45 78.884 19.304)"/><use xlink:href="#a" width="100%" height="100%" transform="rotate(45 77.001 19.12)"/></svg>