<!--

https://github.com/datalog/qrcode-svg

--><svg viewBox="0 0 41 41" width="256" height="256" fill="#000000" shape-rendering="crispEdges" xmlns="http://www.w3.org/2000/svg" version="1.1"><path transform="matrix(1,0,0,1,4,4)" d="M31,32h1v1h-1v-1zM27,32h2v1h-2v-1zM23,32h2v1h-2v-1zM14,32h5v1h-5v-1zM12,32h1v1h-1v-1zM8,32h1v1h-1v-1zM0,32h7v1h-7v-1zM28,31h3v1h-3v-1zM25,31h2v1h-2v-1zM20,31h3v1h-3v-1zM15,31h2v1h-2v-1zM11,31h3v1h-3v-1zM9,31h1v1h-1v-1zM6,31h1v1h-1v-1zM0,31h1v1h-1v-1zM29,30h1v1h-1v-1zM26,30h1v1h-1v-1zM23,30h1v1h-1v-1zM20,30h1v1h-1v-1zM18,30h1v1h-1v-1zM12,30h4v1h-4v-1zM8,30h1v1h-1v-1zM6,30h1v1h-1v-1zM2,30h3v1h-3v-1zM0,30h1v1h-1v-1zM31,29h2v1h-2v-1zM28,29h2v1h-2v-1zM21,29h5v1h-5v-1zM19,29h1v1h-1v-1zM13,29h1v1h-1v-1zM10,29h1v1h-1v-1zM8,29h1v1h-1v-1zM6,29h1v1h-1v-1zM2,29h3v1h-3v-1zM0,29h1v1h-1v-1zM24,28h5v1h-5v-1zM12,28h9v1h-9v-1zM8,28h3v1h-3v-1zM6,28h1v1h-1v-1zM2,28h3v1h-3v-1zM0,28h1v1h-1v-1zM32,27h1v1h-1v-1zM28,27h3v1h-3v-1zM24,27h1v1h-1v-1zM19,27h4v1h-4v-1zM14,27h3v1h-3v-1zM12,27h1v1h-1v-1zM10,27h1v1h-1v-1zM8,27h1v1h-1v-1zM6,27h1v1h-1v-1zM0,27h1v1h-1v-1zM28,26h2v1h-2v-1zM26,26h1v1h-1v-1zM23,26h2v1h-2v-1zM20,26h2v1h-2v-1zM18,26h1v1h-1v-1zM15,26h1v1h-1v-1zM12,26h1v1h-1v-1zM9,26h1v1h-1v-1zM0,26h7v1h-7v-1zM30,25h3v1h-3v-1zM28,25h1v1h-1v-1zM24,25h1v1h-1v-1zM19,25h4v1h-4v-1zM17,25h1v1h-1v-1zM8,25h4v1h-4v-1zM31,24h2v1h-2v-1zM24,24h5v1h-5v-1zM22,24h1v1h-1v-1zM20,24h1v1h-1v-1zM14,24h5v1h-5v-1zM8,24h3v1h-3v-1zM2,24h5v1h-5v-1zM0,24h1v1h-1v-1zM32,23h1v1h-1v-1zM30,23h1v1h-1v-1zM19,23h10v1h-10v-1zM16,23h1v1h-1v-1zM8,23h6v1h-6v-1zM2,23h2v1h-2v-1zM0,23h1v1h-1v-1zM31,22h1v1h-1v-1zM29,22h1v1h-1v-1zM24,22h3v1h-3v-1zM22,22h1v1h-1v-1zM20,22h1v1h-1v-1zM10,22h8v1h-8v-1zM6,22h1v1h-1v-1zM4,22h1v1h-1v-1zM2,22h1v1h-1v-1zM0,22h1v1h-1v-1zM32,21h1v1h-1v-1zM30,21h1v1h-1v-1zM26,21h1v1h-1v-1zM22,21h2v1h-2v-1zM19,21h1v1h-1v-1zM17,21h1v1h-1v-1zM14,21h1v1h-1v-1zM10,21h2v1h-2v-1zM2,21h2v1h-2v-1zM0,21h1v1h-1v-1zM31,20h1v1h-1v-1zM27,20h2v1h-2v-1zM25,20h1v1h-1v-1zM23,20h1v1h-1v-1zM20,20h1v1h-1v-1zM15,20h4v1h-4v-1zM9,20h2v1h-2v-1zM6,20h2v1h-2v-1zM4,20h1v1h-1v-1zM0,20h3v1h-3v-1zM29,19h3v1h-3v-1zM27,19h1v1h-1v-1zM25,19h1v1h-1v-1zM23,19h1v1h-1v-1zM21,19h1v1h-1v-1zM19,19h1v1h-1v-1zM14,19h1v1h-1v-1zM12,19h1v1h-1v-1zM10,19h1v1h-1v-1zM7,19h2v1h-2v-1zM4,19h1v1h-1v-1zM0,19h3v1h-3v-1zM27,18h4v1h-4v-1zM20,18h1v1h-1v-1zM18,18h1v1h-1v-1zM11,18h6v1h-6v-1zM2,18h8v1h-8v-1zM31,17h2v1h-2v-1zM26,17h2v1h-2v-1zM23,17h1v1h-1v-1zM18,17h4v1h-4v-1zM13,17h2v1h-2v-1zM8,17h4v1h-4v-1zM5,17h1v1h-1v-1zM1,17h3v1h-3v-1zM31,16h1v1h-1v-1zM27,16h3v1h-3v-1zM25,16h1v1h-1v-1zM22,16h1v1h-1v-1zM14,16h5v1h-5v-1zM11,16h1v1h-1v-1zM6,16h4v1h-4v-1zM3,16h2v1h-2v-1zM0,16h2v1h-2v-1zM32,15h1v1h-1v-1zM30,15h1v1h-1v-1zM28,15h1v1h-1v-1zM25,15h2v1h-2v-1zM18,15h4v1h-4v-1zM14,15h1v1h-1v-1zM7,15h1v1h-1v-1zM3,15h3v1h-3v-1zM0,15h1v1h-1v-1zM27,14h5v1h-5v-1zM21,14h2v1h-2v-1zM13,14h5v1h-5v-1zM11,14h1v1h-1v-1zM8,14h2v1h-2v-1zM6,14h1v1h-1v-1zM4,14h1v1h-1v-1zM1,14h2v1h-2v-1zM32,13h1v1h-1v-1zM26,13h2v1h-2v-1zM21,13h3v1h-3v-1zM19,13h1v1h-1v-1zM17,13h1v1h-1v-1zM12,13h1v1h-1v-1zM7,13h2v1h-2v-1zM2,13h1v1h-1v-1zM32,12h1v1h-1v-1zM27,12h2v1h-2v-1zM24,12h2v1h-2v-1zM20,12h1v1h-1v-1zM16,12h3v1h-3v-1zM9,12h2v1h-2v-1zM6,12h1v1h-1v-1zM4,12h1v1h-1v-1zM0,12h2v1h-2v-1zM28,11h3v1h-3v-1zM24,11h3v1h-3v-1zM21,11h2v1h-2v-1zM19,11h1v1h-1v-1zM14,11h2v1h-2v-1zM11,11h2v1h-2v-1zM8,11h2v1h-2v-1zM3,11h3v1h-3v-1zM30,10h1v1h-1v-1zM24,10h5v1h-5v-1zM22,10h1v1h-1v-1zM18,10h1v1h-1v-1zM15,10h1v1h-1v-1zM11,10h2v1h-2v-1zM8,10h1v1h-1v-1zM4,10h3v1h-3v-1zM0,10h1v1h-1v-1zM31,9h2v1h-2v-1zM29,9h1v1h-1v-1zM26,9h1v1h-1v-1zM17,9h7v1h-7v-1zM10,9h5v1h-5v-1zM7,9h1v1h-1v-1zM4,9h1v1h-1v-1zM0,9h1v1h-1v-1zM26,8h5v1h-5v-1zM22,8h3v1h-3v-1zM15,8h3v1h-3v-1zM13,8h1v1h-1v-1zM2,8h5v1h-5v-1zM0,8h1v1h-1v-1zM21,7h2v1h-2v-1zM18,7h2v1h-2v-1zM8,7h5v1h-5v-1zM26,6h7v1h-7v-1zM24,6h1v1h-1v-1zM22,6h1v1h-1v-1zM20,6h1v1h-1v-1zM18,6h1v1h-1v-1zM16,6h1v1h-1v-1zM14,6h1v1h-1v-1zM12,6h1v1h-1v-1zM10,6h1v1h-1v-1zM8,6h1v1h-1v-1zM0,6h7v1h-7v-1zM32,5h1v1h-1v-1zM26,5h1v1h-1v-1zM22,5h1v1h-1v-1zM20,5h1v1h-1v-1zM17,5h2v1h-2v-1zM14,5h2v1h-2v-1zM8,5h3v1h-3v-1zM6,5h1v1h-1v-1zM0,5h1v1h-1v-1zM32,4h1v1h-1v-1zM28,4h3v1h-3v-1zM26,4h1v1h-1v-1zM22,4h3v1h-3v-1zM19,4h1v1h-1v-1zM14,4h1v1h-1v-1zM8,4h3v1h-3v-1zM6,4h1v1h-1v-1zM2,4h3v1h-3v-1zM0,4h1v1h-1v-1zM32,3h1v1h-1v-1zM28,3h3v1h-3v-1zM26,3h1v1h-1v-1zM23,3h2v1h-2v-1zM20,3h1v1h-1v-1zM15,3h4v1h-4v-1zM12,3h2v1h-2v-1zM8,3h2v1h-2v-1zM6,3h1v1h-1v-1zM2,3h3v1h-3v-1zM0,3h1v1h-1v-1zM32,2h1v1h-1v-1zM28,2h3v1h-3v-1zM26,2h1v1h-1v-1zM24,2h1v1h-1v-1zM20,2h3v1h-3v-1zM18,2h1v1h-1v-1zM14,2h2v1h-2v-1zM12,2h1v1h-1v-1zM10,2h1v1h-1v-1zM8,2h1v1h-1v-1zM6,2h1v1h-1v-1zM2,2h3v1h-3v-1zM0,2h1v1h-1v-1zM32,1h1v1h-1v-1zM26,1h1v1h-1v-1zM24,1h1v1h-1v-1zM20,1h3v1h-3v-1zM14,1h5v1h-5v-1zM12,1h1v1h-1v-1zM6,1h1v1h-1v-1zM0,1h1v1h-1v-1zM26,0h7v1h-7v-1zM23,0h1v1h-1v-1zM19,0h2v1h-2v-1zM14,0h1v1h-1v-1zM10,0h3v1h-3v-1zM0,0h7v1h-7v-1z"/></svg>