<!--

https://github.com/datalog/qrcode-svg

--><svg viewBox="0 0 33 33" width="256" height="256" fill="#000000" shape-rendering="crispEdges" xmlns="http://www.w3.org/2000/svg" version="1.1"><path transform="matrix(1,0,0,1,4,4)" d="M24,24h1v1h-1v-1zM20,24h1v1h-1v-1zM16,24h2v1h-2v-1zM12,24h3v1h-3v-1zM8,24h2v1h-2v-1zM0,24h7v1h-7v-1zM24,23h1v1h-1v-1zM21,23h1v1h-1v-1zM18,23h2v1h-2v-1zM16,23h1v1h-1v-1zM14,23h1v1h-1v-1zM11,23h1v1h-1v-1zM6,23h1v1h-1v-1zM0,23h1v1h-1v-1zM24,22h1v1h-1v-1zM22,22h1v1h-1v-1zM19,22h1v1h-1v-1zM17,22h1v1h-1v-1zM11,22h4v1h-4v-1zM9,22h1v1h-1v-1zM6,22h1v1h-1v-1zM2,22h3v1h-3v-1zM0,22h1v1h-1v-1zM23,21h2v1h-2v-1zM21,21h1v1h-1v-1zM17,21h2v1h-2v-1zM13,21h3v1h-3v-1zM9,21h1v1h-1v-1zM6,21h1v1h-1v-1zM2,21h3v1h-3v-1zM0,21h1v1h-1v-1zM15,20h10v1h-10v-1zM12,20h2v1h-2v-1zM10,20h1v1h-1v-1zM6,20h1v1h-1v-1zM2,20h3v1h-3v-1zM0,20h1v1h-1v-1zM23,19h1v1h-1v-1zM20,19h2v1h-2v-1zM16,19h1v1h-1v-1zM14,19h1v1h-1v-1zM12,19h1v1h-1v-1zM9,19h1v1h-1v-1zM6,19h1v1h-1v-1zM0,19h1v1h-1v-1zM24,18h1v1h-1v-1zM20,18h1v1h-1v-1zM18,18h1v1h-1v-1zM16,18h1v1h-1v-1zM13,18h2v1h-2v-1zM10,18h2v1h-2v-1zM0,18h7v1h-7v-1zM20,17h1v1h-1v-1zM16,17h1v1h-1v-1zM12,17h3v1h-3v-1zM8,17h1v1h-1v-1zM22,16h3v1h-3v-1zM16,16h5v1h-5v-1zM13,16h1v1h-1v-1zM11,16h1v1h-1v-1zM9,16h1v1h-1v-1zM2,16h5v1h-5v-1zM0,16h1v1h-1v-1zM21,15h2v1h-2v-1zM19,15h1v1h-1v-1zM17,15h1v1h-1v-1zM15,15h1v1h-1v-1zM9,15h3v1h-3v-1zM7,15h1v1h-1v-1zM4,15h2v1h-2v-1zM2,15h1v1h-1v-1zM0,15h1v1h-1v-1zM23,14h2v1h-2v-1zM20,14h1v1h-1v-1zM9,14h9v1h-9v-1zM2,14h6v1h-6v-1zM0,14h1v1h-1v-1zM23,13h1v1h-1v-1zM21,13h1v1h-1v-1zM19,13h1v1h-1v-1zM14,13h3v1h-3v-1zM10,13h1v1h-1v-1zM8,13h1v1h-1v-1zM4,13h2v1h-2v-1zM0,13h2v1h-2v-1zM23,12h2v1h-2v-1zM21,12h1v1h-1v-1zM18,12h2v1h-2v-1zM14,12h2v1h-2v-1zM11,12h2v1h-2v-1zM6,12h1v1h-1v-1zM2,12h3v1h-3v-1zM21,11h1v1h-1v-1zM19,11h1v1h-1v-1zM15,11h1v1h-1v-1zM10,11h3v1h-3v-1zM8,11h1v1h-1v-1zM4,11h2v1h-2v-1zM1,11h1v1h-1v-1zM23,10h2v1h-2v-1zM15,10h3v1h-3v-1zM10,10h1v1h-1v-1zM3,10h6v1h-6v-1zM1,10h1v1h-1v-1zM20,9h3v1h-3v-1zM15,9h2v1h-2v-1zM9,9h3v1h-3v-1zM7,9h1v1h-1v-1zM2,9h2v1h-2v-1zM0,9h1v1h-1v-1zM21,8h3v1h-3v-1zM17,8h2v1h-2v-1zM12,8h2v1h-2v-1zM8,8h3v1h-3v-1zM6,8h1v1h-1v-1zM0,8h1v1h-1v-1zM14,7h3v1h-3v-1zM11,7h1v1h-1v-1zM8,7h1v1h-1v-1zM18,6h7v1h-7v-1zM16,6h1v1h-1v-1zM14,6h1v1h-1v-1zM12,6h1v1h-1v-1zM10,6h1v1h-1v-1zM8,6h1v1h-1v-1zM0,6h7v1h-7v-1zM24,5h1v1h-1v-1zM18,5h1v1h-1v-1zM16,5h1v1h-1v-1zM13,5h2v1h-2v-1zM11,5h1v1h-1v-1zM6,5h1v1h-1v-1zM0,5h1v1h-1v-1zM24,4h1v1h-1v-1zM20,4h3v1h-3v-1zM18,4h1v1h-1v-1zM14,4h1v1h-1v-1zM6,4h1v1h-1v-1zM2,4h3v1h-3v-1zM0,4h1v1h-1v-1zM24,3h1v1h-1v-1zM20,3h3v1h-3v-1zM18,3h1v1h-1v-1zM13,3h2v1h-2v-1zM8,3h3v1h-3v-1zM6,3h1v1h-1v-1zM2,3h3v1h-3v-1zM0,3h1v1h-1v-1zM24,2h1v1h-1v-1zM20,2h3v1h-3v-1zM18,2h1v1h-1v-1zM14,2h2v1h-2v-1zM10,2h1v1h-1v-1zM8,2h1v1h-1v-1zM6,2h1v1h-1v-1zM2,2h3v1h-3v-1zM0,2h1v1h-1v-1zM24,1h1v1h-1v-1zM18,1h1v1h-1v-1zM16,1h1v1h-1v-1zM11,1h2v1h-2v-1zM8,1h1v1h-1v-1zM6,1h1v1h-1v-1zM0,1h1v1h-1v-1zM18,0h7v1h-7v-1zM16,0h1v1h-1v-1zM13,0h1v1h-1v-1zM11,0h1v1h-1v-1zM0,0h7v1h-7v-1z"/></svg>