<!--

https://github.com/datalog/qrcode-svg

--><svg viewBox="0 0 45 45" width="256" height="256" fill="#000000" shape-rendering="crispEdges" xmlns="http://www.w3.org/2000/svg" version="1.1"><path transform="matrix(1,0,0,1,4,4)" d="M34,36h3v1h-3v-1zM30,36h1v1h-1v-1zM27,36h1v1h-1v-1zM24,36h2v1h-2v-1zM22,36h1v1h-1v-1zM17,36h2v1h-2v-1zM14,36h1v1h-1v-1zM11,36h1v1h-1v-1zM8,36h2v1h-2v-1zM0,36h7v1h-7v-1zM36,35h1v1h-1v-1zM32,35h1v1h-1v-1zM26,35h3v1h-3v-1zM21,35h2v1h-2v-1zM18,35h1v1h-1v-1zM16,35h1v1h-1v-1zM14,35h1v1h-1v-1zM9,35h3v1h-3v-1zM6,35h1v1h-1v-1zM0,35h1v1h-1v-1zM35,34h2v1h-2v-1zM31,34h1v1h-1v-1zM28,34h1v1h-1v-1zM26,34h1v1h-1v-1zM17,34h1v1h-1v-1zM13,34h1v1h-1v-1zM10,34h1v1h-1v-1zM8,34h1v1h-1v-1zM6,34h1v1h-1v-1zM2,34h3v1h-3v-1zM0,34h1v1h-1v-1zM35,33h2v1h-2v-1zM32,33h1v1h-1v-1zM30,33h1v1h-1v-1zM27,33h2v1h-2v-1zM21,33h3v1h-3v-1zM15,33h5v1h-5v-1zM8,33h2v1h-2v-1zM6,33h1v1h-1v-1zM2,33h3v1h-3v-1zM0,33h1v1h-1v-1zM34,32h3v1h-3v-1zM25,32h8v1h-8v-1zM23,32h1v1h-1v-1zM18,32h3v1h-3v-1zM13,32h2v1h-2v-1zM11,32h1v1h-1v-1zM8,32h1v1h-1v-1zM6,32h1v1h-1v-1zM2,32h3v1h-3v-1zM0,32h1v1h-1v-1zM35,31h2v1h-2v-1zM32,31h1v1h-1v-1zM28,31h1v1h-1v-1zM19,31h4v1h-4v-1zM15,31h2v1h-2v-1zM12,31h1v1h-1v-1zM8,31h3v1h-3v-1zM6,31h1v1h-1v-1zM0,31h1v1h-1v-1zM32,30h5v1h-5v-1zM30,30h1v1h-1v-1zM28,30h1v1h-1v-1zM26,30h1v1h-1v-1zM20,30h2v1h-2v-1zM15,30h2v1h-2v-1zM9,30h3v1h-3v-1zM0,30h7v1h-7v-1zM32,29h1v1h-1v-1zM27,29h2v1h-2v-1zM23,29h1v1h-1v-1zM16,29h6v1h-6v-1zM13,29h2v1h-2v-1zM10,29h1v1h-1v-1zM8,29h1v1h-1v-1zM36,28h1v1h-1v-1zM28,28h7v1h-7v-1zM25,28h2v1h-2v-1zM22,28h1v1h-1v-1zM19,28h1v1h-1v-1zM17,28h1v1h-1v-1zM15,28h1v1h-1v-1zM10,28h1v1h-1v-1zM6,28h2v1h-2v-1zM2,28h2v1h-2v-1zM0,28h1v1h-1v-1zM36,27h1v1h-1v-1zM26,27h4v1h-4v-1zM21,27h2v1h-2v-1zM14,27h2v1h-2v-1zM12,27h1v1h-1v-1zM7,27h2v1h-2v-1zM4,27h2v1h-2v-1zM2,27h1v1h-1v-1zM0,27h1v1h-1v-1zM31,26h6v1h-6v-1zM26,26h3v1h-3v-1zM24,26h1v1h-1v-1zM22,26h1v1h-1v-1zM20,26h1v1h-1v-1zM15,26h3v1h-3v-1zM12,26h2v1h-2v-1zM10,26h1v1h-1v-1zM8,26h1v1h-1v-1zM6,26h1v1h-1v-1zM4,26h1v1h-1v-1zM0,26h1v1h-1v-1zM35,25h1v1h-1v-1zM28,25h1v1h-1v-1zM22,25h2v1h-2v-1zM17,25h3v1h-3v-1zM15,25h1v1h-1v-1zM13,25h1v1h-1v-1zM11,25h1v1h-1v-1zM7,25h1v1h-1v-1zM4,25h1v1h-1v-1zM0,25h1v1h-1v-1zM32,24h5v1h-5v-1zM24,24h7v1h-7v-1zM19,24h2v1h-2v-1zM12,24h6v1h-6v-1zM8,24h1v1h-1v-1zM6,24h1v1h-1v-1zM4,24h1v1h-1v-1zM0,24h2v1h-2v-1zM35,23h2v1h-2v-1zM30,23h2v1h-2v-1zM26,23h1v1h-1v-1zM20,23h4v1h-4v-1zM18,23h1v1h-1v-1zM12,23h1v1h-1v-1zM9,23h1v1h-1v-1zM3,23h2v1h-2v-1zM0,23h1v1h-1v-1zM36,22h1v1h-1v-1zM33,22h2v1h-2v-1zM26,22h6v1h-6v-1zM24,22h1v1h-1v-1zM21,22h1v1h-1v-1zM15,22h1v1h-1v-1zM13,22h1v1h-1v-1zM9,22h1v1h-1v-1zM5,22h3v1h-3v-1zM2,22h1v1h-1v-1zM34,21h1v1h-1v-1zM31,21h1v1h-1v-1zM28,21h1v1h-1v-1zM25,21h1v1h-1v-1zM23,21h1v1h-1v-1zM18,21h4v1h-4v-1zM16,21h1v1h-1v-1zM10,21h1v1h-1v-1zM7,21h1v1h-1v-1zM5,21h1v1h-1v-1zM2,21h1v1h-1v-1zM34,20h3v1h-3v-1zM32,20h1v1h-1v-1zM29,20h2v1h-2v-1zM24,20h4v1h-4v-1zM17,20h1v1h-1v-1zM14,20h1v1h-1v-1zM11,20h2v1h-2v-1zM9,20h1v1h-1v-1zM2,20h6v1h-6v-1zM0,20h1v1h-1v-1zM35,19h1v1h-1v-1zM28,19h5v1h-5v-1zM24,19h1v1h-1v-1zM21,19h1v1h-1v-1zM16,19h1v1h-1v-1zM12,19h1v1h-1v-1zM8,19h2v1h-2v-1zM3,19h2v1h-2v-1zM0,19h2v1h-2v-1zM35,18h2v1h-2v-1zM31,18h1v1h-1v-1zM27,18h2v1h-2v-1zM25,18h1v1h-1v-1zM18,18h1v1h-1v-1zM10,18h5v1h-5v-1zM5,18h4v1h-4v-1zM1,18h3v1h-3v-1zM35,17h1v1h-1v-1zM33,17h1v1h-1v-1zM31,17h1v1h-1v-1zM28,17h2v1h-2v-1zM21,17h3v1h-3v-1zM19,17h1v1h-1v-1zM14,17h4v1h-4v-1zM11,17h1v1h-1v-1zM8,17h1v1h-1v-1zM2,17h3v1h-3v-1zM29,16h7v1h-7v-1zM24,16h2v1h-2v-1zM19,16h2v1h-2v-1zM17,16h1v1h-1v-1zM11,16h2v1h-2v-1zM8,16h2v1h-2v-1zM6,16h1v1h-1v-1zM3,16h2v1h-2v-1zM1,16h1v1h-1v-1zM35,15h2v1h-2v-1zM33,15h1v1h-1v-1zM28,15h4v1h-4v-1zM26,15h1v1h-1v-1zM20,15h3v1h-3v-1zM18,15h1v1h-1v-1zM14,15h3v1h-3v-1zM11,15h2v1h-2v-1zM0,15h2v1h-2v-1zM34,14h3v1h-3v-1zM31,14h1v1h-1v-1zM26,14h3v1h-3v-1zM22,14h1v1h-1v-1zM18,14h1v1h-1v-1zM14,14h2v1h-2v-1zM11,14h2v1h-2v-1zM6,14h1v1h-1v-1zM0,14h5v1h-5v-1zM35,13h1v1h-1v-1zM31,13h1v1h-1v-1zM28,13h1v1h-1v-1zM26,13h1v1h-1v-1zM22,13h2v1h-2v-1zM16,13h5v1h-5v-1zM10,13h5v1h-5v-1zM7,13h1v1h-1v-1zM5,13h1v1h-1v-1zM0,13h4v1h-4v-1zM29,12h8v1h-8v-1zM22,12h5v1h-5v-1zM19,12h1v1h-1v-1zM15,12h3v1h-3v-1zM9,12h2v1h-2v-1zM4,12h4v1h-4v-1zM35,11h1v1h-1v-1zM30,11h2v1h-2v-1zM27,11h1v1h-1v-1zM24,11h1v1h-1v-1zM21,11h2v1h-2v-1zM18,11h1v1h-1v-1zM12,11h4v1h-4v-1zM9,11h2v1h-2v-1zM7,11h1v1h-1v-1zM4,11h1v1h-1v-1zM0,11h1v1h-1v-1zM34,10h3v1h-3v-1zM30,10h3v1h-3v-1zM25,10h3v1h-3v-1zM22,10h1v1h-1v-1zM14,10h3v1h-3v-1zM12,10h1v1h-1v-1zM5,10h5v1h-5v-1zM1,10h1v1h-1v-1zM35,9h1v1h-1v-1zM31,9h1v1h-1v-1zM28,9h1v1h-1v-1zM22,9h2v1h-2v-1zM18,9h2v1h-2v-1zM14,9h2v1h-2v-1zM7,9h5v1h-5v-1zM2,9h1v1h-1v-1zM30,8h5v1h-5v-1zM24,8h3v1h-3v-1zM20,8h3v1h-3v-1zM14,8h4v1h-4v-1zM12,8h1v1h-1v-1zM10,8h1v1h-1v-1zM2,8h5v1h-5v-1zM0,8h1v1h-1v-1zM27,7h2v1h-2v-1zM20,7h5v1h-5v-1zM18,7h1v1h-1v-1zM16,7h1v1h-1v-1zM12,7h2v1h-2v-1zM10,7h1v1h-1v-1zM8,7h1v1h-1v-1zM30,6h7v1h-7v-1zM28,6h1v1h-1v-1zM26,6h1v1h-1v-1zM24,6h1v1h-1v-1zM22,6h1v1h-1v-1zM20,6h1v1h-1v-1zM18,6h1v1h-1v-1zM16,6h1v1h-1v-1zM14,6h1v1h-1v-1zM12,6h1v1h-1v-1zM10,6h1v1h-1v-1zM8,6h1v1h-1v-1zM0,6h7v1h-7v-1zM36,5h1v1h-1v-1zM30,5h1v1h-1v-1zM26,5h3v1h-3v-1zM20,5h1v1h-1v-1zM16,5h2v1h-2v-1zM8,5h5v1h-5v-1zM6,5h1v1h-1v-1zM0,5h1v1h-1v-1zM36,4h1v1h-1v-1zM32,4h3v1h-3v-1zM30,4h1v1h-1v-1zM23,4h1v1h-1v-1zM19,4h3v1h-3v-1zM16,4h2v1h-2v-1zM12,4h2v1h-2v-1zM8,4h1v1h-1v-1zM6,4h1v1h-1v-1zM2,4h3v1h-3v-1zM0,4h1v1h-1v-1zM36,3h1v1h-1v-1zM32,3h3v1h-3v-1zM30,3h1v1h-1v-1zM25,3h2v1h-2v-1zM22,3h2v1h-2v-1zM16,3h2v1h-2v-1zM13,3h2v1h-2v-1zM8,3h1v1h-1v-1zM6,3h1v1h-1v-1zM2,3h3v1h-3v-1zM0,3h1v1h-1v-1zM36,2h1v1h-1v-1zM32,2h3v1h-3v-1zM30,2h1v1h-1v-1zM26,2h2v1h-2v-1zM21,2h1v1h-1v-1zM19,2h1v1h-1v-1zM15,2h2v1h-2v-1zM11,2h1v1h-1v-1zM8,2h2v1h-2v-1zM6,2h1v1h-1v-1zM2,2h3v1h-3v-1zM0,2h1v1h-1v-1zM36,1h1v1h-1v-1zM30,1h1v1h-1v-1zM24,1h5v1h-5v-1zM21,1h2v1h-2v-1zM17,1h2v1h-2v-1zM15,1h1v1h-1v-1zM12,1h2v1h-2v-1zM9,1h2v1h-2v-1zM6,1h1v1h-1v-1zM0,1h1v1h-1v-1zM30,0h7v1h-7v-1zM28,0h1v1h-1v-1zM25,0h2v1h-2v-1zM21,0h3v1h-3v-1zM18,0h2v1h-2v-1zM11,0h4v1h-4v-1zM9,0h1v1h-1v-1zM0,0h7v1h-7v-1z"/></svg>