<!--

https://github.com/datalog/qrcode-svg

--><svg viewBox="0 0 45 45" width="256" height="256" fill="#000000" shape-rendering="crispEdges" xmlns="http://www.w3.org/2000/svg" version="1.1"><path transform="matrix(1,0,0,1,4,4)" d="M36,36h1v1h-1v-1zM30,36h2v1h-2v-1zM28,36h1v1h-1v-1zM23,36h2v1h-2v-1zM19,36h2v1h-2v-1zM14,36h2v1h-2v-1zM11,36h2v1h-2v-1zM8,36h2v1h-2v-1zM0,36h7v1h-7v-1zM31,35h6v1h-6v-1zM26,35h1v1h-1v-1zM24,35h1v1h-1v-1zM17,35h4v1h-4v-1zM13,35h1v1h-1v-1zM6,35h1v1h-1v-1zM0,35h1v1h-1v-1zM36,34h1v1h-1v-1zM34,34h1v1h-1v-1zM31,34h2v1h-2v-1zM29,34h1v1h-1v-1zM26,34h2v1h-2v-1zM22,34h3v1h-3v-1zM20,34h1v1h-1v-1zM18,34h1v1h-1v-1zM15,34h1v1h-1v-1zM13,34h1v1h-1v-1zM9,34h2v1h-2v-1zM6,34h1v1h-1v-1zM2,34h3v1h-3v-1zM0,34h1v1h-1v-1zM34,33h3v1h-3v-1zM29,33h2v1h-2v-1zM25,33h3v1h-3v-1zM23,33h1v1h-1v-1zM19,33h3v1h-3v-1zM14,33h2v1h-2v-1zM12,33h1v1h-1v-1zM8,33h3v1h-3v-1zM6,33h1v1h-1v-1zM2,33h3v1h-3v-1zM0,33h1v1h-1v-1zM26,32h8v1h-8v-1zM22,32h3v1h-3v-1zM20,32h1v1h-1v-1zM16,32h2v1h-2v-1zM14,32h1v1h-1v-1zM8,32h3v1h-3v-1zM6,32h1v1h-1v-1zM2,32h3v1h-3v-1zM0,32h1v1h-1v-1zM36,31h1v1h-1v-1zM32,31h2v1h-2v-1zM27,31h2v1h-2v-1zM25,31h1v1h-1v-1zM22,31h1v1h-1v-1zM18,31h1v1h-1v-1zM14,31h1v1h-1v-1zM8,31h2v1h-2v-1zM6,31h1v1h-1v-1zM0,31h1v1h-1v-1zM36,30h1v1h-1v-1zM34,30h1v1h-1v-1zM32,30h1v1h-1v-1zM30,30h1v1h-1v-1zM28,30h1v1h-1v-1zM25,30h1v1h-1v-1zM23,30h1v1h-1v-1zM17,30h4v1h-4v-1zM15,30h1v1h-1v-1zM10,30h4v1h-4v-1zM8,30h1v1h-1v-1zM0,30h7v1h-7v-1zM35,29h1v1h-1v-1zM32,29h1v1h-1v-1zM28,29h1v1h-1v-1zM25,29h1v1h-1v-1zM19,29h4v1h-4v-1zM13,29h4v1h-4v-1zM11,29h1v1h-1v-1zM8,29h2v1h-2v-1zM34,28h3v1h-3v-1zM27,28h6v1h-6v-1zM24,28h2v1h-2v-1zM22,28h1v1h-1v-1zM20,28h1v1h-1v-1zM13,28h2v1h-2v-1zM11,28h1v1h-1v-1zM6,28h1v1h-1v-1zM2,28h1v1h-1v-1zM0,28h1v1h-1v-1zM31,27h5v1h-5v-1zM27,27h1v1h-1v-1zM22,27h2v1h-2v-1zM20,27h1v1h-1v-1zM14,27h1v1h-1v-1zM10,27h3v1h-3v-1zM2,27h3v1h-3v-1zM0,27h1v1h-1v-1zM34,26h3v1h-3v-1zM31,26h1v1h-1v-1zM25,26h5v1h-5v-1zM19,26h4v1h-4v-1zM14,26h2v1h-2v-1zM12,26h1v1h-1v-1zM9,26h2v1h-2v-1zM4,26h4v1h-4v-1zM0,26h2v1h-2v-1zM32,25h3v1h-3v-1zM26,25h3v1h-3v-1zM20,25h4v1h-4v-1zM18,25h1v1h-1v-1zM14,25h3v1h-3v-1zM11,25h1v1h-1v-1zM7,25h1v1h-1v-1zM0,25h4v1h-4v-1zM35,24h2v1h-2v-1zM33,24h1v1h-1v-1zM28,24h4v1h-4v-1zM23,24h2v1h-2v-1zM21,24h1v1h-1v-1zM19,24h1v1h-1v-1zM16,24h1v1h-1v-1zM11,24h3v1h-3v-1zM8,24h2v1h-2v-1zM6,24h1v1h-1v-1zM2,24h2v1h-2v-1zM0,24h1v1h-1v-1zM36,23h1v1h-1v-1zM33,23h2v1h-2v-1zM26,23h2v1h-2v-1zM22,23h3v1h-3v-1zM20,23h1v1h-1v-1zM17,23h2v1h-2v-1zM13,23h1v1h-1v-1zM3,23h1v1h-1v-1zM0,23h1v1h-1v-1zM36,22h1v1h-1v-1zM33,22h1v1h-1v-1zM26,22h5v1h-5v-1zM21,22h3v1h-3v-1zM13,22h4v1h-4v-1zM11,22h1v1h-1v-1zM2,22h8v1h-8v-1zM0,22h1v1h-1v-1zM34,21h2v1h-2v-1zM31,21h2v1h-2v-1zM25,21h3v1h-3v-1zM22,21h2v1h-2v-1zM17,21h4v1h-4v-1zM15,21h1v1h-1v-1zM12,21h2v1h-2v-1zM9,21h2v1h-2v-1zM7,21h1v1h-1v-1zM4,21h1v1h-1v-1zM1,21h1v1h-1v-1zM35,20h2v1h-2v-1zM30,20h4v1h-4v-1zM28,20h1v1h-1v-1zM23,20h2v1h-2v-1zM19,20h1v1h-1v-1zM16,20h2v1h-2v-1zM12,20h2v1h-2v-1zM5,20h4v1h-4v-1zM1,20h3v1h-3v-1zM30,19h3v1h-3v-1zM28,19h1v1h-1v-1zM25,19h1v1h-1v-1zM18,19h2v1h-2v-1zM16,19h1v1h-1v-1zM8,19h3v1h-3v-1zM4,19h1v1h-1v-1zM2,19h1v1h-1v-1zM0,19h1v1h-1v-1zM36,18h1v1h-1v-1zM34,18h1v1h-1v-1zM32,18h1v1h-1v-1zM30,18h1v1h-1v-1zM27,18h2v1h-2v-1zM19,18h6v1h-6v-1zM15,18h3v1h-3v-1zM12,18h1v1h-1v-1zM10,18h1v1h-1v-1zM8,18h1v1h-1v-1zM4,18h3v1h-3v-1zM33,17h2v1h-2v-1zM31,17h1v1h-1v-1zM26,17h2v1h-2v-1zM16,17h4v1h-4v-1zM13,17h2v1h-2v-1zM9,17h3v1h-3v-1zM7,17h1v1h-1v-1zM1,17h3v1h-3v-1zM34,16h3v1h-3v-1zM30,16h2v1h-2v-1zM25,16h1v1h-1v-1zM22,16h2v1h-2v-1zM18,16h2v1h-2v-1zM15,16h1v1h-1v-1zM9,16h3v1h-3v-1zM6,16h2v1h-2v-1zM4,16h1v1h-1v-1zM29,15h6v1h-6v-1zM23,15h1v1h-1v-1zM13,15h4v1h-4v-1zM11,15h1v1h-1v-1zM1,15h2v1h-2v-1zM35,14h2v1h-2v-1zM33,14h1v1h-1v-1zM29,14h2v1h-2v-1zM27,14h1v1h-1v-1zM18,14h4v1h-4v-1zM14,14h2v1h-2v-1zM11,14h2v1h-2v-1zM8,14h2v1h-2v-1zM5,14h2v1h-2v-1zM1,14h1v1h-1v-1zM32,13h3v1h-3v-1zM29,13h1v1h-1v-1zM25,13h3v1h-3v-1zM22,13h2v1h-2v-1zM14,13h4v1h-4v-1zM7,13h6v1h-6v-1zM2,13h3v1h-3v-1zM35,12h2v1h-2v-1zM33,12h1v1h-1v-1zM30,12h1v1h-1v-1zM27,12h2v1h-2v-1zM23,12h2v1h-2v-1zM19,12h2v1h-2v-1zM16,12h1v1h-1v-1zM10,12h2v1h-2v-1zM6,12h1v1h-1v-1zM0,12h4v1h-4v-1zM33,11h3v1h-3v-1zM31,11h1v1h-1v-1zM28,11h1v1h-1v-1zM24,11h1v1h-1v-1zM17,11h2v1h-2v-1zM14,11h2v1h-2v-1zM12,11h1v1h-1v-1zM10,11h1v1h-1v-1zM3,11h2v1h-2v-1zM1,11h1v1h-1v-1zM34,10h3v1h-3v-1zM32,10h1v1h-1v-1zM27,10h4v1h-4v-1zM25,10h1v1h-1v-1zM22,10h2v1h-2v-1zM20,10h1v1h-1v-1zM17,10h1v1h-1v-1zM10,10h1v1h-1v-1zM4,10h4v1h-4v-1zM2,10h1v1h-1v-1zM31,9h4v1h-4v-1zM29,9h1v1h-1v-1zM27,9h1v1h-1v-1zM19,9h7v1h-7v-1zM14,9h1v1h-1v-1zM8,9h5v1h-5v-1zM0,9h6v1h-6v-1zM34,8h3v1h-3v-1zM32,8h1v1h-1v-1zM29,8h1v1h-1v-1zM26,8h1v1h-1v-1zM24,8h1v1h-1v-1zM14,8h7v1h-7v-1zM12,8h1v1h-1v-1zM10,8h1v1h-1v-1zM3,8h6v1h-6v-1zM0,8h1v1h-1v-1zM27,7h2v1h-2v-1zM25,7h1v1h-1v-1zM22,7h1v1h-1v-1zM20,7h1v1h-1v-1zM14,7h3v1h-3v-1zM12,7h1v1h-1v-1zM30,6h7v1h-7v-1zM28,6h1v1h-1v-1zM26,6h1v1h-1v-1zM24,6h1v1h-1v-1zM22,6h1v1h-1v-1zM20,6h1v1h-1v-1zM18,6h1v1h-1v-1zM16,6h1v1h-1v-1zM14,6h1v1h-1v-1zM12,6h1v1h-1v-1zM10,6h1v1h-1v-1zM8,6h1v1h-1v-1zM0,6h7v1h-7v-1zM36,5h1v1h-1v-1zM30,5h1v1h-1v-1zM26,5h1v1h-1v-1zM21,5h3v1h-3v-1zM18,5h1v1h-1v-1zM16,5h1v1h-1v-1zM11,5h1v1h-1v-1zM9,5h1v1h-1v-1zM6,5h1v1h-1v-1zM0,5h1v1h-1v-1zM36,4h1v1h-1v-1zM32,4h3v1h-3v-1zM30,4h1v1h-1v-1zM28,4h1v1h-1v-1zM25,4h2v1h-2v-1zM21,4h1v1h-1v-1zM19,4h1v1h-1v-1zM13,4h5v1h-5v-1zM8,4h3v1h-3v-1zM6,4h1v1h-1v-1zM2,4h3v1h-3v-1zM0,4h1v1h-1v-1zM36,3h1v1h-1v-1zM32,3h3v1h-3v-1zM30,3h1v1h-1v-1zM25,3h1v1h-1v-1zM20,3h4v1h-4v-1zM17,3h1v1h-1v-1zM14,3h2v1h-2v-1zM12,3h1v1h-1v-1zM9,3h1v1h-1v-1zM6,3h1v1h-1v-1zM2,3h3v1h-3v-1zM0,3h1v1h-1v-1zM36,2h1v1h-1v-1zM32,2h3v1h-3v-1zM30,2h1v1h-1v-1zM27,2h1v1h-1v-1zM25,2h1v1h-1v-1zM21,2h1v1h-1v-1zM16,2h1v1h-1v-1zM13,2h2v1h-2v-1zM8,2h3v1h-3v-1zM6,2h1v1h-1v-1zM2,2h3v1h-3v-1zM0,2h1v1h-1v-1zM36,1h1v1h-1v-1zM30,1h1v1h-1v-1zM25,1h2v1h-2v-1zM21,1h1v1h-1v-1zM18,1h2v1h-2v-1zM13,1h3v1h-3v-1zM8,1h1v1h-1v-1zM6,1h1v1h-1v-1zM0,1h1v1h-1v-1zM30,0h7v1h-7v-1zM28,0h1v1h-1v-1zM25,0h2v1h-2v-1zM20,0h2v1h-2v-1zM16,0h2v1h-2v-1zM14,0h1v1h-1v-1zM10,0h1v1h-1v-1zM8,0h1v1h-1v-1zM0,0h7v1h-7v-1z"/></svg>