<!--

https://github.com/datalog/qrcode-svg

--><svg viewBox="0 0 49 49" width="256" height="256" fill="#000000" shape-rendering="crispEdges" xmlns="http://www.w3.org/2000/svg" version="1.1"><path transform="matrix(1,0,0,1,4,4)" d="M38,40h1v1h-1v-1zM35,40h1v1h-1v-1zM33,40h1v1h-1v-1zM31,40h1v1h-1v-1zM29,40h1v1h-1v-1zM22,40h5v1h-5v-1zM20,40h1v1h-1v-1zM15,40h3v1h-3v-1zM8,40h3v1h-3v-1zM0,40h7v1h-7v-1zM39,39h1v1h-1v-1zM37,39h1v1h-1v-1zM34,39h1v1h-1v-1zM32,39h1v1h-1v-1zM30,39h1v1h-1v-1zM27,39h1v1h-1v-1zM20,39h4v1h-4v-1zM17,39h2v1h-2v-1zM12,39h4v1h-4v-1zM9,39h1v1h-1v-1zM6,39h1v1h-1v-1zM0,39h1v1h-1v-1zM38,38h1v1h-1v-1zM33,38h4v1h-4v-1zM25,38h5v1h-5v-1zM20,38h3v1h-3v-1zM17,38h2v1h-2v-1zM15,38h1v1h-1v-1zM8,38h3v1h-3v-1zM6,38h1v1h-1v-1zM2,38h3v1h-3v-1zM0,38h1v1h-1v-1zM37,37h2v1h-2v-1zM28,37h4v1h-4v-1zM26,37h1v1h-1v-1zM23,37h1v1h-1v-1zM19,37h3v1h-3v-1zM14,37h2v1h-2v-1zM12,37h1v1h-1v-1zM8,37h1v1h-1v-1zM6,37h1v1h-1v-1zM2,37h3v1h-3v-1zM0,37h1v1h-1v-1zM32,36h9v1h-9v-1zM27,36h1v1h-1v-1zM18,36h7v1h-7v-1zM13,36h3v1h-3v-1zM10,36h1v1h-1v-1zM8,36h1v1h-1v-1zM6,36h1v1h-1v-1zM2,36h3v1h-3v-1zM0,36h1v1h-1v-1zM36,35h2v1h-2v-1zM26,35h7v1h-7v-1zM19,35h2v1h-2v-1zM16,35h1v1h-1v-1zM13,35h2v1h-2v-1zM8,35h3v1h-3v-1zM6,35h1v1h-1v-1zM0,35h1v1h-1v-1zM36,34h2v1h-2v-1zM34,34h1v1h-1v-1zM31,34h2v1h-2v-1zM27,34h3v1h-3v-1zM22,34h1v1h-1v-1zM20,34h1v1h-1v-1zM18,34h1v1h-1v-1zM14,34h2v1h-2v-1zM11,34h2v1h-2v-1zM9,34h1v1h-1v-1zM0,34h7v1h-7v-1zM39,33h2v1h-2v-1zM36,33h2v1h-2v-1zM32,33h1v1h-1v-1zM28,33h3v1h-3v-1zM22,33h2v1h-2v-1zM19,33h1v1h-1v-1zM16,33h1v1h-1v-1zM14,33h1v1h-1v-1zM11,33h1v1h-1v-1zM8,33h1v1h-1v-1zM38,32h1v1h-1v-1zM31,32h6v1h-6v-1zM27,32h3v1h-3v-1zM25,32h1v1h-1v-1zM20,32h4v1h-4v-1zM17,32h2v1h-2v-1zM12,32h2v1h-2v-1zM2,32h5v1h-5v-1zM0,32h1v1h-1v-1zM35,31h1v1h-1v-1zM30,31h3v1h-3v-1zM27,31h1v1h-1v-1zM23,31h1v1h-1v-1zM21,31h1v1h-1v-1zM18,31h1v1h-1v-1zM16,31h1v1h-1v-1zM11,31h4v1h-4v-1zM8,31h1v1h-1v-1zM2,31h2v1h-2v-1zM0,31h1v1h-1v-1zM37,30h1v1h-1v-1zM35,30h1v1h-1v-1zM31,30h1v1h-1v-1zM20,30h9v1h-9v-1zM16,30h2v1h-2v-1zM10,30h1v1h-1v-1zM8,30h1v1h-1v-1zM6,30h1v1h-1v-1zM4,30h1v1h-1v-1zM2,30h1v1h-1v-1zM0,30h1v1h-1v-1zM39,29h2v1h-2v-1zM35,29h3v1h-3v-1zM32,29h2v1h-2v-1zM30,29h1v1h-1v-1zM27,29h1v1h-1v-1zM25,29h1v1h-1v-1zM21,29h1v1h-1v-1zM16,29h1v1h-1v-1zM7,29h1v1h-1v-1zM0,29h3v1h-3v-1zM38,28h2v1h-2v-1zM33,28h1v1h-1v-1zM24,28h6v1h-6v-1zM22,28h1v1h-1v-1zM20,28h1v1h-1v-1zM15,28h3v1h-3v-1zM13,28h1v1h-1v-1zM8,28h1v1h-1v-1zM1,28h6v1h-6v-1zM39,27h2v1h-2v-1zM36,27h1v1h-1v-1zM32,27h1v1h-1v-1zM30,27h1v1h-1v-1zM21,27h1v1h-1v-1zM19,27h1v1h-1v-1zM16,27h1v1h-1v-1zM12,27h1v1h-1v-1zM9,27h1v1h-1v-1zM4,27h2v1h-2v-1zM1,27h2v1h-2v-1zM38,26h2v1h-2v-1zM34,26h1v1h-1v-1zM32,26h1v1h-1v-1zM25,26h4v1h-4v-1zM17,26h1v1h-1v-1zM14,26h1v1h-1v-1zM12,26h1v1h-1v-1zM9,26h2v1h-2v-1zM6,26h1v1h-1v-1zM2,26h1v1h-1v-1zM40,25h1v1h-1v-1zM36,25h1v1h-1v-1zM30,25h5v1h-5v-1zM28,25h1v1h-1v-1zM26,25h1v1h-1v-1zM17,25h7v1h-7v-1zM13,25h2v1h-2v-1zM11,25h1v1h-1v-1zM8,25h1v1h-1v-1zM4,25h2v1h-2v-1zM2,25h1v1h-1v-1zM0,25h1v1h-1v-1zM38,24h1v1h-1v-1zM29,24h4v1h-4v-1zM22,24h5v1h-5v-1zM20,24h1v1h-1v-1zM17,24h1v1h-1v-1zM15,24h1v1h-1v-1zM12,24h1v1h-1v-1zM10,24h1v1h-1v-1zM4,24h3v1h-3v-1zM0,24h1v1h-1v-1zM39,23h2v1h-2v-1zM32,23h2v1h-2v-1zM28,23h1v1h-1v-1zM26,23h1v1h-1v-1zM24,23h1v1h-1v-1zM21,23h2v1h-2v-1zM18,23h2v1h-2v-1zM10,23h7v1h-7v-1zM7,23h2v1h-2v-1zM5,23h1v1h-1v-1zM1,23h1v1h-1v-1zM36,22h1v1h-1v-1zM25,22h6v1h-6v-1zM20,22h3v1h-3v-1zM16,22h1v1h-1v-1zM9,22h6v1h-6v-1zM4,22h3v1h-3v-1zM1,22h2v1h-2v-1zM39,21h2v1h-2v-1zM31,21h7v1h-7v-1zM28,21h2v1h-2v-1zM25,21h1v1h-1v-1zM21,21h3v1h-3v-1zM16,21h4v1h-4v-1zM12,21h1v1h-1v-1zM7,21h4v1h-4v-1zM3,21h1v1h-1v-1zM0,21h2v1h-2v-1zM37,20h3v1h-3v-1zM35,20h1v1h-1v-1zM30,20h2v1h-2v-1zM26,20h2v1h-2v-1zM21,20h1v1h-1v-1zM14,20h2v1h-2v-1zM10,20h1v1h-1v-1zM6,20h2v1h-2v-1zM39,19h2v1h-2v-1zM34,19h4v1h-4v-1zM31,19h2v1h-2v-1zM24,19h2v1h-2v-1zM21,19h2v1h-2v-1zM15,19h4v1h-4v-1zM12,19h2v1h-2v-1zM9,19h1v1h-1v-1zM7,19h1v1h-1v-1zM5,19h1v1h-1v-1zM1,19h2v1h-2v-1zM37,18h1v1h-1v-1zM34,18h1v1h-1v-1zM30,18h1v1h-1v-1zM24,18h5v1h-5v-1zM20,18h2v1h-2v-1zM17,18h1v1h-1v-1zM13,18h3v1h-3v-1zM6,18h4v1h-4v-1zM0,18h1v1h-1v-1zM40,17h1v1h-1v-1zM30,17h8v1h-8v-1zM28,17h1v1h-1v-1zM25,17h1v1h-1v-1zM21,17h3v1h-3v-1zM19,17h1v1h-1v-1zM17,17h1v1h-1v-1zM14,17h1v1h-1v-1zM9,17h3v1h-3v-1zM7,17h1v1h-1v-1zM3,17h2v1h-2v-1zM40,16h1v1h-1v-1zM38,16h1v1h-1v-1zM35,16h1v1h-1v-1zM32,16h1v1h-1v-1zM29,16h1v1h-1v-1zM24,16h3v1h-3v-1zM22,16h1v1h-1v-1zM17,16h4v1h-4v-1zM14,16h1v1h-1v-1zM5,16h4v1h-4v-1zM0,16h1v1h-1v-1zM39,15h1v1h-1v-1zM36,15h2v1h-2v-1zM33,15h2v1h-2v-1zM28,15h1v1h-1v-1zM26,15h1v1h-1v-1zM24,15h1v1h-1v-1zM19,15h4v1h-4v-1zM14,15h2v1h-2v-1zM8,15h2v1h-2v-1zM0,15h1v1h-1v-1zM38,14h1v1h-1v-1zM35,14h1v1h-1v-1zM32,14h2v1h-2v-1zM25,14h2v1h-2v-1zM21,14h1v1h-1v-1zM19,14h1v1h-1v-1zM17,14h1v1h-1v-1zM10,14h4v1h-4v-1zM2,14h5v1h-5v-1zM0,14h1v1h-1v-1zM39,13h2v1h-2v-1zM33,13h4v1h-4v-1zM26,13h4v1h-4v-1zM24,13h1v1h-1v-1zM20,13h3v1h-3v-1zM18,13h1v1h-1v-1zM16,13h1v1h-1v-1zM13,13h2v1h-2v-1zM8,13h4v1h-4v-1zM4,13h2v1h-2v-1zM1,13h1v1h-1v-1zM37,12h2v1h-2v-1zM32,12h1v1h-1v-1zM29,12h1v1h-1v-1zM25,12h2v1h-2v-1zM22,12h1v1h-1v-1zM16,12h2v1h-2v-1zM10,12h4v1h-4v-1zM4,12h3v1h-3v-1zM1,12h1v1h-1v-1zM39,11h1v1h-1v-1zM37,11h1v1h-1v-1zM35,11h1v1h-1v-1zM33,11h1v1h-1v-1zM28,11h1v1h-1v-1zM26,11h1v1h-1v-1zM21,11h4v1h-4v-1zM19,11h1v1h-1v-1zM14,11h2v1h-2v-1zM12,11h1v1h-1v-1zM10,11h1v1h-1v-1zM8,11h1v1h-1v-1zM5,11h1v1h-1v-1zM2,11h2v1h-2v-1zM0,11h1v1h-1v-1zM38,10h2v1h-2v-1zM35,10h2v1h-2v-1zM26,10h5v1h-5v-1zM20,10h3v1h-3v-1zM17,10h2v1h-2v-1zM14,10h2v1h-2v-1zM12,10h1v1h-1v-1zM6,10h5v1h-5v-1zM3,10h1v1h-1v-1zM0,10h1v1h-1v-1zM40,9h1v1h-1v-1zM30,9h8v1h-8v-1zM28,9h1v1h-1v-1zM25,9h1v1h-1v-1zM23,9h1v1h-1v-1zM21,9h1v1h-1v-1zM18,9h2v1h-2v-1zM15,9h2v1h-2v-1zM13,9h1v1h-1v-1zM10,9h1v1h-1v-1zM0,9h4v1h-4v-1zM34,8h5v1h-5v-1zM29,8h1v1h-1v-1zM25,8h1v1h-1v-1zM22,8h1v1h-1v-1zM19,8h1v1h-1v-1zM17,8h1v1h-1v-1zM13,8h2v1h-2v-1zM2,8h5v1h-5v-1zM0,8h1v1h-1v-1zM32,7h1v1h-1v-1zM28,7h1v1h-1v-1zM26,7h1v1h-1v-1zM20,7h2v1h-2v-1zM12,7h5v1h-5v-1zM8,7h1v1h-1v-1zM34,6h7v1h-7v-1zM32,6h1v1h-1v-1zM30,6h1v1h-1v-1zM28,6h1v1h-1v-1zM26,6h1v1h-1v-1zM24,6h1v1h-1v-1zM22,6h1v1h-1v-1zM20,6h1v1h-1v-1zM18,6h1v1h-1v-1zM16,6h1v1h-1v-1zM14,6h1v1h-1v-1zM12,6h1v1h-1v-1zM10,6h1v1h-1v-1zM8,6h1v1h-1v-1zM0,6h7v1h-7v-1zM40,5h1v1h-1v-1zM34,5h1v1h-1v-1zM32,5h1v1h-1v-1zM30,5h1v1h-1v-1zM26,5h2v1h-2v-1zM24,5h1v1h-1v-1zM20,5h3v1h-3v-1zM14,5h3v1h-3v-1zM8,5h3v1h-3v-1zM6,5h1v1h-1v-1zM0,5h1v1h-1v-1zM40,4h1v1h-1v-1zM36,4h3v1h-3v-1zM34,4h1v1h-1v-1zM29,4h4v1h-4v-1zM25,4h2v1h-2v-1zM23,4h1v1h-1v-1zM19,4h3v1h-3v-1zM16,4h2v1h-2v-1zM14,4h1v1h-1v-1zM12,4h1v1h-1v-1zM10,4h1v1h-1v-1zM8,4h1v1h-1v-1zM6,4h1v1h-1v-1zM2,4h3v1h-3v-1zM0,4h1v1h-1v-1zM40,3h1v1h-1v-1zM36,3h3v1h-3v-1zM34,3h1v1h-1v-1zM21,3h3v1h-3v-1zM18,3h1v1h-1v-1zM16,3h1v1h-1v-1zM11,3h3v1h-3v-1zM8,3h2v1h-2v-1zM6,3h1v1h-1v-1zM2,3h3v1h-3v-1zM0,3h1v1h-1v-1zM40,2h1v1h-1v-1zM36,2h3v1h-3v-1zM34,2h1v1h-1v-1zM29,2h3v1h-3v-1zM26,2h2v1h-2v-1zM15,2h1v1h-1v-1zM8,2h4v1h-4v-1zM6,2h1v1h-1v-1zM2,2h3v1h-3v-1zM0,2h1v1h-1v-1zM40,1h1v1h-1v-1zM34,1h1v1h-1v-1zM32,1h1v1h-1v-1zM27,1h3v1h-3v-1zM24,1h1v1h-1v-1zM22,1h1v1h-1v-1zM18,1h1v1h-1v-1zM10,1h2v1h-2v-1zM6,1h1v1h-1v-1zM0,1h1v1h-1v-1zM34,0h7v1h-7v-1zM28,0h4v1h-4v-1zM23,0h1v1h-1v-1zM19,0h1v1h-1v-1zM12,0h4v1h-4v-1zM9,0h1v1h-1v-1zM0,0h7v1h-7v-1z"/></svg>