<svg xmlns="http://www.w3.org/2000/svg" width="256" height="256" shape-rendering="crispEdges" viewBox="0 0 49 49"><path d="M42 44h1v1h-1zm-3 0h1v1h-1zm-2 0h1v1h-1zm-2 0h1v1h-1zm-2 0h1v1h-1zm-7 0h5v1h-5zm-2 0h1v1h-1zm-5 0h3v1h-3zm-7 0h3v1h-3zm-8 0h7v1H4zm39-1h1v1h-1zm-2 0h1v1h-1zm-3 0h1v1h-1zm-2 0h1v1h-1zm-2 0h1v1h-1zm-3 0h1v1h-1zm-7 0h4v1h-4zm-3 0h2v1h-2zm-5 0h4v1h-4zm-3 0h1v1h-1zm-3 0h1v1h-1zm-6 0h1v1H4zm38-1h1v1h-1zm-5 0h4v1h-4zm-8 0h5v1h-5zm-5 0h3v1h-3zm-3 0h2v1h-2zm-2 0h1v1h-1zm-7 0h3v1h-3zm-2 0h1v1h-1zm-4 0h3v1H6zm-2 0h1v1H4zm37-1h2v1h-2zm-9 0h4v1h-4zm-2 0h1v1h-1zm-3 0h1v1h-1zm-4 0h3v1h-3zm-5 0h2v1h-2zm-2 0h1v1h-1zm-4 0h1v1h-1zm-2 0h1v1h-1zm-4 0h3v1H6zm-2 0h1v1H4zm32-1h9v1h-9zm-5 0h1v1h-1zm-9 0h7v1h-7zm-5 0h3v1h-3zm-3 0h1v1h-1zm-2 0h1v1h-1zm-2 0h1v1h-1zm-4 0h3v1H6zm-2 0h1v1H4zm36-1h2v1h-2zm-10 0h7v1h-7zm-7 0h2v1h-2zm-3 0h1v1h-1zm-3 0h2v1h-2zm-5 0h3v1h-3zm-2 0h1v1h-1zm-6 0h1v1H4zm36-1h2v1h-2zm-2 0h1v1h-1zm-3 0h2v1h-2zm-4 0h3v1h-3zm-5 0h1v1h-1zm-2 0h1v1h-1zm-2 0h1v1h-1zm-4 0h2v1h-2zm-3 0h2v1h-2zm-2 0h1v1h-1zm-9 0h7v1H4zm39-1h2v1h-2zm-3 0h2v1h-2zm-4 0h1v1h-1zm-4 0h3v1h-3zm-6 0h2v1h-2zm-3 0h1v1h-1zm-3 0h1v1h-1zm-2 0h1v1h-1zm-3 0h1v1h-1zm-3 0h1v1h-1zm30-1h1v1h-1zm-7 0h6v1h-6zm-4 0h3v1h-3zm-2 0h1v1h-1zm-5 0h4v1h-4zm-3 0h2v1h-2zm-5 0h2v1h-2zM6 36h5v1H6zm-2 0h1v1H4zm35-1h1v1h-1zm-5 0h3v1h-3zm-3 0h1v1h-1zm-4 0h1v1h-1zm-2 0h1v1h-1zm-3 0h1v1h-1zm-2 0h1v1h-1zm-5 0h4v1h-4zm-3 0h1v1h-1zm-6 0h2v1H6zm-2 0h1v1H4zm37-1h1v1h-1zm-2 0h1v1h-1zm-4 0h1v1h-1zm-11 0h9v1h-9zm-4 0h2v1h-2zm-6 0h1v1h-1zm-2 0h1v1h-1zm-2 0h1v1h-1zm-2 0h1v1H8zm-2 0h1v1H6zm-2 0h1v1H4zm39-1h2v1h-2zm-4 0h3v1h-3zm-3 0h2v1h-2zm-2 0h1v1h-1zm-3 0h1v1h-1zm-2 0h1v1h-1zm-4 0h1v1h-1zm-5 0h1v1h-1zm-9 0h1v1h-1zm-7 0h3v1H4zm38-1h2v1h-2zm-5 0h1v1h-1zm-9 0h6v1h-6zm-2 0h1v1h-1zm-2 0h1v1h-1zm-5 0h3v1h-3zm-2 0h1v1h-1zm-5 0h1v1h-1zm-7 0h6v1H5zm38-1h2v1h-2zm-3 0h1v1h-1zm-4 0h1v1h-1zm-2 0h1v1h-1zm-9 0h1v1h-1zm-2 0h1v1h-1zm-3 0h1v1h-1zm-4 0h1v1h-1zm-3 0h1v1h-1zm-5 0h2v1H8zm-3 0h2v1H5zm37-1h2v1h-2zm-4 0h1v1h-1zm-2 0h1v1h-1zm-7 0h4v1h-4zm-8 0h1v1h-1zm-3 0h1v1h-1zm-2 0h1v1h-1zm-3 0h2v1h-2zm-3 0h1v1h-1zm-4 0h1v1H6zm38-1h1v1h-1zm-4 0h1v1h-1zm-6 0h5v1h-5zm-2 0h1v1h-1zm-2 0h1v1h-1zm-9 0h7v1h-7zm-4 0h2v1h-2zm-2 0h1v1h-1zm-3 0h1v1h-1zm-4 0h2v1H8zm-2 0h1v1H6zm-2 0h1v1H4zm38-1h1v1h-1zm-9 0h4v1h-4zm-7 0h5v1h-5zm-2 0h1v1h-1zm-3 0h1v1h-1zm-2 0h1v1h-1zm-3 0h1v1h-1zm-2 0h1v1h-1zm-6 0h3v1H8zm-4 0h1v1H4zm39-1h2v1h-2zm-7 0h2v1h-2zm-4 0h1v1h-1zm-2 0h1v1h-1zm-2 0h1v1h-1zm-3 0h2v1h-2zm-3 0h2v1h-2zm-8 0h7v1h-7zm-3 0h2v1h-2zm-2 0h1v1H9zm-4 0h1v1H5zm35-1h1v1h-1zm-11 0h6v1h-6zm-5 0h3v1h-3zm-4 0h1v1h-1zm-7 0h6v1h-6zm-5 0h3v1H8zm-3 0h2v1H5zm38-1h2v1h-2zm-8 0h7v1h-7zm-3 0h2v1h-2zm-3 0h1v1h-1zm-4 0h3v1h-3zm-5 0h4v1h-4zm-4 0h1v1h-1zm-5 0h4v1h-4zm-4 0h1v1H7zm-3 0h2v1H4zm37-1h3v1h-3zm-2 0h1v1h-1zm-5 0h2v1h-2zm-4 0h2v1h-2zm-5 0h1v1h-1zm-7 0h2v1h-2zm-4 0h1v1h-1zm-4 0h2v1h-2zm33-1h2v1h-2zm-5 0h4v1h-4zm-3 0h2v1h-2zm-7 0h2v1h-2zm-3 0h2v1h-2zm-6 0h4v1h-4zm-3 0h2v1h-2zm-3 0h1v1h-1zm-2 0h1v1h-1zm-2 0h1v1H9zm-4 0h2v1H5zm36-1h1v1h-1zm-3 0h1v1h-1zm-4 0h1v1h-1zm-6 0h5v1h-5zm-4 0h2v1h-2zm-3 0h1v1h-1zm-4 0h3v1h-3zm-7 0h4v1h-4zm-6 0h1v1H4zm40-1h1v1h-1zm-10 0h8v1h-8zm-2 0h1v1h-1zm-3 0h1v1h-1zm-4 0h3v1h-3zm-2 0h1v1h-1zm-2 0h1v1h-1zm-3 0h1v1h-1zm-5 0h3v1h-3zm-2 0h1v1h-1zm-4 0h2v1H7zm37-1h1v1h-1zm-2 0h1v1h-1zm-3 0h1v1h-1zm-3 0h1v1h-1zm-3 0h1v1h-1zm-5 0h3v1h-3zm-2 0h1v1h-1zm-5 0h4v1h-4zm-3 0h1v1h-1zm-9 0h4v1H9zm-5 0h1v1H4zm39-1h1v1h-1zm-3 0h2v1h-2zm-3 0h2v1h-2zm-5 0h1v1h-1zm-2 0h1v1h-1zm-2 0h1v1h-1zm-5 0h4v1h-4zm-5 0h2v1h-2zm-6 0h2v1h-2zm-8 0h1v1H4zm38-1h1v1h-1zm-3 0h1v1h-1zm-3 0h2v1h-2zm-7 0h2v1h-2zm-4 0h1v1h-1zm-2 0h1v1h-1zm-2 0h1v1h-1zm-7 0h4v1h-4zm-8 0h5v1H6zm-2 0h1v1H4zm39-1h2v1h-2zm-6 0h4v1h-4zm-7 0h4v1h-4zm-2 0h1v1h-1zm-4 0h3v1h-3zm-2 0h1v1h-1zm-2 0h1v1h-1zm-3 0h2v1h-2zm-5 0h4v1h-4zm-4 0h2v1H8zm-3 0h1v1H5zm36-1h2v1h-2zm-5 0h1v1h-1zm-3 0h1v1h-1zm-4 0h2v1h-2zm-3 0h1v1h-1zm-6 0h2v1h-2zm-6 0h4v1h-4zm-6 0h3v1H8zm-3 0h1v1H5zm38-1h1v1h-1zm-2 0h1v1h-1zm-2 0h1v1h-1zm-2 0h1v1h-1zm-5 0h1v1h-1zm-2 0h1v1h-1zm-5 0h4v1h-4zm-2 0h1v1h-1zm-5 0h2v1h-2zm-2 0h1v1h-1zm-2 0h1v1h-1zm-2 0h1v1h-1zm-3 0h1v1H9zm-3 0h2v1H6zm-2 0h1v1H4zm38-1h2v1h-2zm-3 0h2v1h-2zm-9 0h5v1h-5zm-6 0h3v1h-3zm-3 0h2v1h-2zm-3 0h2v1h-2zm-2 0h1v1h-1zm-6 0h5v1h-5zm-3 0h1v1H7zm-3 0h1v1H4zm40-1h1v1h-1zm-10 0h8v1h-8zm-2 0h1v1h-1zm-3 0h1v1h-1zm-2 0h1v1h-1zm-2 0h1v1h-1zm-3 0h2v1h-2zm-3 0h2v1h-2zm-2 0h1v1h-1zm-3 0h1v1h-1zM4 13h4v1H4zm34-1h5v1h-5zm-5 0h1v1h-1zm-4 0h1v1h-1zm-3 0h1v1h-1zm-3 0h1v1h-1zm-2 0h1v1h-1zm-4 0h2v1h-2zM6 12h5v1H6zm-2 0h1v1H4zm32-1h1v1h-1zm-4 0h1v1h-1zm-2 0h1v1h-1zm-6 0h2v1h-2zm-8 0h5v1h-5zm-4 0h1v1h-1zm26-1h7v1h-7zm-2 0h1v1h-1zm-2 0h1v1h-1zm-2 0h1v1h-1zm-2 0h1v1h-1zm-2 0h1v1h-1zm-2 0h1v1h-1zm-2 0h1v1h-1zm-2 0h1v1h-1zm-2 0h1v1h-1zm-2 0h1v1h-1zm-2 0h1v1h-1zm-2 0h1v1h-1zm-2 0h1v1h-1zm-8 0h7v1H4zm40-1h1v1h-1zm-6 0h1v1h-1zm-2 0h1v1h-1zm-2 0h1v1h-1zm-4 0h2v1h-2zm-2 0h1v1h-1zm-4 0h3v1h-3zm-6 0h3v1h-3zm-6 0h3v1h-3zm-2 0h1v1h-1zM4 9h1v1H4zm40-1h1v1h-1zm-4 0h3v1h-3zm-2 0h1v1h-1zm-5 0h4v1h-4zm-4 0h2v1h-2zm-2 0h1v1h-1zm-4 0h3v1h-3zm-3 0h2v1h-2zm-2 0h1v1h-1zm-2 0h1v1h-1zm-2 0h1v1h-1zm-2 0h1v1h-1zm-2 0h1v1h-1zM6 8h3v1H6zM4 8h1v1H4zm40-1h1v1h-1zm-4 0h3v1h-3zm-2 0h1v1h-1zM25 7h3v1h-3zm-3 0h1v1h-1zm-2 0h1v1h-1zm-5 0h3v1h-3zm-3 0h2v1h-2zm-2 0h1v1h-1zM6 7h3v1H6zM4 7h1v1H4zm40-1h1v1h-1zm-4 0h3v1h-3zm-2 0h1v1h-1zm-5 0h3v1h-3zm-3 0h2v1h-2zM19 6h1v1h-1zm-7 0h4v1h-4zm-2 0h1v1h-1zM6 6h3v1H6zM4 6h1v1H4zm40-1h1v1h-1zm-6 0h1v1h-1zm-2 0h1v1h-1zm-5 0h3v1h-3zm-3 0h1v1h-1zm-2 0h1v1h-1zm-4 0h1v1h-1zm-8 0h2v1h-2zm-4 0h1v1h-1zM4 5h1v1H4zm34-1h7v1h-7zm-6 0h4v1h-4zm-5 0h1v1h-1zm-4 0h1v1h-1zm-7 0h4v1h-4zm-3 0h1v1h-1zM4 4h7v1H4z"/></svg>