<!--

https://github.com/datalog/qrcode-svg

--><svg viewBox="0 0 37 37" width="256" height="256" fill="#000000" shape-rendering="crispEdges" xmlns="http://www.w3.org/2000/svg" version="1.1"><path transform="matrix(1,0,0,1,4,4)" d="M27,28h1v1h-1v-1zM25,28h1v1h-1v-1zM19,28h5v1h-5v-1zM16,28h1v1h-1v-1zM13,28h2v1h-2v-1zM8,28h1v1h-1v-1zM0,28h7v1h-7v-1zM27,27h1v1h-1v-1zM24,27h2v1h-2v-1zM22,27h1v1h-1v-1zM20,27h1v1h-1v-1zM11,27h1v1h-1v-1zM9,27h1v1h-1v-1zM6,27h1v1h-1v-1zM0,27h1v1h-1v-1zM28,26h1v1h-1v-1zM23,26h1v1h-1v-1zM18,26h3v1h-3v-1zM16,26h1v1h-1v-1zM11,26h2v1h-2v-1zM8,26h2v1h-2v-1zM6,26h1v1h-1v-1zM2,26h3v1h-3v-1zM0,26h1v1h-1v-1zM28,25h1v1h-1v-1zM23,25h4v1h-4v-1zM17,25h4v1h-4v-1zM14,25h2v1h-2v-1zM8,25h4v1h-4v-1zM6,25h1v1h-1v-1zM2,25h3v1h-3v-1zM0,25h1v1h-1v-1zM26,24h2v1h-2v-1zM20,24h5v1h-5v-1zM14,24h5v1h-5v-1zM9,24h2v1h-2v-1zM6,24h1v1h-1v-1zM2,24h3v1h-3v-1zM0,24h1v1h-1v-1zM27,23h2v1h-2v-1zM24,23h1v1h-1v-1zM20,23h1v1h-1v-1zM10,23h2v1h-2v-1zM8,23h1v1h-1v-1zM6,23h1v1h-1v-1zM0,23h1v1h-1v-1zM24,22h4v1h-4v-1zM22,22h1v1h-1v-1zM19,22h2v1h-2v-1zM16,22h1v1h-1v-1zM12,22h2v1h-2v-1zM10,22h1v1h-1v-1zM8,22h1v1h-1v-1zM0,22h7v1h-7v-1zM28,21h1v1h-1v-1zM24,21h2v1h-2v-1zM20,21h1v1h-1v-1zM11,21h4v1h-4v-1zM8,21h2v1h-2v-1zM19,20h10v1h-10v-1zM17,20h1v1h-1v-1zM15,20h1v1h-1v-1zM13,20h1v1h-1v-1zM6,20h4v1h-4v-1zM1,20h2v1h-2v-1zM23,19h6v1h-6v-1zM17,19h5v1h-5v-1zM12,19h1v1h-1v-1zM8,19h2v1h-2v-1zM4,19h2v1h-2v-1zM2,19h1v1h-1v-1zM26,18h1v1h-1v-1zM22,18h3v1h-3v-1zM20,18h1v1h-1v-1zM15,18h3v1h-3v-1zM8,18h4v1h-4v-1zM6,18h1v1h-1v-1zM3,18h2v1h-2v-1zM0,18h1v1h-1v-1zM27,17h1v1h-1v-1zM25,17h1v1h-1v-1zM23,17h1v1h-1v-1zM20,17h1v1h-1v-1zM15,17h4v1h-4v-1zM12,17h2v1h-2v-1zM10,17h1v1h-1v-1zM5,17h1v1h-1v-1zM1,17h3v1h-3v-1zM27,16h1v1h-1v-1zM23,16h3v1h-3v-1zM16,16h6v1h-6v-1zM12,16h1v1h-1v-1zM10,16h1v1h-1v-1zM6,16h1v1h-1v-1zM3,16h1v1h-1v-1zM0,16h2v1h-2v-1zM28,15h1v1h-1v-1zM25,15h1v1h-1v-1zM22,15h1v1h-1v-1zM18,15h3v1h-3v-1zM15,15h1v1h-1v-1zM12,15h2v1h-2v-1zM7,15h3v1h-3v-1zM5,15h1v1h-1v-1zM2,15h1v1h-1v-1zM0,15h1v1h-1v-1zM23,14h6v1h-6v-1zM19,14h3v1h-3v-1zM16,14h1v1h-1v-1zM14,14h1v1h-1v-1zM11,14h1v1h-1v-1zM9,14h1v1h-1v-1zM5,14h3v1h-3v-1zM3,14h1v1h-1v-1zM0,14h1v1h-1v-1zM25,13h4v1h-4v-1zM22,13h2v1h-2v-1zM19,13h1v1h-1v-1zM13,13h1v1h-1v-1zM8,13h3v1h-3v-1zM5,13h1v1h-1v-1zM2,13h2v1h-2v-1zM26,12h1v1h-1v-1zM19,12h1v1h-1v-1zM17,12h1v1h-1v-1zM12,12h1v1h-1v-1zM8,12h1v1h-1v-1zM6,12h1v1h-1v-1zM3,12h1v1h-1v-1zM0,12h2v1h-2v-1zM27,11h1v1h-1v-1zM23,11h2v1h-2v-1zM20,11h2v1h-2v-1zM18,11h1v1h-1v-1zM12,11h4v1h-4v-1zM7,11h1v1h-1v-1zM1,11h5v1h-5v-1zM23,10h2v1h-2v-1zM20,10h1v1h-1v-1zM14,10h2v1h-2v-1zM12,10h1v1h-1v-1zM8,10h1v1h-1v-1zM4,10h3v1h-3v-1zM0,10h2v1h-2v-1zM21,9h8v1h-8v-1zM19,9h1v1h-1v-1zM15,9h2v1h-2v-1zM8,9h1v1h-1v-1zM4,9h1v1h-1v-1zM1,9h1v1h-1v-1zM27,8h2v1h-2v-1zM25,8h1v1h-1v-1zM22,8h1v1h-1v-1zM16,8h3v1h-3v-1zM12,8h3v1h-3v-1zM5,8h3v1h-3v-1zM2,8h2v1h-2v-1zM0,8h1v1h-1v-1zM17,7h3v1h-3v-1zM12,7h3v1h-3v-1zM8,7h1v1h-1v-1zM22,6h7v1h-7v-1zM20,6h1v1h-1v-1zM18,6h1v1h-1v-1zM16,6h1v1h-1v-1zM14,6h1v1h-1v-1zM12,6h1v1h-1v-1zM10,6h1v1h-1v-1zM8,6h1v1h-1v-1zM0,6h7v1h-7v-1zM28,5h1v1h-1v-1zM22,5h1v1h-1v-1zM19,5h2v1h-2v-1zM14,5h1v1h-1v-1zM12,5h1v1h-1v-1zM9,5h2v1h-2v-1zM6,5h1v1h-1v-1zM0,5h1v1h-1v-1zM28,4h1v1h-1v-1zM24,4h3v1h-3v-1zM22,4h1v1h-1v-1zM19,4h1v1h-1v-1zM17,4h1v1h-1v-1zM11,4h3v1h-3v-1zM9,4h1v1h-1v-1zM6,4h1v1h-1v-1zM2,4h3v1h-3v-1zM0,4h1v1h-1v-1zM28,3h1v1h-1v-1zM24,3h3v1h-3v-1zM22,3h1v1h-1v-1zM16,3h2v1h-2v-1zM11,3h1v1h-1v-1zM8,3h2v1h-2v-1zM6,3h1v1h-1v-1zM2,3h3v1h-3v-1zM0,3h1v1h-1v-1zM28,2h1v1h-1v-1zM24,2h3v1h-3v-1zM22,2h1v1h-1v-1zM20,2h1v1h-1v-1zM13,2h3v1h-3v-1zM10,2h2v1h-2v-1zM6,2h1v1h-1v-1zM2,2h3v1h-3v-1zM0,2h1v1h-1v-1zM28,1h1v1h-1v-1zM22,1h1v1h-1v-1zM20,1h1v1h-1v-1zM17,1h2v1h-2v-1zM14,1h2v1h-2v-1zM10,1h1v1h-1v-1zM8,1h1v1h-1v-1zM6,1h1v1h-1v-1zM0,1h1v1h-1v-1zM22,0h7v1h-7v-1zM15,0h6v1h-6v-1zM12,0h1v1h-1v-1zM8,0h3v1h-3v-1zM0,0h7v1h-7v-1z"/></svg>