<svg xmlns="http://www.w3.org/2000/svg" width="256" height="256" shape-rendering="crispEdges" viewBox="0 0 37 37"><path d="M31 32h1v1h-1zm-2 0h1v1h-1zm-6 0h5v1h-5zm-3 0h1v1h-1zm-3 0h2v1h-2zm-5 0h1v1h-1zm-8 0h7v1H4zm27-1h1v1h-1zm-3 0h2v1h-2zm-2 0h1v1h-1zm-2 0h1v1h-1zm-9 0h1v1h-1zm-2 0h1v1h-1zm-3 0h1v1h-1zm-6 0h1v1H4zm28-1h1v1h-1zm-5 0h1v1h-1zm-5 0h3v1h-3zm-2 0h1v1h-1zm-5 0h2v1h-2zm-3 0h2v1h-2zm-2 0h1v1h-1zm-4 0h3v1H6zm-2 0h1v1H4zm28-1h1v1h-1zm-5 0h4v1h-4zm-6 0h4v1h-4zm-3 0h2v1h-2zm-6 0h4v1h-4zm-2 0h1v1h-1zm-4 0h3v1H6zm-2 0h1v1H4zm26-1h2v1h-2zm-6 0h5v1h-5zm-6 0h5v1h-5zm-5 0h2v1h-2zm-3 0h1v1h-1zm-4 0h3v1H6zm-2 0h1v1H4zm27-1h2v1h-2zm-3 0h1v1h-1zm-4 0h1v1h-1zm-10 0h2v1h-2zm-2 0h1v1h-1zm-2 0h1v1h-1zm-6 0h1v1H4zm24-1h4v1h-4zm-2 0h1v1h-1zm-3 0h2v1h-2zm-3 0h1v1h-1zm-4 0h2v1h-2zm-2 0h1v1h-1zm-2 0h1v1h-1zm-8 0h7v1H4zm28-1h1v1h-1zm-4 0h2v1h-2zm-4 0h1v1h-1zm-9 0h4v1h-4zm-3 0h2v1h-2zm11-1h10v1H23zm-2 0h1v1h-1zm-2 0h1v1h-1zm-2 0h1v1h-1zm-7 0h4v1h-4zm-5 0h2v1H5zm22-1h6v1h-6zm-6 0h5v1h-5zm-5 0h1v1h-1zm-4 0h2v1h-2zm-4 0h2v1H8zm-2 0h1v1H6zm24-1h1v1h-1zm-4 0h3v1h-3zm-2 0h1v1h-1zm-5 0h3v1h-3zm-7 0h4v1h-4zm-2 0h1v1h-1zm-3 0h2v1H7zm-3 0h1v1H4zm27-1h1v1h-1zm-2 0h1v1h-1zm-2 0h1v1h-1zm-3 0h1v1h-1zm-5 0h4v1h-4zm-3 0h2v1h-2zm-2 0h1v1h-1zm-5 0h1v1H9zm-4 0h3v1H5zm26-1h1v1h-1zm-4 0h3v1h-3zm-7 0h6v1h-6zm-4 0h1v1h-1zm-2 0h1v1h-1zm-4 0h1v1h-1zm-3 0h1v1H7zm-3 0h2v1H4zm28-1h1v1h-1zm-3 0h1v1h-1zm-3 0h1v1h-1zm-4 0h3v1h-3zm-3 0h1v1h-1zm-3 0h2v1h-2zm-5 0h3v1h-3zm-2 0h1v1H9zm-3 0h1v1H6zm-2 0h1v1H4zm23-1h6v1h-6zm-4 0h3v1h-3zm-3 0h1v1h-1zm-2 0h1v1h-1zm-3 0h1v1h-1zm-2 0h1v1h-1zm-4 0h3v1H9zm-2 0h1v1H7zm-3 0h1v1H4zm25-1h4v1h-4zm-3 0h2v1h-2zm-3 0h1v1h-1zm-6 0h1v1h-1zm-5 0h3v1h-3zm-3 0h1v1H9zm-3 0h2v1H6zm24-1h1v1h-1zm-7 0h1v1h-1zm-2 0h1v1h-1zm-5 0h1v1h-1zm-4 0h1v1h-1zm-2 0h1v1h-1zm-3 0h1v1H7zm-3 0h2v1H4zm27-1h1v1h-1zm-4 0h2v1h-2zm-3 0h2v1h-2zm-2 0h1v1h-1zm-6 0h4v1h-4zm-5 0h1v1h-1zm-6 0h5v1H5zm22-1h2v1h-2zm-3 0h1v1h-1zm-6 0h2v1h-2zm-2 0h1v1h-1zm-4 0h1v1h-1zm-4 0h3v1H8zm-4 0h2v1H4zm21-1h8v1h-8zm-2 0h1v1h-1zm-4 0h2v1h-2zm-7 0h1v1h-1zm-4 0h1v1H8zm-3 0h1v1H5zm26-1h2v1h-2zm-2 0h1v1h-1zm-3 0h1v1h-1zm-6 0h3v1h-3zm-4 0h3v1h-3zm-7 0h3v1H9zm-3 0h2v1H6zm-2 0h1v1H4zm17-1h3v1h-3zm-5 0h3v1h-3zm-4 0h1v1h-1zm14-1h7v1h-7zm-2 0h1v1h-1zm-2 0h1v1h-1zm-2 0h1v1h-1zm-2 0h1v1h-1zm-2 0h1v1h-1zm-2 0h1v1h-1zm-2 0h1v1h-1zm-8 0h7v1H4zm28-1h1v1h-1zm-6 0h1v1h-1zm-3 0h2v1h-2zm-5 0h1v1h-1zm-2 0h1v1h-1zm-3 0h2v1h-2zm-3 0h1v1h-1zM4 9h1v1H4zm28-1h1v1h-1zm-4 0h3v1h-3zm-2 0h1v1h-1zm-3 0h1v1h-1zm-2 0h1v1h-1zm-6 0h3v1h-3zm-2 0h1v1h-1zm-3 0h1v1h-1zM6 8h3v1H6zM4 8h1v1H4zm28-1h1v1h-1zm-4 0h3v1h-3zm-2 0h1v1h-1zm-6 0h2v1h-2zm-5 0h1v1h-1zm-3 0h2v1h-2zm-2 0h1v1h-1zM6 7h3v1H6zM4 7h1v1H4zm28-1h1v1h-1zm-4 0h3v1h-3zm-2 0h1v1h-1zm-2 0h1v1h-1zm-7 0h3v1h-3zm-3 0h2v1h-2zm-4 0h1v1h-1zM6 6h3v1H6zM4 6h1v1H4zm28-1h1v1h-1zm-6 0h1v1h-1zm-2 0h1v1h-1zm-3 0h2v1h-2zm-3 0h2v1h-2zm-4 0h1v1h-1zm-2 0h1v1h-1zm-2 0h1v1h-1zM4 5h1v1H4zm22-1h7v1h-7zm-7 0h6v1h-6zm-3 0h1v1h-1zm-4 0h3v1h-3zM4 4h7v1H4z"/></svg>