<!--

https://github.com/datalog/qrcode-svg

--><svg viewBox="0 0 41 41" width="256" height="256" fill="#000000" shape-rendering="crispEdges" xmlns="http://www.w3.org/2000/svg" version="1.1"><path transform="matrix(1,0,0,1,4,4)" d="M30,32h1v1h-1v-1zM28,32h1v1h-1v-1zM25,32h1v1h-1v-1zM23,32h1v1h-1v-1zM21,32h1v1h-1v-1zM17,32h1v1h-1v-1zM12,32h3v1h-3v-1zM0,32h7v1h-7v-1zM32,31h1v1h-1v-1zM27,31h2v1h-2v-1zM22,31h3v1h-3v-1zM19,31h2v1h-2v-1zM14,31h2v1h-2v-1zM12,31h1v1h-1v-1zM8,31h3v1h-3v-1zM6,31h1v1h-1v-1zM0,31h1v1h-1v-1zM29,30h2v1h-2v-1zM26,30h2v1h-2v-1zM22,30h1v1h-1v-1zM20,30h1v1h-1v-1zM16,30h1v1h-1v-1zM14,30h1v1h-1v-1zM8,30h3v1h-3v-1zM6,30h1v1h-1v-1zM2,30h3v1h-3v-1zM0,30h1v1h-1v-1zM31,29h2v1h-2v-1zM29,29h1v1h-1v-1zM27,29h1v1h-1v-1zM20,29h4v1h-4v-1zM18,29h1v1h-1v-1zM12,29h4v1h-4v-1zM8,29h3v1h-3v-1zM6,29h1v1h-1v-1zM2,29h3v1h-3v-1zM0,29h1v1h-1v-1zM30,28h3v1h-3v-1zM19,28h10v1h-10v-1zM16,28h2v1h-2v-1zM13,28h1v1h-1v-1zM10,28h2v1h-2v-1zM6,28h1v1h-1v-1zM2,28h3v1h-3v-1zM0,28h1v1h-1v-1zM28,27h4v1h-4v-1zM20,27h5v1h-5v-1zM17,27h2v1h-2v-1zM14,27h2v1h-2v-1zM11,27h2v1h-2v-1zM8,27h1v1h-1v-1zM6,27h1v1h-1v-1zM0,27h1v1h-1v-1zM28,26h1v1h-1v-1zM26,26h1v1h-1v-1zM22,26h3v1h-3v-1zM13,26h8v1h-8v-1zM9,26h1v1h-1v-1zM0,26h7v1h-7v-1zM28,25h2v1h-2v-1zM24,25h1v1h-1v-1zM19,25h2v1h-2v-1zM10,25h2v1h-2v-1zM8,25h1v1h-1v-1zM32,24h1v1h-1v-1zM24,24h5v1h-5v-1zM22,24h1v1h-1v-1zM13,24h1v1h-1v-1zM11,24h1v1h-1v-1zM6,24h1v1h-1v-1zM0,24h1v1h-1v-1zM32,23h1v1h-1v-1zM29,23h1v1h-1v-1zM26,23h2v1h-2v-1zM24,23h1v1h-1v-1zM18,23h3v1h-3v-1zM15,23h1v1h-1v-1zM7,23h5v1h-5v-1zM5,23h1v1h-1v-1zM3,23h1v1h-1v-1zM1,23h1v1h-1v-1zM29,22h4v1h-4v-1zM23,22h4v1h-4v-1zM21,22h1v1h-1v-1zM15,22h2v1h-2v-1zM12,22h2v1h-2v-1zM8,22h1v1h-1v-1zM5,22h2v1h-2v-1zM3,22h1v1h-1v-1zM32,21h1v1h-1v-1zM30,21h1v1h-1v-1zM26,21h1v1h-1v-1zM23,21h1v1h-1v-1zM18,21h4v1h-4v-1zM16,21h1v1h-1v-1zM14,21h1v1h-1v-1zM10,21h3v1h-3v-1zM5,21h1v1h-1v-1zM0,21h1v1h-1v-1zM32,20h1v1h-1v-1zM29,20h2v1h-2v-1zM20,20h2v1h-2v-1zM15,20h2v1h-2v-1zM9,20h5v1h-5v-1zM6,20h2v1h-2v-1zM2,20h1v1h-1v-1zM0,20h1v1h-1v-1zM32,19h1v1h-1v-1zM28,19h1v1h-1v-1zM22,19h4v1h-4v-1zM19,19h1v1h-1v-1zM16,19h2v1h-2v-1zM13,19h2v1h-2v-1zM8,19h1v1h-1v-1zM3,19h2v1h-2v-1zM1,19h1v1h-1v-1zM30,18h2v1h-2v-1zM24,18h5v1h-5v-1zM20,18h3v1h-3v-1zM18,18h1v1h-1v-1zM13,18h4v1h-4v-1zM9,18h1v1h-1v-1zM6,18h2v1h-2v-1zM2,18h1v1h-1v-1zM31,17h2v1h-2v-1zM28,17h2v1h-2v-1zM22,17h5v1h-5v-1zM20,17h1v1h-1v-1zM15,17h2v1h-2v-1zM13,17h1v1h-1v-1zM8,17h1v1h-1v-1zM0,17h3v1h-3v-1zM30,16h1v1h-1v-1zM28,16h1v1h-1v-1zM25,16h2v1h-2v-1zM20,16h4v1h-4v-1zM15,16h3v1h-3v-1zM11,16h1v1h-1v-1zM9,16h1v1h-1v-1zM6,16h1v1h-1v-1zM0,16h2v1h-2v-1zM28,15h3v1h-3v-1zM24,15h3v1h-3v-1zM21,15h1v1h-1v-1zM17,15h3v1h-3v-1zM10,15h6v1h-6v-1zM7,15h1v1h-1v-1zM5,15h1v1h-1v-1zM1,15h2v1h-2v-1zM28,14h2v1h-2v-1zM26,14h1v1h-1v-1zM24,14h1v1h-1v-1zM21,14h1v1h-1v-1zM18,14h2v1h-2v-1zM11,14h1v1h-1v-1zM5,14h3v1h-3v-1zM2,14h2v1h-2v-1zM0,14h1v1h-1v-1zM31,13h1v1h-1v-1zM29,13h1v1h-1v-1zM27,13h1v1h-1v-1zM24,13h1v1h-1v-1zM20,13h2v1h-2v-1zM11,13h5v1h-5v-1zM7,13h1v1h-1v-1zM3,13h2v1h-2v-1zM31,12h1v1h-1v-1zM27,12h3v1h-3v-1zM22,12h3v1h-3v-1zM16,12h1v1h-1v-1zM12,12h1v1h-1v-1zM6,12h5v1h-5v-1zM4,12h1v1h-1v-1zM0,12h1v1h-1v-1zM32,11h1v1h-1v-1zM29,11h1v1h-1v-1zM27,11h1v1h-1v-1zM22,11h1v1h-1v-1zM20,11h1v1h-1v-1zM16,11h2v1h-2v-1zM12,11h3v1h-3v-1zM10,11h1v1h-1v-1zM3,11h1v1h-1v-1zM0,11h1v1h-1v-1zM31,10h2v1h-2v-1zM27,10h3v1h-3v-1zM23,10h1v1h-1v-1zM20,10h2v1h-2v-1zM18,10h1v1h-1v-1zM16,10h1v1h-1v-1zM11,10h1v1h-1v-1zM8,10h2v1h-2v-1zM5,10h2v1h-2v-1zM3,10h1v1h-1v-1zM0,10h2v1h-2v-1zM32,9h1v1h-1v-1zM29,9h2v1h-2v-1zM26,9h2v1h-2v-1zM23,9h1v1h-1v-1zM19,9h3v1h-3v-1zM13,9h5v1h-5v-1zM7,9h2v1h-2v-1zM4,9h2v1h-2v-1zM0,9h2v1h-2v-1zM30,8h2v1h-2v-1zM24,8h1v1h-1v-1zM21,8h2v1h-2v-1zM17,8h2v1h-2v-1zM13,8h1v1h-1v-1zM9,8h1v1h-1v-1zM5,8h2v1h-2v-1zM1,8h3v1h-3v-1zM23,7h2v1h-2v-1zM19,7h1v1h-1v-1zM17,7h1v1h-1v-1zM14,7h1v1h-1v-1zM11,7h2v1h-2v-1zM26,6h7v1h-7v-1zM24,6h1v1h-1v-1zM22,6h1v1h-1v-1zM20,6h1v1h-1v-1zM18,6h1v1h-1v-1zM16,6h1v1h-1v-1zM14,6h1v1h-1v-1zM12,6h1v1h-1v-1zM10,6h1v1h-1v-1zM8,6h1v1h-1v-1zM0,6h7v1h-7v-1zM32,5h1v1h-1v-1zM26,5h1v1h-1v-1zM21,5h2v1h-2v-1zM17,5h1v1h-1v-1zM14,5h1v1h-1v-1zM12,5h1v1h-1v-1zM10,5h1v1h-1v-1zM6,5h1v1h-1v-1zM0,5h1v1h-1v-1zM32,4h1v1h-1v-1zM28,4h3v1h-3v-1zM26,4h1v1h-1v-1zM24,4h1v1h-1v-1zM22,4h1v1h-1v-1zM16,4h3v1h-3v-1zM13,4h2v1h-2v-1zM9,4h3v1h-3v-1zM6,4h1v1h-1v-1zM2,4h3v1h-3v-1zM0,4h1v1h-1v-1zM32,3h1v1h-1v-1zM28,3h3v1h-3v-1zM26,3h1v1h-1v-1zM24,3h1v1h-1v-1zM22,3h1v1h-1v-1zM18,3h2v1h-2v-1zM10,3h3v1h-3v-1zM6,3h1v1h-1v-1zM2,3h3v1h-3v-1zM0,3h1v1h-1v-1zM32,2h1v1h-1v-1zM28,2h3v1h-3v-1zM26,2h1v1h-1v-1zM24,2h1v1h-1v-1zM22,2h1v1h-1v-1zM18,2h3v1h-3v-1zM16,2h1v1h-1v-1zM14,2h1v1h-1v-1zM8,2h5v1h-5v-1zM6,2h1v1h-1v-1zM2,2h3v1h-3v-1zM0,2h1v1h-1v-1zM32,1h1v1h-1v-1zM26,1h1v1h-1v-1zM23,1h2v1h-2v-1zM20,1h2v1h-2v-1zM17,1h1v1h-1v-1zM15,1h1v1h-1v-1zM11,1h3v1h-3v-1zM8,1h2v1h-2v-1zM6,1h1v1h-1v-1zM0,1h1v1h-1v-1zM26,0h7v1h-7v-1zM23,0h1v1h-1v-1zM18,0h4v1h-4v-1zM11,0h4v1h-4v-1zM9,0h1v1h-1v-1zM0,0h7v1h-7v-1z"/></svg>