<!--

https://github.com/datalog/qrcode-svg

--><svg viewBox="0 0 37 37" width="256" height="256" fill="#000000" shape-rendering="crispEdges" xmlns="http://www.w3.org/2000/svg" version="1.1"><path transform="matrix(1,0,0,1,4,4)" d="M27,28h1v1h-1v-1zM20,28h6v1h-6v-1zM17,28h1v1h-1v-1zM15,28h1v1h-1v-1zM13,28h1v1h-1v-1zM8,28h4v1h-4v-1zM0,28h7v1h-7v-1zM27,27h1v1h-1v-1zM24,27h1v1h-1v-1zM19,27h3v1h-3v-1zM17,27h1v1h-1v-1zM15,27h1v1h-1v-1zM10,27h1v1h-1v-1zM6,27h1v1h-1v-1zM0,27h1v1h-1v-1zM28,26h1v1h-1v-1zM24,26h3v1h-3v-1zM17,26h4v1h-4v-1zM9,26h6v1h-6v-1zM6,26h1v1h-1v-1zM2,26h3v1h-3v-1zM0,26h1v1h-1v-1zM22,25h6v1h-6v-1zM17,25h4v1h-4v-1zM14,25h1v1h-1v-1zM10,25h3v1h-3v-1zM8,25h1v1h-1v-1zM6,25h1v1h-1v-1zM2,25h3v1h-3v-1zM0,25h1v1h-1v-1zM20,24h5v1h-5v-1zM14,24h4v1h-4v-1zM11,24h2v1h-2v-1zM9,24h1v1h-1v-1zM6,24h1v1h-1v-1zM2,24h3v1h-3v-1zM0,24h1v1h-1v-1zM24,23h4v1h-4v-1zM20,23h1v1h-1v-1zM18,23h1v1h-1v-1zM16,23h1v1h-1v-1zM10,23h4v1h-4v-1zM8,23h1v1h-1v-1zM6,23h1v1h-1v-1zM0,23h1v1h-1v-1zM27,22h1v1h-1v-1zM24,22h1v1h-1v-1zM22,22h1v1h-1v-1zM20,22h1v1h-1v-1zM13,22h2v1h-2v-1zM9,22h3v1h-3v-1zM0,22h7v1h-7v-1zM26,21h3v1h-3v-1zM24,21h1v1h-1v-1zM19,21h2v1h-2v-1zM16,21h2v1h-2v-1zM8,21h6v1h-6v-1zM26,20h1v1h-1v-1zM19,20h6v1h-6v-1zM14,20h1v1h-1v-1zM9,20h4v1h-4v-1zM6,20h1v1h-1v-1zM3,20h1v1h-1v-1zM0,20h1v1h-1v-1zM27,19h2v1h-2v-1zM23,19h2v1h-2v-1zM20,19h2v1h-2v-1zM17,19h1v1h-1v-1zM15,19h1v1h-1v-1zM11,19h3v1h-3v-1zM7,19h1v1h-1v-1zM2,19h4v1h-4v-1zM27,18h2v1h-2v-1zM23,18h2v1h-2v-1zM21,18h1v1h-1v-1zM16,18h2v1h-2v-1zM13,18h1v1h-1v-1zM9,18h1v1h-1v-1zM5,18h3v1h-3v-1zM2,18h2v1h-2v-1zM0,18h1v1h-1v-1zM28,17h1v1h-1v-1zM25,17h1v1h-1v-1zM20,17h4v1h-4v-1zM16,17h2v1h-2v-1zM14,17h1v1h-1v-1zM9,17h2v1h-2v-1zM7,17h1v1h-1v-1zM4,17h1v1h-1v-1zM2,17h1v1h-1v-1zM27,16h1v1h-1v-1zM23,16h1v1h-1v-1zM20,16h1v1h-1v-1zM17,16h1v1h-1v-1zM12,16h4v1h-4v-1zM4,16h3v1h-3v-1zM1,16h1v1h-1v-1zM27,15h1v1h-1v-1zM25,15h1v1h-1v-1zM20,15h3v1h-3v-1zM16,15h3v1h-3v-1zM13,15h1v1h-1v-1zM10,15h2v1h-2v-1zM7,15h2v1h-2v-1zM4,15h2v1h-2v-1zM0,15h2v1h-2v-1zM22,14h7v1h-7v-1zM20,14h1v1h-1v-1zM17,14h2v1h-2v-1zM12,14h3v1h-3v-1zM5,14h2v1h-2v-1zM2,14h1v1h-1v-1zM19,13h3v1h-3v-1zM16,13h2v1h-2v-1zM13,13h1v1h-1v-1zM7,13h5v1h-5v-1zM4,13h1v1h-1v-1zM1,13h1v1h-1v-1zM27,12h2v1h-2v-1zM25,12h1v1h-1v-1zM19,12h4v1h-4v-1zM15,12h3v1h-3v-1zM12,12h2v1h-2v-1zM10,12h1v1h-1v-1zM5,12h4v1h-4v-1zM2,12h1v1h-1v-1zM26,11h2v1h-2v-1zM24,11h1v1h-1v-1zM19,11h1v1h-1v-1zM16,11h1v1h-1v-1zM10,11h4v1h-4v-1zM8,11h1v1h-1v-1zM2,11h4v1h-4v-1zM0,11h1v1h-1v-1zM24,10h4v1h-4v-1zM18,10h4v1h-4v-1zM16,10h1v1h-1v-1zM12,10h3v1h-3v-1zM5,10h5v1h-5v-1zM2,10h1v1h-1v-1zM0,10h1v1h-1v-1zM28,9h1v1h-1v-1zM25,9h1v1h-1v-1zM22,9h1v1h-1v-1zM20,9h1v1h-1v-1zM16,9h3v1h-3v-1zM12,9h2v1h-2v-1zM7,9h3v1h-3v-1zM5,9h1v1h-1v-1zM2,9h2v1h-2v-1zM23,8h1v1h-1v-1zM20,8h2v1h-2v-1zM12,8h3v1h-3v-1zM8,8h1v1h-1v-1zM5,8h2v1h-2v-1zM3,8h1v1h-1v-1zM0,8h1v1h-1v-1zM20,7h1v1h-1v-1zM14,7h5v1h-5v-1zM9,7h4v1h-4v-1zM22,6h7v1h-7v-1zM20,6h1v1h-1v-1zM18,6h1v1h-1v-1zM16,6h1v1h-1v-1zM14,6h1v1h-1v-1zM12,6h1v1h-1v-1zM10,6h1v1h-1v-1zM8,6h1v1h-1v-1zM0,6h7v1h-7v-1zM28,5h1v1h-1v-1zM22,5h1v1h-1v-1zM17,5h3v1h-3v-1zM15,5h1v1h-1v-1zM11,5h3v1h-3v-1zM8,5h2v1h-2v-1zM6,5h1v1h-1v-1zM0,5h1v1h-1v-1zM28,4h1v1h-1v-1zM24,4h3v1h-3v-1zM22,4h1v1h-1v-1zM14,4h5v1h-5v-1zM12,4h1v1h-1v-1zM9,4h2v1h-2v-1zM6,4h1v1h-1v-1zM2,4h3v1h-3v-1zM0,4h1v1h-1v-1zM28,3h1v1h-1v-1zM24,3h3v1h-3v-1zM22,3h1v1h-1v-1zM18,3h2v1h-2v-1zM14,3h2v1h-2v-1zM12,3h1v1h-1v-1zM10,3h1v1h-1v-1zM6,3h1v1h-1v-1zM2,3h3v1h-3v-1zM0,3h1v1h-1v-1zM28,2h1v1h-1v-1zM24,2h3v1h-3v-1zM22,2h1v1h-1v-1zM19,2h1v1h-1v-1zM16,2h2v1h-2v-1zM14,2h1v1h-1v-1zM12,2h1v1h-1v-1zM9,2h2v1h-2v-1zM6,2h1v1h-1v-1zM2,2h3v1h-3v-1zM0,2h1v1h-1v-1zM28,1h1v1h-1v-1zM22,1h1v1h-1v-1zM20,1h1v1h-1v-1zM17,1h1v1h-1v-1zM15,1h1v1h-1v-1zM13,1h1v1h-1v-1zM9,1h1v1h-1v-1zM6,1h1v1h-1v-1zM0,1h1v1h-1v-1zM22,0h7v1h-7v-1zM17,0h3v1h-3v-1zM14,0h2v1h-2v-1zM10,0h2v1h-2v-1zM0,0h7v1h-7v-1z"/></svg>