<!--

https://github.com/datalog/qrcode-svg

--><svg viewBox="0 0 45 45" width="256" height="256" fill="#000000" shape-rendering="crispEdges" xmlns="http://www.w3.org/2000/svg" version="1.1"><path transform="matrix(1,0,0,1,4,4)" d="M34,36h3v1h-3v-1zM30,36h1v1h-1v-1zM27,36h1v1h-1v-1zM22,36h4v1h-4v-1zM19,36h2v1h-2v-1zM17,36h1v1h-1v-1zM13,36h1v1h-1v-1zM8,36h1v1h-1v-1zM0,36h7v1h-7v-1zM36,35h1v1h-1v-1zM32,35h1v1h-1v-1zM26,35h5v1h-5v-1zM24,35h1v1h-1v-1zM18,35h5v1h-5v-1zM16,35h1v1h-1v-1zM11,35h2v1h-2v-1zM6,35h1v1h-1v-1zM0,35h1v1h-1v-1zM35,34h2v1h-2v-1zM31,34h1v1h-1v-1zM28,34h1v1h-1v-1zM26,34h1v1h-1v-1zM21,34h2v1h-2v-1zM18,34h1v1h-1v-1zM12,34h4v1h-4v-1zM8,34h3v1h-3v-1zM6,34h1v1h-1v-1zM2,34h3v1h-3v-1zM0,34h1v1h-1v-1zM34,33h3v1h-3v-1zM32,33h1v1h-1v-1zM30,33h1v1h-1v-1zM27,33h2v1h-2v-1zM23,33h1v1h-1v-1zM20,33h2v1h-2v-1zM16,33h3v1h-3v-1zM13,33h1v1h-1v-1zM11,33h1v1h-1v-1zM8,33h1v1h-1v-1zM6,33h1v1h-1v-1zM2,33h3v1h-3v-1zM0,33h1v1h-1v-1zM34,32h3v1h-3v-1zM22,32h11v1h-11v-1zM20,32h1v1h-1v-1zM17,32h2v1h-2v-1zM8,32h7v1h-7v-1zM6,32h1v1h-1v-1zM2,32h3v1h-3v-1zM0,32h1v1h-1v-1zM35,31h1v1h-1v-1zM32,31h1v1h-1v-1zM28,31h1v1h-1v-1zM26,31h1v1h-1v-1zM21,31h2v1h-2v-1zM19,31h1v1h-1v-1zM16,31h1v1h-1v-1zM10,31h5v1h-5v-1zM8,31h1v1h-1v-1zM6,31h1v1h-1v-1zM0,31h1v1h-1v-1zM32,30h5v1h-5v-1zM30,30h1v1h-1v-1zM28,30h1v1h-1v-1zM25,30h1v1h-1v-1zM21,30h1v1h-1v-1zM18,30h1v1h-1v-1zM13,30h4v1h-4v-1zM10,30h2v1h-2v-1zM0,30h7v1h-7v-1zM32,29h1v1h-1v-1zM27,29h2v1h-2v-1zM23,29h1v1h-1v-1zM16,29h6v1h-6v-1zM11,29h2v1h-2v-1zM8,29h1v1h-1v-1zM28,28h9v1h-9v-1zM25,28h2v1h-2v-1zM22,28h1v1h-1v-1zM19,28h2v1h-2v-1zM16,28h2v1h-2v-1zM14,28h1v1h-1v-1zM12,28h1v1h-1v-1zM10,28h1v1h-1v-1zM8,28h1v1h-1v-1zM6,28h1v1h-1v-1zM2,28h1v1h-1v-1zM0,28h1v1h-1v-1zM36,27h1v1h-1v-1zM33,27h1v1h-1v-1zM26,27h4v1h-4v-1zM23,27h1v1h-1v-1zM19,27h3v1h-3v-1zM14,27h2v1h-2v-1zM8,27h5v1h-5v-1zM2,27h3v1h-3v-1zM0,27h1v1h-1v-1zM31,26h6v1h-6v-1zM26,26h3v1h-3v-1zM24,26h1v1h-1v-1zM22,26h1v1h-1v-1zM20,26h1v1h-1v-1zM17,26h2v1h-2v-1zM15,26h1v1h-1v-1zM8,26h5v1h-5v-1zM6,26h1v1h-1v-1zM4,26h1v1h-1v-1zM0,26h1v1h-1v-1zM34,25h2v1h-2v-1zM31,25h1v1h-1v-1zM28,25h2v1h-2v-1zM23,25h1v1h-1v-1zM21,25h1v1h-1v-1zM19,25h1v1h-1v-1zM16,25h1v1h-1v-1zM13,25h2v1h-2v-1zM10,25h1v1h-1v-1zM0,25h3v1h-3v-1zM24,24h12v1h-12v-1zM22,24h1v1h-1v-1zM20,24h1v1h-1v-1zM13,24h6v1h-6v-1zM5,24h2v1h-2v-1zM1,24h3v1h-3v-1zM35,23h1v1h-1v-1zM29,23h3v1h-3v-1zM26,23h1v1h-1v-1zM24,23h1v1h-1v-1zM20,23h3v1h-3v-1zM15,23h2v1h-2v-1zM13,23h1v1h-1v-1zM11,23h1v1h-1v-1zM7,23h1v1h-1v-1zM0,23h1v1h-1v-1zM33,22h4v1h-4v-1zM27,22h5v1h-5v-1zM24,22h1v1h-1v-1zM21,22h2v1h-2v-1zM17,22h2v1h-2v-1zM14,22h2v1h-2v-1zM10,22h1v1h-1v-1zM8,22h1v1h-1v-1zM5,22h2v1h-2v-1zM2,22h1v1h-1v-1zM0,22h1v1h-1v-1zM34,21h1v1h-1v-1zM31,21h1v1h-1v-1zM28,21h1v1h-1v-1zM19,21h5v1h-5v-1zM12,21h1v1h-1v-1zM10,21h1v1h-1v-1zM8,21h1v1h-1v-1zM3,21h1v1h-1v-1zM32,20h5v1h-5v-1zM29,20h2v1h-2v-1zM22,20h6v1h-6v-1zM19,20h1v1h-1v-1zM17,20h1v1h-1v-1zM15,20h1v1h-1v-1zM12,20h2v1h-2v-1zM10,20h1v1h-1v-1zM4,20h4v1h-4v-1zM0,20h1v1h-1v-1zM35,19h1v1h-1v-1zM29,19h3v1h-3v-1zM24,19h1v1h-1v-1zM21,19h2v1h-2v-1zM15,19h2v1h-2v-1zM13,19h1v1h-1v-1zM9,19h1v1h-1v-1zM3,19h2v1h-2v-1zM0,19h2v1h-2v-1zM35,18h2v1h-2v-1zM31,18h1v1h-1v-1zM27,18h2v1h-2v-1zM25,18h1v1h-1v-1zM22,18h1v1h-1v-1zM20,18h1v1h-1v-1zM14,18h2v1h-2v-1zM10,18h1v1h-1v-1zM8,18h1v1h-1v-1zM4,18h3v1h-3v-1zM1,18h1v1h-1v-1zM35,17h1v1h-1v-1zM31,17h1v1h-1v-1zM28,17h1v1h-1v-1zM23,17h1v1h-1v-1zM19,17h1v1h-1v-1zM16,17h2v1h-2v-1zM10,17h3v1h-3v-1zM7,17h2v1h-2v-1zM3,17h1v1h-1v-1zM1,17h1v1h-1v-1zM32,16h4v1h-4v-1zM29,16h2v1h-2v-1zM22,16h5v1h-5v-1zM17,16h4v1h-4v-1zM12,16h2v1h-2v-1zM10,16h1v1h-1v-1zM1,16h7v1h-7v-1zM36,15h1v1h-1v-1zM33,15h1v1h-1v-1zM31,15h1v1h-1v-1zM28,15h2v1h-2v-1zM24,15h1v1h-1v-1zM21,15h2v1h-2v-1zM18,15h1v1h-1v-1zM12,15h5v1h-5v-1zM9,15h2v1h-2v-1zM7,15h1v1h-1v-1zM5,15h1v1h-1v-1zM0,15h1v1h-1v-1zM34,14h3v1h-3v-1zM30,14h2v1h-2v-1zM27,14h2v1h-2v-1zM24,14h1v1h-1v-1zM20,14h1v1h-1v-1zM18,14h1v1h-1v-1zM15,14h2v1h-2v-1zM11,14h1v1h-1v-1zM9,14h1v1h-1v-1zM4,14h4v1h-4v-1zM0,14h1v1h-1v-1zM31,13h1v1h-1v-1zM28,13h1v1h-1v-1zM26,13h1v1h-1v-1zM23,13h1v1h-1v-1zM16,13h6v1h-6v-1zM12,13h3v1h-3v-1zM10,13h1v1h-1v-1zM5,13h1v1h-1v-1zM1,13h2v1h-2v-1zM29,12h8v1h-8v-1zM24,12h3v1h-3v-1zM17,12h2v1h-2v-1zM11,12h3v1h-3v-1zM8,12h1v1h-1v-1zM4,12h3v1h-3v-1zM1,12h2v1h-2v-1zM35,11h1v1h-1v-1zM30,11h3v1h-3v-1zM21,11h4v1h-4v-1zM18,11h1v1h-1v-1zM14,11h3v1h-3v-1zM12,11h1v1h-1v-1zM7,11h4v1h-4v-1zM2,11h1v1h-1v-1zM0,11h1v1h-1v-1zM35,10h2v1h-2v-1zM32,10h2v1h-2v-1zM30,10h1v1h-1v-1zM25,10h4v1h-4v-1zM22,10h1v1h-1v-1zM13,10h4v1h-4v-1zM4,10h7v1h-7v-1zM0,10h1v1h-1v-1zM35,9h1v1h-1v-1zM31,9h1v1h-1v-1zM28,9h2v1h-2v-1zM26,9h1v1h-1v-1zM23,9h2v1h-2v-1zM19,9h1v1h-1v-1zM17,9h1v1h-1v-1zM15,9h1v1h-1v-1zM7,9h4v1h-4v-1zM0,9h5v1h-5v-1zM30,8h5v1h-5v-1zM28,8h1v1h-1v-1zM22,8h5v1h-5v-1zM20,8h1v1h-1v-1zM17,8h2v1h-2v-1zM15,8h1v1h-1v-1zM13,8h1v1h-1v-1zM10,8h1v1h-1v-1zM2,8h5v1h-5v-1zM0,8h1v1h-1v-1zM26,7h3v1h-3v-1zM21,7h3v1h-3v-1zM18,7h2v1h-2v-1zM14,7h2v1h-2v-1zM8,7h4v1h-4v-1zM30,6h7v1h-7v-1zM28,6h1v1h-1v-1zM26,6h1v1h-1v-1zM24,6h1v1h-1v-1zM22,6h1v1h-1v-1zM20,6h1v1h-1v-1zM18,6h1v1h-1v-1zM16,6h1v1h-1v-1zM14,6h1v1h-1v-1zM12,6h1v1h-1v-1zM10,6h1v1h-1v-1zM8,6h1v1h-1v-1zM0,6h7v1h-7v-1zM36,5h1v1h-1v-1zM30,5h1v1h-1v-1zM26,5h3v1h-3v-1zM22,5h1v1h-1v-1zM20,5h1v1h-1v-1zM16,5h2v1h-2v-1zM14,5h1v1h-1v-1zM8,5h1v1h-1v-1zM6,5h1v1h-1v-1zM0,5h1v1h-1v-1zM36,4h1v1h-1v-1zM32,4h3v1h-3v-1zM30,4h1v1h-1v-1zM25,4h1v1h-1v-1zM23,4h1v1h-1v-1zM18,4h3v1h-3v-1zM13,4h1v1h-1v-1zM11,4h1v1h-1v-1zM8,4h1v1h-1v-1zM6,4h1v1h-1v-1zM2,4h3v1h-3v-1zM0,4h1v1h-1v-1zM36,3h1v1h-1v-1zM32,3h3v1h-3v-1zM30,3h1v1h-1v-1zM25,3h2v1h-2v-1zM22,3h2v1h-2v-1zM17,3h1v1h-1v-1zM13,3h1v1h-1v-1zM10,3h1v1h-1v-1zM8,3h1v1h-1v-1zM6,3h1v1h-1v-1zM2,3h3v1h-3v-1zM0,3h1v1h-1v-1zM36,2h1v1h-1v-1zM32,2h3v1h-3v-1zM30,2h1v1h-1v-1zM26,2h2v1h-2v-1zM19,2h3v1h-3v-1zM14,2h2v1h-2v-1zM10,2h2v1h-2v-1zM8,2h1v1h-1v-1zM6,2h1v1h-1v-1zM2,2h3v1h-3v-1zM0,2h1v1h-1v-1zM36,1h1v1h-1v-1zM30,1h1v1h-1v-1zM25,1h4v1h-4v-1zM20,1h3v1h-3v-1zM18,1h1v1h-1v-1zM16,1h1v1h-1v-1zM10,1h1v1h-1v-1zM6,1h1v1h-1v-1zM0,1h1v1h-1v-1zM30,0h7v1h-7v-1zM25,0h1v1h-1v-1zM23,0h1v1h-1v-1zM21,0h1v1h-1v-1zM19,0h1v1h-1v-1zM15,0h2v1h-2v-1zM9,0h5v1h-5v-1zM0,0h7v1h-7v-1z"/></svg>