<!--

https://github.com/datalog/qrcode-svg

--><svg viewBox="0 0 41 41" width="256" height="256" fill="#000000" shape-rendering="crispEdges" xmlns="http://www.w3.org/2000/svg" version="1.1"><path transform="matrix(1,0,0,1,4,4)" d="M31,32h1v1h-1v-1zM27,32h1v1h-1v-1zM24,32h1v1h-1v-1zM22,32h1v1h-1v-1zM19,32h1v1h-1v-1zM17,32h1v1h-1v-1zM14,32h1v1h-1v-1zM12,32h1v1h-1v-1zM8,32h3v1h-3v-1zM0,32h7v1h-7v-1zM28,31h3v1h-3v-1zM25,31h1v1h-1v-1zM19,31h4v1h-4v-1zM16,31h1v1h-1v-1zM13,31h2v1h-2v-1zM9,31h2v1h-2v-1zM6,31h1v1h-1v-1zM0,31h1v1h-1v-1zM29,30h1v1h-1v-1zM26,30h2v1h-2v-1zM22,30h1v1h-1v-1zM19,30h1v1h-1v-1zM17,30h1v1h-1v-1zM12,30h3v1h-3v-1zM8,30h1v1h-1v-1zM6,30h1v1h-1v-1zM2,30h3v1h-3v-1zM0,30h1v1h-1v-1zM30,29h3v1h-3v-1zM28,29h1v1h-1v-1zM23,29h3v1h-3v-1zM20,29h1v1h-1v-1zM14,29h3v1h-3v-1zM12,29h1v1h-1v-1zM10,29h1v1h-1v-1zM8,29h1v1h-1v-1zM6,29h1v1h-1v-1zM2,29h3v1h-3v-1zM0,29h1v1h-1v-1zM31,28h2v1h-2v-1zM24,28h6v1h-6v-1zM21,28h1v1h-1v-1zM18,28h2v1h-2v-1zM14,28h1v1h-1v-1zM12,28h1v1h-1v-1zM8,28h2v1h-2v-1zM6,28h1v1h-1v-1zM2,28h3v1h-3v-1zM0,28h1v1h-1v-1zM28,27h5v1h-5v-1zM20,27h5v1h-5v-1zM16,27h1v1h-1v-1zM13,27h1v1h-1v-1zM10,27h1v1h-1v-1zM8,27h1v1h-1v-1zM6,27h1v1h-1v-1zM0,27h1v1h-1v-1zM30,26h2v1h-2v-1zM28,26h1v1h-1v-1zM26,26h1v1h-1v-1zM23,26h2v1h-2v-1zM20,26h1v1h-1v-1zM18,26h1v1h-1v-1zM12,26h5v1h-5v-1zM0,26h7v1h-7v-1zM32,25h1v1h-1v-1zM30,25h1v1h-1v-1zM28,25h1v1h-1v-1zM23,25h2v1h-2v-1zM21,25h1v1h-1v-1zM18,25h2v1h-2v-1zM16,25h1v1h-1v-1zM13,25h2v1h-2v-1zM8,25h2v1h-2v-1zM22,24h8v1h-8v-1zM15,24h3v1h-3v-1zM11,24h3v1h-3v-1zM9,24h1v1h-1v-1zM6,24h2v1h-2v-1zM2,24h2v1h-2v-1zM0,24h1v1h-1v-1zM29,23h2v1h-2v-1zM25,23h3v1h-3v-1zM21,23h2v1h-2v-1zM14,23h2v1h-2v-1zM11,23h1v1h-1v-1zM7,23h2v1h-2v-1zM5,23h1v1h-1v-1zM2,23h2v1h-2v-1zM0,23h1v1h-1v-1zM28,22h4v1h-4v-1zM25,22h1v1h-1v-1zM20,22h1v1h-1v-1zM13,22h6v1h-6v-1zM11,22h1v1h-1v-1zM6,22h4v1h-4v-1zM2,22h2v1h-2v-1zM0,22h1v1h-1v-1zM32,21h1v1h-1v-1zM30,21h1v1h-1v-1zM25,21h2v1h-2v-1zM21,21h3v1h-3v-1zM18,21h1v1h-1v-1zM14,21h2v1h-2v-1zM10,21h2v1h-2v-1zM8,21h1v1h-1v-1zM0,21h1v1h-1v-1zM32,20h1v1h-1v-1zM28,20h2v1h-2v-1zM25,20h1v1h-1v-1zM22,20h1v1h-1v-1zM19,20h2v1h-2v-1zM15,20h2v1h-2v-1zM13,20h1v1h-1v-1zM8,20h1v1h-1v-1zM3,20h4v1h-4v-1zM0,20h2v1h-2v-1zM32,19h1v1h-1v-1zM27,19h4v1h-4v-1zM17,19h6v1h-6v-1zM14,19h1v1h-1v-1zM12,19h1v1h-1v-1zM4,19h2v1h-2v-1zM0,19h2v1h-2v-1zM30,18h2v1h-2v-1zM27,18h2v1h-2v-1zM24,18h1v1h-1v-1zM20,18h2v1h-2v-1zM17,18h1v1h-1v-1zM14,18h2v1h-2v-1zM12,18h1v1h-1v-1zM6,18h5v1h-5v-1zM3,18h2v1h-2v-1zM0,18h1v1h-1v-1zM32,17h1v1h-1v-1zM29,17h2v1h-2v-1zM26,17h2v1h-2v-1zM23,17h1v1h-1v-1zM19,17h2v1h-2v-1zM16,17h2v1h-2v-1zM12,17h3v1h-3v-1zM7,17h4v1h-4v-1zM4,17h1v1h-1v-1zM0,17h2v1h-2v-1zM32,16h1v1h-1v-1zM27,16h2v1h-2v-1zM24,16h2v1h-2v-1zM22,16h1v1h-1v-1zM19,16h1v1h-1v-1zM17,16h1v1h-1v-1zM12,16h3v1h-3v-1zM9,16h2v1h-2v-1zM6,16h2v1h-2v-1zM1,16h2v1h-2v-1zM29,15h2v1h-2v-1zM25,15h3v1h-3v-1zM19,15h3v1h-3v-1zM16,15h1v1h-1v-1zM12,15h3v1h-3v-1zM10,15h1v1h-1v-1zM4,15h2v1h-2v-1zM1,15h2v1h-2v-1zM31,14h1v1h-1v-1zM24,14h5v1h-5v-1zM22,14h1v1h-1v-1zM19,14h1v1h-1v-1zM12,14h3v1h-3v-1zM10,14h1v1h-1v-1zM2,14h6v1h-6v-1zM0,14h1v1h-1v-1zM29,13h4v1h-4v-1zM25,13h2v1h-2v-1zM23,13h1v1h-1v-1zM20,13h1v1h-1v-1zM11,13h6v1h-6v-1zM7,13h3v1h-3v-1zM4,13h1v1h-1v-1zM1,13h2v1h-2v-1zM27,12h3v1h-3v-1zM22,12h4v1h-4v-1zM18,12h2v1h-2v-1zM15,12h1v1h-1v-1zM12,12h1v1h-1v-1zM9,12h2v1h-2v-1zM3,12h4v1h-4v-1zM0,12h2v1h-2v-1zM28,11h4v1h-4v-1zM24,11h2v1h-2v-1zM21,11h1v1h-1v-1zM19,11h1v1h-1v-1zM14,11h3v1h-3v-1zM10,11h3v1h-3v-1zM1,11h5v1h-5v-1zM30,10h2v1h-2v-1zM28,10h1v1h-1v-1zM26,10h1v1h-1v-1zM24,10h1v1h-1v-1zM18,10h1v1h-1v-1zM15,10h1v1h-1v-1zM6,10h5v1h-5v-1zM2,10h2v1h-2v-1zM0,10h1v1h-1v-1zM29,9h4v1h-4v-1zM26,9h2v1h-2v-1zM23,9h1v1h-1v-1zM18,9h4v1h-4v-1zM16,9h1v1h-1v-1zM10,9h3v1h-3v-1zM7,9h1v1h-1v-1zM4,9h1v1h-1v-1zM0,9h2v1h-2v-1zM26,8h5v1h-5v-1zM17,8h1v1h-1v-1zM15,8h1v1h-1v-1zM11,8h3v1h-3v-1zM9,8h1v1h-1v-1zM2,8h5v1h-5v-1zM0,8h1v1h-1v-1zM21,7h1v1h-1v-1zM15,7h1v1h-1v-1zM12,7h1v1h-1v-1zM10,7h1v1h-1v-1zM8,7h1v1h-1v-1zM26,6h7v1h-7v-1zM24,6h1v1h-1v-1zM22,6h1v1h-1v-1zM20,6h1v1h-1v-1zM18,6h1v1h-1v-1zM16,6h1v1h-1v-1zM14,6h1v1h-1v-1zM12,6h1v1h-1v-1zM10,6h1v1h-1v-1zM8,6h1v1h-1v-1zM0,6h7v1h-7v-1zM32,5h1v1h-1v-1zM26,5h1v1h-1v-1zM20,5h1v1h-1v-1zM12,5h7v1h-7v-1zM10,5h1v1h-1v-1zM8,5h1v1h-1v-1zM6,5h1v1h-1v-1zM0,5h1v1h-1v-1zM32,4h1v1h-1v-1zM28,4h3v1h-3v-1zM26,4h1v1h-1v-1zM21,4h3v1h-3v-1zM17,4h2v1h-2v-1zM15,4h1v1h-1v-1zM11,4h3v1h-3v-1zM8,4h2v1h-2v-1zM6,4h1v1h-1v-1zM2,4h3v1h-3v-1zM0,4h1v1h-1v-1zM32,3h1v1h-1v-1zM28,3h3v1h-3v-1zM26,3h1v1h-1v-1zM22,3h1v1h-1v-1zM20,3h1v1h-1v-1zM16,3h1v1h-1v-1zM14,3h1v1h-1v-1zM8,3h2v1h-2v-1zM6,3h1v1h-1v-1zM2,3h3v1h-3v-1zM0,3h1v1h-1v-1zM32,2h1v1h-1v-1zM28,2h3v1h-3v-1zM26,2h1v1h-1v-1zM21,2h1v1h-1v-1zM16,2h3v1h-3v-1zM11,2h3v1h-3v-1zM8,2h1v1h-1v-1zM6,2h1v1h-1v-1zM2,2h3v1h-3v-1zM0,2h1v1h-1v-1zM32,1h1v1h-1v-1zM26,1h1v1h-1v-1zM20,1h3v1h-3v-1zM13,1h5v1h-5v-1zM9,1h1v1h-1v-1zM6,1h1v1h-1v-1zM0,1h1v1h-1v-1zM26,0h7v1h-7v-1zM23,0h1v1h-1v-1zM16,0h6v1h-6v-1zM12,0h2v1h-2v-1zM10,0h1v1h-1v-1zM0,0h7v1h-7v-1z"/></svg>