<!--

https://github.com/datalog/qrcode-svg

--><svg viewBox="0 0 33 33" width="256" height="256" fill="#000000" shape-rendering="crispEdges" xmlns="http://www.w3.org/2000/svg" version="1.1"><path transform="matrix(1,0,0,1,4,4)" d="M19,24h6v1h-6v-1zM13,24h1v1h-1v-1zM8,24h2v1h-2v-1zM0,24h7v1h-7v-1zM24,23h1v1h-1v-1zM20,23h1v1h-1v-1zM16,23h2v1h-2v-1zM14,23h1v1h-1v-1zM11,23h1v1h-1v-1zM6,23h1v1h-1v-1zM0,23h1v1h-1v-1zM24,22h1v1h-1v-1zM19,22h1v1h-1v-1zM14,22h1v1h-1v-1zM10,22h1v1h-1v-1zM8,22h1v1h-1v-1zM6,22h1v1h-1v-1zM2,22h3v1h-3v-1zM0,22h1v1h-1v-1zM23,21h2v1h-2v-1zM20,21h1v1h-1v-1zM17,21h2v1h-2v-1zM14,21h2v1h-2v-1zM11,21h2v1h-2v-1zM8,21h2v1h-2v-1zM6,21h1v1h-1v-1zM2,21h3v1h-3v-1zM0,21h1v1h-1v-1zM15,20h8v1h-8v-1zM13,20h1v1h-1v-1zM8,20h2v1h-2v-1zM6,20h1v1h-1v-1zM2,20h3v1h-3v-1zM0,20h1v1h-1v-1zM23,19h2v1h-2v-1zM20,19h1v1h-1v-1zM16,19h1v1h-1v-1zM10,19h3v1h-3v-1zM8,19h1v1h-1v-1zM6,19h1v1h-1v-1zM0,19h1v1h-1v-1zM23,18h2v1h-2v-1zM20,18h2v1h-2v-1zM18,18h1v1h-1v-1zM16,18h1v1h-1v-1zM12,18h1v1h-1v-1zM10,18h1v1h-1v-1zM0,18h7v1h-7v-1zM20,17h4v1h-4v-1zM14,17h3v1h-3v-1zM12,17h1v1h-1v-1zM8,17h2v1h-2v-1zM22,16h3v1h-3v-1zM16,16h5v1h-5v-1zM10,16h4v1h-4v-1zM5,16h3v1h-3v-1zM2,16h2v1h-2v-1zM0,16h1v1h-1v-1zM23,15h1v1h-1v-1zM16,15h5v1h-5v-1zM11,15h1v1h-1v-1zM4,15h1v1h-1v-1zM0,15h1v1h-1v-1zM18,14h7v1h-7v-1zM15,14h2v1h-2v-1zM10,14h3v1h-3v-1zM8,14h1v1h-1v-1zM6,14h1v1h-1v-1zM2,14h3v1h-3v-1zM0,14h1v1h-1v-1zM22,13h2v1h-2v-1zM14,13h1v1h-1v-1zM9,13h2v1h-2v-1zM7,13h1v1h-1v-1zM5,13h1v1h-1v-1zM3,13h1v1h-1v-1zM0,13h1v1h-1v-1zM20,12h5v1h-5v-1zM17,12h2v1h-2v-1zM12,12h2v1h-2v-1zM9,12h2v1h-2v-1zM6,12h1v1h-1v-1zM4,12h1v1h-1v-1zM1,12h2v1h-2v-1zM23,11h1v1h-1v-1zM19,11h3v1h-3v-1zM16,11h2v1h-2v-1zM14,11h1v1h-1v-1zM9,11h1v1h-1v-1zM4,11h2v1h-2v-1zM1,11h2v1h-2v-1zM22,10h3v1h-3v-1zM18,10h2v1h-2v-1zM15,10h1v1h-1v-1zM8,10h1v1h-1v-1zM2,10h5v1h-5v-1zM0,10h1v1h-1v-1zM23,9h1v1h-1v-1zM19,9h1v1h-1v-1zM16,9h1v1h-1v-1zM13,9h2v1h-2v-1zM11,9h1v1h-1v-1zM7,9h1v1h-1v-1zM5,9h1v1h-1v-1zM0,9h1v1h-1v-1zM18,8h5v1h-5v-1zM13,8h1v1h-1v-1zM9,8h1v1h-1v-1zM2,8h5v1h-5v-1zM0,8h1v1h-1v-1zM16,7h1v1h-1v-1zM14,7h1v1h-1v-1zM8,7h1v1h-1v-1zM18,6h7v1h-7v-1zM16,6h1v1h-1v-1zM14,6h1v1h-1v-1zM12,6h1v1h-1v-1zM10,6h1v1h-1v-1zM8,6h1v1h-1v-1zM0,6h7v1h-7v-1zM24,5h1v1h-1v-1zM18,5h1v1h-1v-1zM12,5h5v1h-5v-1zM8,5h1v1h-1v-1zM6,5h1v1h-1v-1zM0,5h1v1h-1v-1zM24,4h1v1h-1v-1zM20,4h3v1h-3v-1zM18,4h1v1h-1v-1zM16,4h1v1h-1v-1zM13,4h1v1h-1v-1zM8,4h1v1h-1v-1zM6,4h1v1h-1v-1zM2,4h3v1h-3v-1zM0,4h1v1h-1v-1zM24,3h1v1h-1v-1zM20,3h3v1h-3v-1zM18,3h1v1h-1v-1zM15,3h2v1h-2v-1zM10,3h4v1h-4v-1zM8,3h1v1h-1v-1zM6,3h1v1h-1v-1zM2,3h3v1h-3v-1zM0,3h1v1h-1v-1zM24,2h1v1h-1v-1zM20,2h3v1h-3v-1zM18,2h1v1h-1v-1zM14,2h1v1h-1v-1zM11,2h1v1h-1v-1zM8,2h2v1h-2v-1zM6,2h1v1h-1v-1zM2,2h3v1h-3v-1zM0,2h1v1h-1v-1zM24,1h1v1h-1v-1zM18,1h1v1h-1v-1zM12,1h4v1h-4v-1zM9,1h1v1h-1v-1zM6,1h1v1h-1v-1zM0,1h1v1h-1v-1zM18,0h7v1h-7v-1zM16,0h1v1h-1v-1zM12,0h1v1h-1v-1zM0,0h7v1h-7v-1z"/></svg>