<?xml version="1.0" encoding="UTF-8" standalone="no"?>
<!-- Created with Inkscape (http://www.inkscape.org/) -->

<svg
   width="512"
   height="512"
   viewBox="0 0 512 512"
   version="1.1"
   id="svg1"
   inkscape:version="1.3.2 (091e20e, 2023-11-25, custom)"
   sodipodi:docname="restart-arrow.svg"
   xmlns:inkscape="http://www.inkscape.org/namespaces/inkscape"
   xmlns:sodipodi="http://sodipodi.sourceforge.net/DTD/sodipodi-0.dtd"
   xmlns="http://www.w3.org/2000/svg"
   xmlns:svg="http://www.w3.org/2000/svg">
  <sodipodi:namedview
     id="namedview1"
     pagecolor="#ffffff"
     bordercolor="#000000"
     borderopacity="0.25"
     inkscape:showpageshadow="2"
     inkscape:pageopacity="0.0"
     inkscape:pagecheckerboard="0"
     inkscape:deskcolor="#d1d1d1"
     inkscape:document-units="px"
     inkscape:zoom="0.52929688"
     inkscape:cx="323.07011"
     inkscape:cy="458.15498"
     inkscape:window-width="1366"
     inkscape:window-height="745"
     inkscape:window-x="-8"
     inkscape:window-y="-8"
     inkscape:window-maximized="1"
     inkscape:current-layer="layer1" />
  <defs
     id="defs1" />
  <g
     inkscape:label="Calque 1"
     inkscape:groupmode="layer"
     id="layer1">
    <g
       id="g2"
       transform="translate(8.8392488)">
      <g
         id="g3"
         inkscape:label="Arrow"
         transform="matrix(-0.24189855,0.63016726,-0.63016726,-0.24189855,311.84014,113.27212)">
        <rect
           style="fill:#000000;fill-opacity:1"
           id="rect3"
           width="192"
           height="64"
           x="241.71753"
           y="67.377945"
           transform="rotate(45)" />
        <rect
           style="fill:#000000;fill-opacity:1"
           id="rect3-2"
           width="192"
           height="64"
           x="-131.35533"
           y="241.664"
           transform="rotate(-45)" />
      </g>
      <path
         id="path1"
         style="fill:#000000;fill-opacity:1;stroke-width:0.84375"
         d="m 270,40 a 216,216 0 0 0 -47.25,5.789246 V 73.572021 A 189,189 0 0 1 270,67 189,189 0 0 1 459,256 189,189 0 0 1 270,445 189,189 0 0 1 81,256 189,189 0 0 1 87.57202,208.75 H 59.789246 A 216,216 0 0 0 54,256 216,216 0 0 0 270,472 216,216 0 0 0 486,256 216,216 0 0 0 270,40 Z" />
    </g>
  </g>
</svg>
