<svg xmlns="http://www.w3.org/2000/svg" width="512" height="512"><path d="M241.718 67.378h192v64h-192z" style="fill:#000;fill-opacity:1" transform="rotate(156 148.301 90.717)scale(.675)"/><path d="M-131.355 241.664h192v64h-192z" style="fill:#000;fill-opacity:1" transform="rotate(66 73.128 303.537)scale(.675)"/><path d="M270 40a216 216 0 0 0-47.25 5.79v27.782A189 189 0 0 1 270 67a189 189 0 0 1 189 189 189 189 0 0 1-189 189A189 189 0 0 1 81 256a189 189 0 0 1 6.572-47.25H59.789A216 216 0 0 0 54 256a216 216 0 0 0 216 216 216 216 0 0 0 216-216A216 216 0 0 0 270 40" style="fill:#000;fill-opacity:1;stroke-width:.84375" transform="translate(8.84)"/></svg>