<?xml version="1.0" encoding="UTF-8" standalone="no"?>
<!-- Created with Inkscape (http://www.inkscape.org/) -->

<svg
   id="svg3135"
   viewBox="0 0 76.795998 168.442"
   version="1.1"
   inkscape:version="1.3.2 (091e20e, 2023-11-25, custom)"
   sodipodi:docname="Swipe.svg"
   width="76.795998"
   height="168.442"
   xmlns:inkscape="http://www.inkscape.org/namespaces/inkscape"
   xmlns:sodipodi="http://sodipodi.sourceforge.net/DTD/sodipodi-0.dtd"
   xmlns="http://www.w3.org/2000/svg"
   xmlns:svg="http://www.w3.org/2000/svg"
   xmlns:rdf="http://www.w3.org/1999/02/22-rdf-syntax-ns#"
   xmlns:cc="http://creativecommons.org/ns#"
   xmlns:dc="http://purl.org/dc/elements/1.1/">
  <sodipodi:namedview
     id="namedview1"
     pagecolor="#ffffff"
     bordercolor="#000000"
     borderopacity="0.25"
     inkscape:showpageshadow="2"
     inkscape:pageopacity="0.0"
     inkscape:pagecheckerboard="0"
     inkscape:deskcolor="#d1d1d1"
     inkscape:zoom="3.0999434"
     inkscape:cx="21.290711"
     inkscape:cy="82.420859"
     inkscape:window-width="1366"
     inkscape:window-height="745"
     inkscape:window-x="-8"
     inkscape:window-y="-8"
     inkscape:window-maximized="1"
     inkscape:current-layer="layer1" />
  <defs
     id="defs3137">
    <clipPath
       id="clipPath84">
      <path
         id="path86"
         d="M 0,612 H 792 V 0 H 0 Z" />
    </clipPath>
  </defs>
  <g
     id="layer1"
     transform="translate(-578.9,-444.79)">
    <path
       id="path94"
       style="display:inline;fill:#000000;stroke-width:1.25;fill-opacity:1"
       d="m 650.98513,552.48073 c -0.0937,1.1775 -0.17,2.125 -0.21125,2.76125 -0.2525,3.90875 -1.01875,15.8025 -3.44375,21.40875 -2.71,6.26875 -0.96375,14.255 -0.88875,14.5925 l 0.0612,0.21625 c 0.48875,1.3725 0.315,2.9575 -0.4975,4.58375 -1.2625,2.5275 -5.25875,7.35375 -17.825,11.28125 -15.07625,4.71 -19.51375,0.2275 -19.8175,-0.10375 -1.3375,-2.23625 -26.29625,-44.265 -25.51,-63.91375 0.1075,-7.57625 0.445,-27.74625 0.7175,-30.06875 0.22625,-1.9225 -0.085,-4.5475 -0.415,-7.32625 -0.315,-2.655 -0.9,-7.59625 -0.2075,-8.395 10e-4,0 0.1275,-0.0213 0.4325,0.0662 l 0.35875,0.065 c 0.1975,0.02 4.7175,0.5925 6.9,8.3425 -0.0625,3.85125 -0.12,7.92 -0.17375,12.22375 -0.0438,3.6025 -0.0788,6.26125 -0.11,7.51625 -0.1925,7.3175 -2.66875,12.03125 -2.69375,12.0775 l 1.65125,0.88875 1.6475,0.8925 c 0.12,-0.22 2.925,-5.48875 3.1425,-13.76 0.0338,-1.26375 0.0675,-3.94125 0.1125,-7.56875 0.0537,-4.38125 0.115,-8.54 0.18125,-12.50125 l 0.0675,-0.0175 c -0.0188,-0.0788 -0.0438,-0.14625 -0.065,-0.22375 0.5675,-33.9 1.55,-52.30625 2.92,-54.72375 1.1475,-1.68125 3.01,-2.5525 4.6375,-2.1675 1.4125,0.33625 2.33,1.55875 2.58125,3.4425 0.25625,1.93 0.57875,8.63 0.9525,16.38625 1.095,22.76 2.1475,41.9725 3.9525,46.55375 l 3.48875,-1.375 c -1.14,-2.89625 -2.06625,-15.10375 -2.77625,-27.4725 1.9425,-0.39375 3.6425,-0.13 5.17625,0.79875 3.4375,2.08125 5.56625,7.3475 6.4125,11.5825 0.86,4.29875 1.83625,15.76875 1.84625,15.885 l 3.735,-0.31625 c -0.0387,-0.48 -1.0025,-11.7975 -1.90375,-16.30375 -0.11,-0.55 -0.305,-1.40625 -0.59625,-2.425 7.2625,-0.15375 9.0775,7.15125 9.26875,8.035 0.8,3.67875 6.0975,18.07625 6.3225,18.6875 l 3.52,-1.29625 c -1.14,-3.0925 -2.95125,-8.12 -4.3325,-12.20875 4.31625,0.625 6.635,5.07 9.09875,10.70875 0.6825,1.56 1.325,3.0325 2.01875,4.19875 2.2775,3.83625 0.76125,22.755 0.26375,28.9725 m 2.95875,-30.88625 c -0.5725,-0.96625 -1.17125,-2.33625 -1.80375,-3.78625 -2.33,-5.3325 -5.77,-13.20375 -13.78625,-13.045 -0.27875,-0.90625 -0.48875,-1.65 -0.595,-2.1425 -0.9925,-4.56625 -5.1125,-11.83875 -14.23125,-10.895 -1.26625,-2.9525 -3.24125,-6.1475 -6.25375,-7.9725 -2.2025,-1.335 -4.66375,-1.77625 -7.32875,-1.35 -0.2725,-5.04875 -0.51,-9.96875 -0.71,-14.1275 -0.3925,-8.165 -0.70375,-14.615 -0.9825,-16.70125 -0.45625,-3.4325 -2.4875,-5.8975 -5.43,-6.595 -3.125,-0.74375 -6.58625,0.74625 -8.60125,3.7025 -1.785,2.6175 -2.81375,16.84875 -3.44125,49.275 -2.6825,-3.24625 -5.6625,-3.9025 -6.525,-4.02125 -1.8025,-0.46625 -2.9725,0.105 -3.6425,0.67625 -2.3375,1.99 -1.8,6.50875 -1.18,11.74125 0.2875,2.44 0.58875,4.96375 0.4125,6.4475 -0.35125,2.9875 -0.725,29.33375 -0.74,30.405 -0.8475,21.15125 25.00125,64.22125 26.10125,66.04375 l 0.0713,0.10875 c 0.3725,0.53125 3.03625,3.87375 10.86875,3.87375 3.35625,0 7.66625,-0.615 13.15125,-2.32875 13.19625,-4.12375 18.19375,-9.445 20.06125,-13.18375 1.23875,-2.4775 1.495,-5.095 0.7225,-7.3875 -0.1725,-0.85 -1.39125,-7.37625 0.69125,-12.19375 2.405,-5.56 3.28875,-15.59125 3.74375,-22.65375 0.04,-0.62375 0.11375,-1.55125 0.20625,-2.705 1.09625,-13.67125 1.75875,-26.91375 -0.77875,-31.185"
       inkscape:label="Finger" />
  </g>
  <metadata
     id="metadata1">
    <rdf:RDF>
      <cc:Work>
        <dc:format>image/svg+xml</dc:format>
        <dc:type
           rdf:resource="http://purl.org/dc/dcmitype/StillImage" />
        <cc:license
           rdf:resource="http://creativecommons.org/publicdomain/zero/1.0/" />
        <dc:publisher>
          <cc:Agent
             rdf:about="http://openclipart.org/">
            <dc:title>Openclipart</dc:title>
          </cc:Agent>
        </dc:publisher>
        <dc:title>Multitouch - swipe</dc:title>
        <dc:date>2013-02-25T20:30:44</dc:date>
        <dc:description>A small set of multitoutch wireframes by Jonathan Averstedt. Used with permission, original file available here: http://dribbble.com/shots/817543-Freebie-Hands</dc:description>
        <dc:source>https://openclipart.org/detail/175322/multitouch---swipe-by-williamtheaker-175322</dc:source>
        <dc:creator>
          <cc:Agent>
            <dc:title>williamtheaker</dc:title>
          </cc:Agent>
        </dc:creator>
        <dc:subject>
          <rdf:Bag>
            <rdf:li>android</rdf:li>
            <rdf:li>gesture</rdf:li>
            <rdf:li>iphone</rdf:li>
            <rdf:li>meego</rdf:li>
            <rdf:li>multitouch</rdf:li>
            <rdf:li>replicant</rdf:li>
            <rdf:li>smartphone</rdf:li>
            <rdf:li>swipe</rdf:li>
            <rdf:li>tablet</rdf:li>
          </rdf:Bag>
        </dc:subject>
      </cc:Work>
      <cc:License
         rdf:about="http://creativecommons.org/licenses/publicdomain/">
        <cc:permits
           rdf:resource="http://creativecommons.org/ns#Reproduction" />
        <cc:permits
           rdf:resource="http://creativecommons.org/ns#Distribution" />
        <cc:permits
           rdf:resource="http://creativecommons.org/ns#DerivativeWorks" />
      </cc:License>
    </rdf:RDF>
  </metadata>
</svg>
