<svg xmlns="http://www.w3.org/2000/svg" width="76.796" height="168.442"><path d="M650.985 552.48c-.094 1.178-.17 2.126-.211 2.762-.253 3.909-1.019 15.802-3.444 21.409-2.71 6.268-.964 14.255-.889 14.592l.062.216c.488 1.373.315 2.958-.498 4.584-1.262 2.528-5.259 7.354-17.825 11.281-15.076 4.71-19.514.228-19.817-.103-1.338-2.237-26.297-44.265-25.51-63.914.107-7.576.445-27.746.717-30.069.226-1.922-.085-4.547-.415-7.326-.315-2.655-.9-7.596-.207-8.395 0 0 .127-.021.432.066l.359.065c.197.02 4.717.593 6.9 8.343-.063 3.85-.12 7.92-.174 12.223a818 818 0 0 1-.11 7.517c-.192 7.317-2.669 12.03-2.694 12.077l1.652.889 1.647.892c.12-.22 2.925-5.488 3.143-13.76.033-1.263.067-3.94.112-7.568.054-4.382.115-8.54.181-12.502l.068-.017c-.019-.079-.044-.146-.065-.224.567-33.9 1.55-52.306 2.92-54.724 1.147-1.68 3.01-2.552 4.637-2.167 1.413.336 2.33 1.559 2.582 3.442.256 1.93.578 8.63.952 16.387 1.095 22.76 2.148 41.972 3.953 46.553l3.488-1.375c-1.14-2.896-2.066-15.103-2.776-27.472 1.943-.394 3.643-.13 5.176.799 3.438 2.08 5.567 7.347 6.413 11.582.86 4.299 1.836 15.769 1.846 15.885l3.735-.316c-.039-.48-1.002-11.798-1.904-16.304-.11-.55-.305-1.406-.596-2.425 7.263-.154 9.078 7.151 9.269 8.035.8 3.679 6.097 18.076 6.322 18.688l3.52-1.297c-1.14-3.092-2.95-8.12-4.332-12.208 4.316.625 6.635 5.07 9.099 10.708.682 1.56 1.325 3.033 2.018 4.2 2.278 3.835.762 22.754.264 28.972m2.959-30.887c-.573-.966-1.171-2.336-1.804-3.786-2.33-5.332-5.77-13.204-13.786-13.045-.279-.906-.489-1.65-.595-2.142-.993-4.567-5.113-11.84-14.231-10.895-1.267-2.953-3.242-6.148-6.254-7.973-2.203-1.335-4.664-1.776-7.329-1.35-.272-5.049-.51-9.969-.71-14.127-.392-8.165-.704-14.615-.982-16.702-.457-3.432-2.488-5.897-5.43-6.595-3.125-.743-6.587.747-8.602 3.703-1.785 2.617-2.813 16.849-3.44 49.275-2.683-3.246-5.663-3.903-6.526-4.021-1.802-.467-2.972.105-3.642.676-2.338 1.99-1.8 6.509-1.18 11.741.287 2.44.588 4.964.412 6.448-.351 2.987-.725 29.333-.74 30.405-.847 21.15 25.001 64.22 26.101 66.043l.072.11c.372.53 3.036 3.873 10.868 3.873 3.357 0 7.667-.615 13.152-2.329 13.196-4.124 18.193-9.445 20.06-13.184 1.24-2.477 1.496-5.095.723-7.387-.172-.85-1.39-7.376.692-12.194 2.405-5.56 3.288-15.591 3.743-22.654.04-.623.114-1.55.207-2.705 1.096-13.67 1.758-26.913-.78-31.185" style="display:inline;fill:#000;stroke-width:1.25;fill-opacity:1" transform="translate(-578.9 -444.79)"/></svg>