<!--

https://github.com/datalog/qrcode-svg

--><svg viewBox="0 0 33 33" width="256" height="256" fill="#000000" shape-rendering="crispEdges" xmlns="http://www.w3.org/2000/svg" version="1.1"><path transform="matrix(1,0,0,1,4,4)" d="M19,24h6v1h-6v-1zM13,24h1v1h-1v-1zM11,24h1v1h-1v-1zM8,24h2v1h-2v-1zM0,24h7v1h-7v-1zM17,23h6v1h-6v-1zM13,23h3v1h-3v-1zM6,23h1v1h-1v-1zM0,23h1v1h-1v-1zM23,22h1v1h-1v-1zM17,22h5v1h-5v-1zM14,22h2v1h-2v-1zM8,22h5v1h-5v-1zM6,22h1v1h-1v-1zM2,22h3v1h-3v-1zM0,22h1v1h-1v-1zM23,21h2v1h-2v-1zM20,21h1v1h-1v-1zM17,21h2v1h-2v-1zM11,21h5v1h-5v-1zM8,21h2v1h-2v-1zM6,21h1v1h-1v-1zM2,21h3v1h-3v-1zM0,21h1v1h-1v-1zM24,20h1v1h-1v-1zM16,20h5v1h-5v-1zM12,20h1v1h-1v-1zM9,20h2v1h-2v-1zM6,20h1v1h-1v-1zM2,20h3v1h-3v-1zM0,20h1v1h-1v-1zM20,19h2v1h-2v-1zM14,19h3v1h-3v-1zM11,19h2v1h-2v-1zM8,19h1v1h-1v-1zM6,19h1v1h-1v-1zM0,19h1v1h-1v-1zM23,18h2v1h-2v-1zM20,18h2v1h-2v-1zM18,18h1v1h-1v-1zM16,18h1v1h-1v-1zM8,18h1v1h-1v-1zM0,18h7v1h-7v-1zM23,17h2v1h-2v-1zM20,17h1v1h-1v-1zM16,17h1v1h-1v-1zM14,17h1v1h-1v-1zM8,17h1v1h-1v-1zM13,16h10v1h-10v-1zM9,16h2v1h-2v-1zM6,16h1v1h-1v-1zM3,16h1v1h-1v-1zM23,15h1v1h-1v-1zM16,15h5v1h-5v-1zM10,15h2v1h-2v-1zM0,15h1v1h-1v-1zM23,14h1v1h-1v-1zM20,14h1v1h-1v-1zM13,14h1v1h-1v-1zM10,14h2v1h-2v-1zM6,14h3v1h-3v-1zM1,14h4v1h-4v-1zM24,13h1v1h-1v-1zM20,13h3v1h-3v-1zM17,13h2v1h-2v-1zM15,13h1v1h-1v-1zM11,13h3v1h-3v-1zM9,13h1v1h-1v-1zM4,13h2v1h-2v-1zM1,13h1v1h-1v-1zM20,12h5v1h-5v-1zM17,12h2v1h-2v-1zM12,12h2v1h-2v-1zM10,12h1v1h-1v-1zM6,12h2v1h-2v-1zM2,12h2v1h-2v-1zM0,12h1v1h-1v-1zM22,11h3v1h-3v-1zM20,11h1v1h-1v-1zM17,11h2v1h-2v-1zM15,11h1v1h-1v-1zM12,11h2v1h-2v-1zM8,11h1v1h-1v-1zM5,11h1v1h-1v-1zM0,11h2v1h-2v-1zM19,10h4v1h-4v-1zM17,10h1v1h-1v-1zM8,10h5v1h-5v-1zM4,10h3v1h-3v-1zM2,10h1v1h-1v-1zM0,10h1v1h-1v-1zM23,9h1v1h-1v-1zM19,9h1v1h-1v-1zM16,9h1v1h-1v-1zM14,9h1v1h-1v-1zM12,9h1v1h-1v-1zM9,9h2v1h-2v-1zM3,9h2v1h-2v-1zM0,9h1v1h-1v-1zM23,8h2v1h-2v-1zM21,8h1v1h-1v-1zM18,8h1v1h-1v-1zM15,8h2v1h-2v-1zM9,8h4v1h-4v-1zM5,8h3v1h-3v-1zM2,8h2v1h-2v-1zM0,8h1v1h-1v-1zM15,7h2v1h-2v-1zM8,7h1v1h-1v-1zM18,6h7v1h-7v-1zM16,6h1v1h-1v-1zM14,6h1v1h-1v-1zM12,6h1v1h-1v-1zM10,6h1v1h-1v-1zM8,6h1v1h-1v-1zM0,6h7v1h-7v-1zM24,5h1v1h-1v-1zM18,5h1v1h-1v-1zM14,5h1v1h-1v-1zM10,5h3v1h-3v-1zM6,5h1v1h-1v-1zM0,5h1v1h-1v-1zM24,4h1v1h-1v-1zM20,4h3v1h-3v-1zM18,4h1v1h-1v-1zM10,4h7v1h-7v-1zM6,4h1v1h-1v-1zM2,4h3v1h-3v-1zM0,4h1v1h-1v-1zM24,3h1v1h-1v-1zM20,3h3v1h-3v-1zM18,3h1v1h-1v-1zM15,3h2v1h-2v-1zM13,3h1v1h-1v-1zM8,3h4v1h-4v-1zM6,3h1v1h-1v-1zM2,3h3v1h-3v-1zM0,3h1v1h-1v-1zM24,2h1v1h-1v-1zM20,2h3v1h-3v-1zM18,2h1v1h-1v-1zM10,2h7v1h-7v-1zM6,2h1v1h-1v-1zM2,2h3v1h-3v-1zM0,2h1v1h-1v-1zM24,1h1v1h-1v-1zM18,1h1v1h-1v-1zM13,1h1v1h-1v-1zM8,1h4v1h-4v-1zM6,1h1v1h-1v-1zM0,1h1v1h-1v-1zM18,0h7v1h-7v-1zM16,0h1v1h-1v-1zM12,0h1v1h-1v-1zM8,0h3v1h-3v-1zM0,0h7v1h-7v-1z"/></svg>